<svg xmlns="http://www.w3.org/2000/svg" width="149" height="48" viewBox="0 0 149 48"><g fill="#FFF" fill-rule="evenodd"><path d="M56.575 14.92c.174-1.94 2.67-4.11 2.308-6.083-.286-1.563-2.262-2.887-4.247-3.19-1.142-.175-4.896-.448-5.715-.474a417.39 417.39 0 0 0-4.58-.095c-.85-.01-3.098-.022-3.762-.043-.668-.02-1.495-.031-2.56-.21-1.078-.18-1.841-.4-2.904-.714-1.064-.315-1.911-.568-2.75-.746a24.369 24.369 0 0 0-2.635-.41 55.966 55.966 0 0 0-3.257-.187c-1.088-.02-3.764 0-4.626.01-.859.01-3.526.104-4.224.104-.7 0-1.453-.01-1.784.01-.334.021-.26.18-.41.2-.152.022-.967 0-1.43 0-.462 0-.806-.02-.968-.032-.162-.01-.398-.01-.398-.01s-.03.147.131.188c.16.043.57.075.709.086.138.011 1.235.084 1.621.104.39.02 1.055.02 1.476.054.419.032 1.17.032 1.666.04.494.012 2.493 0 3.224.021.731.023 2.11.023 2.785.043.678.02 2.28.084 3.54.233 1.258.145 2.278.292 3.546.588 1.21.28 2.646.723 3.345.933.699.21 1.667.463 2.17.568.506.105.96.137 1.087.243.13.102.13.22.055.378-.076.158-.14.21-.194.357a4.355 4.355 0 0 1-.109.262h-.45s.085-.084.096-.179c.01-.094-.257-.253-.539-.305-.278-.054-1.557-.167-1.89-.21-.335-.043-1.603-.158-2.292-.149-.687.014-3.375-.02-4.064 0-.688.024-3.202-.03-3.838-.009-.634.023-2.848 0-3.452-.011-.601-.01-2-.01-2.558-.01-.56 0-2.452 0-3.118-.01-.667-.012-2.947-.063-3.387-.052-.441.01-1.688-.032-2.311-.041-.624-.012-2.764-.075-3.345-.075-.578 0-1.31-.043-1.538-.104-.224-.065-1.45-.684-1.944-.924-.496-.244-1.431-.715-1.69-.841C1.108 4.1.86 3.932.785 3.9c-.075-.03-.42.295-.514.42-.098.127-.271 0-.271 0s1.182-1.28 1.42-1.552c.236-.274.528-.642.655-.682.13-.044.645-.044.958-.012.312.032 2.3.2 2.688.23.386.032 2.075.085 2.526.107.453.02 2.59.031 3.3.052.711.02 2.936.072 3.602.04.667-.03 2.515-.198 3.087-.23.57-.031 2.366-.158 3.203-.178.84-.02 2.559-.01 3.107-.041.548-.034 2.72-.054 3.475-.054.751 0 2.87.086 3.59.106.721.02 3.807.178 4.612.219.806.043 4.807.179 5.688.2.882.02 2.194.064 2.892.02.7-.041 4.053-.188 5.075-.22 1.02-.031 3.699-.072 4.786-.04 1.085.029 3.697.284 4.58.388.882.104 1.752.326 1.999.335.248.011.646.031.784.158.142.127.27.41.54.567.266.158.643.22.772.389.13.167.141.515.215.662.076.147.388.629.43.956.044.326 0 .893-.212 1.25-.218.357-.573.789-.97 1.186-.398.4-.999.832-1.526 1.273-.528.44-1.42 1.123-1.881 1.742-.465.62-.752 1.042-.851 1.66-.095.62-.042.989-.074 1.093-.035.106-.13.366-.28.525-.15.158-.805.904-1.043 1.208a24.38 24.38 0 0 0-.731 1.02c-.098.145-.183.303-.183.303l-.15-.251s.329-.387.361-.482c.124-.143.065-.591.131-1.346"/><path d="M4 7.402l.073-.4s1.085-.01 1.416.012c.33.02 2.31.086 3 .086.692 0 2.841.065 3.361.044.522-.023 3.427.042 4.057.042.627 0 3.67.011 4.297.023.63.01 4.107.03 4.65.03.542 0 3.406 0 4.077.011.668.01 3.541-.02 4.192-.02.648 0 2.31.03 2.67.02.363-.01.65-.041.725-.064.073-.021.307-.119.446-.054.14.065.201.227.265.312.065.088.193.185.266.239.074.053.225.13.32.26s.095.13.245.246c.15.12.181.174.128.24a7.556 7.556 0 0 0-.373.506c-.095.15-.128.313-.18.355-.055.046-.373.076-.373.076s.192-.139.16-.269c-.034-.128-.257-.42-.713-.453-.46-.033-1.597.075-2.108.128-.51.056-3.896.356-4.49.411-.596.054-5.288.39-6.086.453-.799.065-4.51.293-5.225.346-.711.054-3.49.195-4.351.247-.863.055-2.853.141-3.608.174-.754.034-2.255.064-2.532.043-.277-.02-.65-.183-.84-.27-.193-.085-1.394-.636-1.734-.788-.34-.151-.938-.398-1.043-.54-.108-.14-.054-.367-.054-.538 0-.174-.012-.4-.203-.562C4.243 7.585 4 7.402 4 7.402m3.734 4.664v-.303s.501 0 .765-.043c.267-.043 1.32-.043 2.021-.075.703-.034 3.448-.153 4.311-.204.884-.056 4.8-.272 5.533-.325.735-.054 5.905-.411 6.628-.476.723-.064 4.993-.41 5.663-.463.669-.055 2.905-.292 3.702-.357.8-.065.916-.173 1.044-.184.128-.01.223-.086.35.065.127.15.394.455.554.562.16.109.66.432.671.593.01.162-.14.367-.215.518-.073.153-.073.454-.073.454l-.51.096s.04-.117.054-.193c.008-.075-.077-.28-.288-.367a1.643 1.643 0 0 0-.916-.074c-.35.074-1.948.355-2.598.462-.648.11-4.414.746-5.33.896-.915.151-4.532.714-5.395.832-.862.119-4.202.562-5.372.679-1.171.12-2.577.26-3.363.304-.787.042-1.586.118-2.16.053-.575-.065-1.841-.464-2.395-.604-.552-.142-1.383-.388-1.522-.53a.953.953 0 0 1-.254-.462c-.042-.174-.31-.541-.449-.606-.136-.065-.456-.248-.456-.248m4.714 3.811s.213.033.447 0c.235-.033.436-.142.713-.151.275-.011 1.106-.044 1.564-.065.458-.021 1.797-.151 2.266-.195.468-.044 2.692-.27 3.416-.367.724-.098 4.69-.67 5.352-.765.66-.099 3.98-.606 4.884-.768.904-.16 3.937-.702 4.714-.852.775-.152 1.712-.302 2.064-.377.35-.078.586-.239.778-.183.19.051.392.204.637.32.245.121.618.24.82.314.201.076.394.184.414.26.02.077 0 .379-.085.527a1.356 1.356 0 0 0-.17.444 2.864 2.864 0 0 0-.042.315l-.479.173s.074-.218 0-.325c-.076-.11-.341-.303-.479-.282-.139.021-.352.033-.574.11-.223.074-3.097.95-3.555 1.08l-3.427.959c-.424.12-3.128.808-3.892.971-.767.162-3.597.745-4.3.876-.702.13-3.363.475-4.043.517-.682.044-.799.065-1.341.033-.543-.033-1.564-.163-2.214-.258a29.239 29.239 0 0 1-1.596-.292c-.244-.054-.478-.098-.585-.389-.106-.292-.095-.508-.275-.712-.181-.205-.405-.411-.554-.476-.15-.065-.385-.064-.417-.14-.053-.13-.041-.302-.041-.302m5.725 3.94s1.937-.205 2.372-.27c.437-.065 3.416-.497 4.13-.648.712-.151 3.787-.83 4.34-.96a324.27 324.27 0 0 0 4.586-1.2c.67-.184 2.926-.83 3.533-1.024.606-.193 2.406-.744 2.607-.832.201-.086.403-.237.607-.216.203.021.787.204 1 .27.213.064.765.162.863.26a.352.352 0 0 1 .115.334c-.02.153-.012.95 0 1.036.01.088.215.26.215.26l-.511.204c-.108.044-.341.13-.341.13s.053-.227.02-.292c-.031-.063-.321-.239-.404-.258-.097-.023-.181 0-.406.075-.222.076-.796.336-1.083.466-.288.128-1.99.808-2.5 1.013a190.09 190.09 0 0 1-3.237 1.242c-.659.237-3.658 1.285-4.212 1.457-.554.174-2.523.734-2.99.852-.47.119-.693.218-1.075.239-.383.021-1.873-.109-2.491-.195-.616-.086-2.351-.346-2.585-.422a1.06 1.06 0 0 1-.522-.332 1.563 1.563 0 0 0-.488-.412 7.495 7.495 0 0 0-.703-.346c-.19-.074-.277-.107-.404-.16-.127-.055-.266-.067-.341-.12a.272.272 0 0 1-.095-.151m8.013 3.4s.625-.151.808-.237c.18-.086 1.19-.398 1.511-.486.32-.086 1.458-.4 1.935-.561.48-.163 2.713-.94 3.152-1.09.435-.151 3.095-1.166 3.617-1.37.522-.205 3.48-1.436 3.903-1.61.428-.172.852-.356 1-.455.152-.096.628-.333.854-.388.222-.054.67-.128.87-.116.204.009.353-.012.438.083a.51.51 0 0 1 .105.39c-.01.16.043.572.225.711.18.142.457.272.766.347a6.1 6.1 0 0 0 .713.13c.105.01.18 0 .18 0s-.605.365-.755.443l-.788.397s-.053-.16-.126-.193c-.075-.032-.361-.032-.597-.01a1.623 1.623 0 0 0-.68.236c-.215.13-2.257 1.23-2.66 1.447-.406.216-3.535 1.87-3.959 2.064-.426.193-2.436 1.197-2.767 1.348-.33.153-.522.283-.831.313-.31.033-1.01.044-1.637.054a45.423 45.423 0 0 1-2.246-.042c-.382-.021-.937-.035-1.234-.151-.298-.12-.341-.283-.522-.497a1.916 1.916 0 0 0-.691-.474c-.16-.056-.407-.073-.511-.046-.043.011-.073-.237-.073-.237m7.278 2.613s2.435-1.243 2.807-1.403c.374-.163 4.013-2.051 4.48-2.311.469-.26 3.129-1.738 3.704-2.06.574-.326 1.371-.758 1.5-.844.128-.086.223-.216.383-.27.159-.055.266-.076.266-.076s.224.304.35.465c.129.16.417.453.736.497.318.044.478.054.68.03.201-.02.553-.095.553-.095s-.881.864-1.041.992c-.16.13-2.097 1.74-2.48 2.085-.382.346-1.788 1.457-2.108 1.716-.318.259-1.34 1.027-1.561 1.144a7.65 7.65 0 0 1-1.142.434c-.35.096-1.969.441-2.553.56-.584.118-1.84.336-2.084.346-.247.011-.597.011-.81-.218-.213-.226-.33-.56-.607-.7-.276-.141-.467-.231-.659-.206-.384.053-.414-.086-.414-.086m7.074 1.447s1.32-.983 1.609-1.222c.284-.237 1.477-1.185 1.797-1.445.32-.26 1.722-1.414 2.15-1.77.426-.357 1.701-1.458 2.033-1.76.33-.302.987-.95.987-.95s.045.26.16.355c.119.1.279.304.554.42.277.122.659.142.938.131.275-.01.54-.042.648-.042.107 0 .277.053.288.237.01.183.021.313.021.4 0 .087.041.162.041.162l-1.957 2.202c-.382.432-1.49 1.64-1.84 2.007-.353.367-1.246 1.35-1.351 1.437-.108.086-.42.017-.61-.097-.242-.151-.466-.033-.764.044-.3.074-.83.237-1.181.323-.305.074-1.16.27-1.383.27-.222 0-.47-.022-.607-.173-.137-.15-.446-.487-.606-.562-.16-.076-.353-.13-.436-.076-.086.055-.427.26-.491.109m6.44.432s1.275-1.371 1.563-1.673a322.56 322.56 0 0 0 2.16-2.364c.329-.367.894-1.05 1.032-1.222.139-.172.244-.29.308-.29.065 0 .426-.021.713-.077.288-.053.725-.149.829-.118.107.033.107.118.119.206.01.084.02 1.025.031 1.327.01.304.01.961-.053 1.2-.063.237-.766 1.629-.926 2.007-.159.379-.619 1.22-.68 1.382a.6.6 0 0 1-.16.258c-.054.056-.174-.138-.342-.344-.233-.292-.477-.25-.723-.183-.243.063-1.616.43-1.861.483-.245.056-.671.174-.895.13-.223-.042-.33-.193-.436-.376-.107-.184-.24-.304-.393-.304-.17 0-.287-.042-.287-.042m6.225-.972s.318-.766.392-.907c.077-.142.18-.367.18-.367s.087.4.16.583c.076.184.26.382.321.592.045.159.362.985.415 1.113.052.13.149.334.116.455a.487.487 0 0 0 .023.323c.041.107.081.208.01.236-.108.045-.33.207-.404.238-.075.032-.256.023-.361-.138-.066-.1-.332-.12-.543-.292-.213-.174-.192-.281-.181-.455.01-.17.106-.82.053-.96s-.18-.42-.18-.42m-6.47 2.634s.393.506.65.496c.254-.01.338-.076.444-.109.107-.032.341-.041.437.01.096.054.236.228.225.39-.012.163.086.505.201.766.14.314.682 1.436 1 1.966.318.53 1.244 1.867 1.637 2.352.396.488 1.705 1.935 2.044 2.235.34.304 2.065 1.76 2.683 2.18.616.421 2.084 1.385 2.979 1.836.893.455 2 .982 2.287 1.092.286.109.479.139.531.225a.997.997 0 0 0 .149.174l-.328.55-.288.465-.243-.119s.179-.152.115-.28a.74.74 0 0 0-.341-.37c-.202-.106-1.074-.484-1.458-.667-.383-.183-2.063-1.112-2.658-1.5-.598-.39-2.065-1.414-2.759-1.988-.69-.572-2.19-2.06-2.69-2.623-.5-.561-1.543-1.953-1.863-2.452-.319-.495-1.223-2.158-1.415-2.601-.192-.442-.298-.735-.479-.906-.18-.172-.233-.205-.309-.216l-.263-.033s-.055-.13-.151-.422c-.075-.228-.138-.451-.138-.451"/><path d="M49.138 29.314s.365-.02.657-.137c.29-.117 1.087-.34 1.409-.425.322-.086.698-.244.86-.287.162-.041.28-.094.375-.074.099.021.152.074.257.222.109.15.24.465.377.573.162.128.379.32.678.288.302-.032.603-.064.85-.17.246-.106.71-.403.817-.458.107-.053.26-.17.312-.114.054.052.13.148.204.169a.46.46 0 0 1 .224.191c.045.074.71 1.051 1.076 1.485.366.434.893 1.01 1.259 1.359.365.351 1.43 1.263 1.848 1.56.42.298 1.647 1.105 2.195 1.39.548.288 1.214.638 1.753.862.537.223 1.106.445 1.258.518.149.075.204.148.31.235.109.084.172.192.13.297-.044.105-.613.987-.86 1.434-.248.445-.7 1.156-.882 1.475-.182.318-.666 1.094-.807 1.348-.14.255-.506.838-.527.902-.021.062-.116.053-.15 0-.033-.053.129-.224.129-.434 0-.213-.13-.512-.248-.628-.118-.117-.472-.286-.666-.373a46.228 46.228 0 0 1-1.612-.774 30.076 30.076 0 0 1-2.054-1.19c-.623-.402-1.462-.954-2-1.388a31.095 31.095 0 0 1-1.773-1.54 21.589 21.589 0 0 1-1.753-1.954c-.495-.635-1.13-1.496-1.474-2.1-.342-.606-.698-1.36-.814-1.488-.12-.126-.292-.327-.54-.402-.247-.073-.388-.127-.494-.139-.108-.01-.3-.01-.324-.094-.02-.086 0-.139 0-.139M38.215 6.004s2.01-.01 2.603 0c.59.012 2.301.012 2.484.012.182 0 .419.073.515.084l.183.023s.086.19.021.253c-.064.062-.139.277-.192.403-.055.127-.012.266-.087.287-.075.02-.42.064-.42.064s.054-.16-.041-.224a1.106 1.106 0 0 0-.548-.137c-.208.01-1.228.107-1.55.137-.323.032-1.237.15-1.42.18-.183.033-.387 0-.525-.052-.141-.055-.636-.255-.775-.36-.14-.108-.206-.149-.257-.16L38 6.472l.097-.255c.032-.085.118-.213.118-.213m.592 2.814s.193-.299.257-.34c.065-.042.549-.192.743-.243a71.072 71.072 0 0 1 1.517-.36c.407-.099 1.192-.236 1.557-.332.366-.095.71-.212.819-.212.106 0 .289.053.407.14.12.084.356.253.474.349.118.095.236.255.203.338-.03.087-.085.15-.15.235-.062.085-.041.126-.062.224-.025.093-.025.254-.025.254s-.32.095-.376.107c-.053.009-.138.031-.138.031s.085-.223.02-.265c-.064-.043-.3-.214-.536-.235-.238-.02-.914.18-1.142.256-.225.073-1.074.297-1.396.393-.323.094-.613.233-.872.212-.256-.022-.483-.127-.71-.233-.224-.107-.278-.15-.354-.192-.074-.043-.236-.127-.236-.127m.87 2.25s.021-.181.12-.255c.095-.074.355-.137.482-.202.13-.064.527-.192.946-.339a33.358 33.358 0 0 1 1.538-.477c.335-.098 1.054-.32 1.237-.393.183-.075.41-.212.593-.2.182.008.525.082.72.157.193.075.397.158.43.285.03.128-.045.32-.119.425-.076.108-.097.203-.118.288-.023.084-.023.242-.023.242s-.118.098-.258.13l-.225.05s.02-.148-.074-.253c-.097-.107-.366-.21-.549-.16a18.35 18.35 0 0 0-1.151.447c-.269.117-1.032.466-1.29.574-.258.105-.44.2-.711.16-.269-.044-.493-.066-.697-.16-.204-.096-.474-.235-.569-.267-.099-.03-.282-.053-.282-.053m1.677 1.837l.914-.435c.312-.148 1.494-.678 1.86-.85.365-.168.957-.456 1.087-.508.13-.053.268-.149.419-.16.15-.012.495.063.687.107.194.041.465.073.527.19.065.116.1.362.065.436-.032.075-.107.317-.095.413.01.096.042.33.042.33l-.278.147c-.141.076-.324.16-.324.16s-.042-.16-.162-.265a.583.583 0 0 0-.516-.107c-.116.036-.817.436-1.075.594-.257.16-.914.564-1.02.628-.109.064-.204.221-.528.18-.323-.041-.474-.075-.636-.148-.161-.074-.493-.309-.58-.373-.084-.062-.408-.148-.408-.232 0-.085.021-.107.021-.107m1.689 2.207s.925-.603 1.323-.837a74.37 74.37 0 0 1 1.742-.987c.377-.201.742-.468.934-.5.194-.032.676-.02.925-.02.246 0 .419 0 .44.127.021.126-.021.233-.032.34-.01.106 0 .402 0 .402l-1.86 1.444c-.3.233-1.01.86-1.053.872-.044.01-.28-.18-.57-.288-.29-.105-.45-.128-.57-.148-.118-.023-.3-.106-.484-.192-.182-.085-.235-.116-.365-.139-.127-.02-.398.075-.398.075l-.032-.149m2.246 1.593s.463-.414.786-.69c.322-.274 1.31-1.062 1.57-1.275.258-.21.914-.71 1.01-.783.097-.075.203-.087.323-.087.118 0 .408-.084.537-.084.13 0 .354-.01.377.16.02.17.109.5.097.626-.011.128 0 .276.042.349a.65.65 0 0 0 .085.118s-.106.14-.289.308c-.182.168-.742.688-.99.923-.247.234-.751.713-.934.902-.183.192-.472.457-.472.457s-.076-.276-.238-.413c-.16-.14-.56-.212-.796-.224-.236-.01-.537-.235-.657-.265-.116-.032-.257.042-.257.042s-.15.043-.194-.064m2.345 1.358l1.268-1.251c.248-.244 1.076-1.008 1.27-1.201.192-.19.354-.382.57-.476.214-.097.473-.223.59-.18.119.041.205.2.26.37a.786.786 0 0 0 .514.5c.3.094.483.126.625.117.14-.012.214-.023.214-.023s-.302.308-.462.468c-.16.16-.634.615-.916.87-.278.256-.997.966-1.203 1.158-.204.19-.495.434-.495.434s-.002-.2-.15-.338c-.204-.194-.461-.16-.697-.149a.705.705 0 0 1-.527-.171c-.141-.116-.25-.235-.324-.244-.076-.011-.245.075-.291.096-.042.02-.246.02-.246.02m2.538 1.126s.699-.648 1.043-.987c.345-.34 1.009-.977 1.3-1.262.29-.288.817-.777.817-.777s.108.16.354.18c.25.021.485.066.668.076.183.011.495.011.59-.086.097-.095.226-.126.226-.126s-.151.212-.333.445c-.184.233-.698.945-.99 1.381-.289.434-.945 1.378-1.054 1.558-.107.18-.354.564-.428.67-.075.107-.173.233-.173.233s.022-.202-.15-.497c-.172-.299-.27-.308-.42-.353-.15-.041-.203.023-.428-.094-.228-.117-.344-.34-.485-.372-.141-.03-.134-.053-.248 0-.18.084-.29.011-.29.011m5.183-2.473s.085.139.17.244c.087.106.206.224.184.308-.021.085-.408.85-.495 1.05a17.2 17.2 0 0 0-.429 1.371c-.064.265-.161.658-.249.859-.086.2-.17.308-.181.393l-.034.255s-.16.106-.236.128l-.236.062v-.201c0-.086-.13-.244-.214-.393a.653.653 0 0 1-.066-.605 9.91 9.91 0 0 1 .323-.86c.107-.234.183-.488.354-.88.174-.393.313-.701.516-.998.206-.297.301-.457.389-.573a.473.473 0 0 1 .204-.16M44.463 6.132s.838-.041 1.45-.052c.614-.012 1.388 0 1.796.063a9.408 9.408 0 0 0 1.344.085c.257-.011.645-.043 1.27-.022.622.022 1.741.054 2.484.16.74.106 1.418.255 2.02.456.6.201 1.709.669 2.065 1.082.354.414.61.754.569 1.286-.042.53-.257 1.092-.43 1.423-.172.328-.593 1.039-.667 1.164-.074.13-.721.724-.978 1.01-.259.285-1.097 1.178-1.43 1.573-.333.39-.59.706-.7.816-.15.148-.257.308-.257.308h-.109s.132-.17.1-.35c-.035-.18-.183-.458-.336-.541-.15-.087-.192-.107-.3-.077-.107.034-.195.077-.269.097-.076.021-.14.033-.14.033s.376-.414.55-.594c.17-.183.645-.608.804-.765.162-.16.313-.256.377-.256.065 0 .343.096.526.02.183-.072.518-.413.539-.645a.674.674 0 0 0-.258-.584c-.161-.118-.397-.213-.548-.202-.152.011-.356.043-.506.127-.1.057-.215.075-.215.075s.011-.118.032-.298-.074-.36-.173-.51c-.095-.148-.29-.264-.525-.296-.236-.032-.345.032-.43-.032-.088-.064-.021-.201-.098-.372-.074-.17-.194-.414-.419-.5-.226-.083-.418-.135-.527-.135-.106 0-.106-.064-.106-.202 0-.18-.044-.554-.15-.648-.11-.098-.357-.278-.507-.308-.15-.032-.257-.053-.257-.128 0-.075.095-.256.095-.425 0-.169-.033-.425-.236-.562-.204-.139-.43-.212-.516-.351-.087-.137-.236-.286-.278-.297a1.786 1.786 0 0 0-.356 0c-.13.011-.441.075-.666.107-.227.03-.344.085-.465.053-.116-.032-.365-.128-.536-.128-.174 0-.59.023-.87.052-.28.032-.57.064-.796.053-.226-.01-.388-.082-.571-.158a2.034 2.034 0 0 1-.343-.17c-.107-.063-.162-.115-.162-.115s.012-.098.033-.16c.022-.064.076-.16.076-.16"/><path d="M45.011 7.995s.595-.253 1.004-.384c.431-.14 1.202-.331 1.55-.405.349-.078.603-.181.738-.14.138.042.306.042.403.032l.189-.02s.084.104.031.138c-.053.032-.06.073-.179.202-.115.129-.211.267-.347.322-.138.053-.456.126-.815.223-.359.097-.93.278-1.129.333-.2.053-.252.106-.568.053-.318-.053-.413-.085-.55-.12-.138-.031-.147 0-.222.035-.075.032-.116 0-.116 0v-.15c0-.054.011-.119.011-.119m1.034 1.53s.57-.311 1.044-.513a21.857 21.857 0 0 1 1.638-.61c.2-.055.42-.117.538-.055.114.066.211.14.18.237-.032.095-.191.33-.307.395-.116.063-.79.438-1.047.545-.252.108-.81.405-.979.416a1.45 1.45 0 0 1-.518-.084c-.17-.054-.232-.086-.318-.097-.083-.012-.263 0-.263 0s.022-.053.022-.106c0-.055.01-.129.01-.129m1.067 1.614s.634-.374.845-.503c.209-.127.897-.458 1.19-.619.298-.16.613-.3.783-.29.169.012.316.088.339.171.02.087 0 .269-.075.407-.075.14-.121.254-.359.48-.262.252-.454.375-.613.516-.157.138-.4.34-.527.363-.127.02-.327-.099-.433-.12a3.037 3.037 0 0 1-.496-.19c-.075-.044-.202-.097-.295-.086-.098.01-.37.074-.37.074l.011-.203m1.678 1.39s.38-.352.645-.566c.262-.214.748-.545.98-.718.231-.17.41-.299.485-.31a.24.24 0 0 1 .202.076c.053.053.2.053.24.181.046.127 0 .235.046.309.04.077.146.055.166.119.023.063 0 .193 0 .193s-.527.416-.717.598c-.191.182-.496.48-.57.522-.073.046-.348-.115-.518-.19-.168-.075-.56-.194-.706-.203-.148-.011-.253-.011-.253-.011m1.488 1.004s.452-.427.676-.63c.221-.204.453-.418.62-.579.17-.159.53-.416.53-.416s.159.011.138.107c-.022.097.093.118.168.118.073 0 .253-.043.307-.02.052.02.136.052.136.17 0 .117.01.223.054.234.042.012.146-.011.158.034.01.042.022.116.022.116s-.593.598-.845.834a11.8 11.8 0 0 0-.697.717c-.052.063-.084.106-.084.106s-.086-.234-.297-.428c-.21-.192-.296-.255-.496-.31-.2-.053-.39-.053-.39-.053m3.461 1.497s.35-.439.656-.77l.739-.802c.126-.139.21-.267.21-.267s-.2.482-.242.696c-.043.212-.096.62-.096.8 0 .182-.073.385-.116.608-.043.227-.043.43-.043.43s-.147.085-.252.138c-.107.055-.233.138-.233.138s-.02-.318-.146-.49c-.127-.17-.18-.216-.286-.278a.816.816 0 0 0-.273-.085l.082-.118m7.707-12.495s.6-.223.98-.384c.383-.161 2.319-.837 2.915-.996.73-.19 2.426-.607 3.452-.768A36.148 36.148 0 0 1 73.858 0c1.699 0 3.261.14 4.085.235.824.098 2.482.397 3.159.567.672.17 1.801.46 2.437.674.633.214 1.624.555 2.005.727.38.17.622.223.686.29.061.062.073.16.272.255.203.096.498.202.498.202s-.105.097-.264.16c-.159.065-.358.171-.518.238-.156.062-.315.159-.315.159s0-.226-.084-.3c-.086-.075-.57-.33-1.077-.524a26.473 26.473 0 0 0-1.891-.64c-.697-.204-1.942-.567-2.775-.716-.834-.15-1.731-.311-2.544-.396-.813-.085-2.68-.235-3.652-.225-.972.011-2.818.117-3.747.234-.92.12-2.439.354-3.325.577-.887.228-2.07.525-2.534.686-.465.16-1.024.395-1.204.404-.179.012-.558-.04-.685-.04-.126 0-.253 0-.327.02-.073.02-.275.128-.36.087l-.252-.14"/><path d="M90.997 15s-.226-.23-.347-.357c-.117-.126-.173-.701-.314-1.017-.14-.315-.648-.974-.953-1.279-.3-.302-.857-.852-2.01-1.572-1.062-.66-2.166-1.247-3.346-1.676-1.18-.433-2.003-.755-3.421-1.06-1.418-.305-3.258-.62-5.26-.681a31.38 31.38 0 0 0-4.903.241c-1.16.147-2.815.44-4.331.934-1.514.492-1.894.67-2.37.89-.476.22-1.624.775-2.046 1.05-.421.27-1.092.722-1.504.974-.41.25-.489.457-.736.398-.357-.084-.456-.398-.456-.398s.305-.356.598-.64c.291-.282.983-.849 1.416-1.196a56.204 56.204 0 0 0 1.418-1.173c.142-.128.52-.566.52-.566s.118.25.337.188c.217-.062.561-.314.768-.628.206-.316.562-1.049.476-1.657-.087-.608-.173-1.05-.345-1.165-.175-.115-.468-.313-.682-.333-.217-.023-.293.009-.4-.032a1.278 1.278 0 0 1-.262-.169s.52-.187.746-.282c.23-.095 1.246-.451 1.928-.63a34.824 34.824 0 0 1 2.272-.523 35.745 35.745 0 0 1 3.161-.462c1.018-.095 2.338-.19 3.118-.178.778.009 2.585.106 3.321.187.738.085 2.166.264 3.022.453.853.188 2.457.564 3.16.806.704.243 1.547.493 1.635.575a.99.99 0 0 0 .313.232c.13.052.26.137.26.137s-.348.372-.584.765c-.694 1.145.134 2.592 1.236 3.384 1.427 1.027 4.034 2.593 4.486 4.934.105.548.08 1.526.08 1.526"/><path d="M92.301 13.889c-.087-.827-.583-1.665-.958-2.213-.38-.549-.617-1.114-1.044-1.834-.426-.723-1.615-1.432-2.379-1.973-.584-.412-1.337-1.32-1.337-2.042 0-.342-.172-.86-.583-.628.072-.176.236-.348.44-.518a6.579 6.579 0 0 1 1.777-1.025c.672-.246 2.28-.685 2.941-.834.66-.148 2.526-.458 3.293-.524.767-.062 2.11-.127 2.75-.127.692 0 2.024.068 3.014.17 1.044.107 2.472.322 3.41.375.94.053 2.546.094 3.25.074.704-.021 1.992-.074 2.696-.086a146.99 146.99 0 0 0 4.124-.149 519.3 519.3 0 0 1 4.028-.234c.864-.044 3.505-.097 4.262-.097.756 0 4.028.15 4.858.193.832.042 2.877.159 3.634.202.758.044 1.843.085 2.473.118.626.032 2.492-.021 2.898-.021.403 0 1.822-.012 2.6-.042.779-.034 2.844-.193 3.6-.257.757-.064 2.697-.266 3.314-.312.619-.041 1.235-.136 1.504-.095.266.044.575.247.66.343.085.095.447.491.713.779.268.29.534.609.575.717.044.105.215.34.182.425-.033.087-.065.248-.161.3-.094.054-.53.245-.53.245s-.023-.202-.172-.267c-.149-.064-.405-.15-.598-.083-.19.062-.81.329-1.171.49-.363.16-.959.439-1.236.47-.276.03-1.362.075-2.087.084-.726.011-2.847.023-3.762.055-.916.032-4.016.053-4.667.064-.651.01-3.496.041-4.402.041-.905 0-3.44.053-4.262.044-.82-.011-4.453.055-5.254.042-.797-.012-3.069.013-3.675.022-.607.012-1.428.042-2.216.095-.79.055-1.898.172-2.215.193-.321.02-.747-.032-.897-.085-.149-.053-.16-.076-.256-.085a18.864 18.864 0 0 1-.363-.053l-.061-.14s.35-.065.637-.127c.289-.066.532-.195 1.045-.3.512-.107 1.8-.352 2.441-.46.638-.106 3.527-.618 4.359-.726.83-.106 2.992-.352 3.748-.405.758-.053 2.911-.225 3.668-.267.754-.043 2.46-.119 2.886-.108.427.012 1.885.042 2.46.074.576.034.885.034.885.034l.108-.374s-.608-.033-1.12-.064a56.802 56.802 0 0 0-2.28-.053c-.447 0-2.067.01-2.684.041-.59.032-1.46-.068-2.165-.094-.852-.033-2.78-.012-3.569.053-.788.062-3.014.276-3.718.363-.704.085-3.12.436-4.23.641-1.11.202-2.834.542-3.645.694-.81.15-1.843.363-2.77.46-.928.094-2.801.128-3.484.117-.683-.012-2.696-.055-3.709-.044-1.012.011-2.715.011-3.708.129-.99.117-1.833.31-2.344.482-.511.17-1.034.363-1.383.618-.353.256-.513.533-.502.63a.55.55 0 0 0 .041.159l.266.087s-.255.202-.403.331c-.15.126-.31.427-.363.683-.052.257-.14.875-.148 1.132-.012.258-.044.364.043.568.083.202.489.928.649 1.238.16.309.585.993.703 1.195.118.203.34.492.5.738.16.246.436.834.468 1.025.034.193.034.47.034.747v1.39c0 .223-.02.405-.066.457-.041.054-.17.161-.181.28-.01.116-.083.384-.115.524-.032.136-.14.426-.14.426s-.17-.342-.18-.384c-.01-.042.073-.322.043-.726-.032-.407-.65-1.697-.787-3.001"/><path d="M92 7.85s.162-.28.598-.584a6.09 6.09 0 0 1 1.374-.674c.377-.121 1.763-.451 2.392-.506.63-.057 2.319-.068 2.872-.078.557-.012 1.618.021 1.974.01.357-.01.858 0 1.237 0 .377 0 1.1-.01 1.331-.01.23 0 .673-.023.799.01.124.033.356.078.388.178.03.1.061.187 0 .297-.065.109-.054.253-.054.296v.102s-.074.043-.149.098a9.08 9.08 0 0 1-.418.265s0-.078-.062-.22c-.062-.143-.262-.266-.41-.3-.145-.03-.68-.064-.913-.076-.23-.01-.785-.021-1.006-.045-.219-.021-.325-.055-.43-.055-.105 0-.188.012-.272.079-.085.066-.115.13-.167.142-.052.01-.158-.011-.2-.011-.041 0-.114.064.022.199.198.197.492.232.754.275.263.045.63.11.902.166.273.055.641.121.88.178.242.055.474.064.556.076.085.01.231.076.222.166a.948.948 0 0 1-.065.242.66.66 0 0 0-.02.288.173.173 0 0 1-.073.175c-.064.045-.325.143-.39.178-.06.033-.176.021-.176.021s.031-.176 0-.22a.656.656 0 0 0-.325-.21c-.2-.066-.724-.21-.977-.265-.25-.055-.68-.175-.963-.23-.284-.055-.474-.145-.556-.069-.085.078-.105.145-.157.155-.053.011-.138-.031-.19.021-.054.057-.126.123-.074.187.054.069.244.19.43.257.19.066.809.253 1.082.341.27.088.744.287.995.342.253.054.514.142.568.287.052.144.04.285-.054.375-.095.088-.115.209-.137.264-.02.056-.052.199-.052.199s-.241.164-.292.187l-.232.1s.084-.111.01-.3c-.073-.186-.283-.296-.556-.44-.27-.143-.828-.352-1.038-.43-.21-.078-.89-.363-1.047-.42-.158-.054-.336-.119-.483-.088-.148.034-.223.123-.178.2.04.075.156.11.156.199 0 .088 0 .164-.043.187-.04.022-.052.032-.052.032s.357.255.6.374c.24.124.837.455.995.541.158.09.65.332.765.42.115.088.357.232.314.353-.04.122-.082.321-.104.386-.022.068.022.122-.083.165-.107.043-.494.155-.494.155s-.01-.1-.032-.155c-.02-.055-.093-.154-.303-.285-.21-.132-.954-.597-1.143-.695-.19-.102-.661-.365-.766-.465-.105-.097-.367-.33-.462-.386-.093-.055-.284-.153-.409-.022-.1.107-.146.32-.085.396.065.079.203.212.203.212s-.127.099-.106.154c.02.056.356.308.607.496.252.187.912.664 1.08.783.168.121.524.353.642.465.114.11.146.208.06.306-.083.102-.112.2-.112.2s.008.132.008.187c0 .056-.02.12-.02.12s-.054.055-.191.08c-.134.02-.333.032-.333.032s-.044-.066-.031-.166c.01-.1-.08-.166-.223-.296-.178-.167-.682-.532-.932-.719-.25-.188-.745-.53-.86-.66-.115-.133-.327-.453-.44-.553-.117-.1-.273-.21-.408-.154-.138.054-.284.166-.305.298-.02.131-.043.23.041.298.083.066.199.144.199.187 0 .043-.136.078-.104.154.031.076.471.42.67.596.199.176.882.74 1.049.894.169.155.483.463.526.596.04.133.02.406-.032.484-.052.078-.199.11-.336.133-.138.023-.316.045-.316.045s.065-.166.032-.233c-.032-.066-.323-.265-.546-.453-.22-.187-.878-.77-1.131-.992-.253-.219-.503-.486-.587-.673-.085-.188-.232-.44-.442-.44s-.42.033-.546.21c-.126.175-.126.364-.03.44.096.079.26.188.209.22l-.188.122s.199.125.451.354c.294.263.797.695.986.883.188.187.576.574.65.638.073.066.179.263.168.408-.01.144-.03.332-.075.408-.04.079.013.133-.093.188-.105.056-.304.056-.377.056a.438.438 0 0 1-.137-.023s.178-.142.17-.21c-.012-.065-.231-.298-.38-.43-.147-.134-.86-.772-1.123-1.026-.26-.254-.639-.65-.723-.892-.083-.243-.083-.553-.22-.75-.136-.2-.439-.442-.576-.652-.138-.21-.587-.938-.797-1.389-.211-.451-.43-.795-.483-1.18-.051-.386-.01-.616-.074-.74-.063-.12-.21-.308-.282-.308-.074 0-.316-.033-.316-.033m1.69 5.493s.576.695.722.826c.149.133.453.33.546.387.095.054.451.43.546.55.095.122.325.354.314.496-.01.145-.115.532-.199.618-.085.09-.21.199-.315.212-.103.008-.292-.025-.292-.025s.23-.064.23-.164-.04-.187-.21-.363a3.387 3.387 0 0 1-.41-.496c-.178-.254-.323-.52-.323-.52l-.126.043-.126.012s-.043-.42-.095-.65c-.054-.23-.126-.434-.156-.541-.045-.143-.106-.385-.106-.385m-.063 5.007s.146-.365.167-.507c.02-.143.095-.399.106-.463l.031-.176s.271.375.357.482c.083.112.367.344.471.498.104.155.578.793.777 1.082.199.285.765 1.08.869 1.234.106.154.42.63.4.762-.021.13-.044.297-.105.43-.064.132-.126.275-.19.286-.063.01-.367.022-.367.022s.083-.12.083-.2c0-.075-.135-.306-.323-.417-.189-.11-.557-.32-.64-.42-.084-.1-.342-.816-.46-1.07-.148-.307-.4-.814-.558-1.047-.158-.232-.262-.474-.325-.496-.063-.021-.031.034-.126.043-.095.012-.167-.043-.167-.043m.483-1.654s.386.143.607.143c.22 0 .39.012.442-.01.052-.023.147-.2.366-.256a.701.701 0 0 1 .64.145c.21.166 1.26 1.269 1.415 1.423.158.155.84.848 1.05 1.057.209.21.545.562.608.707.062.144.093.265.041.342-.052.076-.126.132-.158.232-.03.1-.052.32-.105.385a.317.317 0 0 1-.272.144c-.146 0-.293-.022-.293-.022s.167-.099.167-.208a.4.4 0 0 0-.199-.344 16.345 16.345 0 0 0-.525-.299 1.962 1.962 0 0 1-.556-.473c-.157-.187-.523-.706-.702-.915-.177-.21-.608-.793-.807-.992-.199-.198-.4-.385-.65-.442-.25-.054-.316-.066-.367-.066-.053 0-.158.177-.138.22.022.044-.102-.066-.208-.208-.106-.145-.356-.563-.356-.563m1.992-.508s.03-.076.041-.187c.01-.111.031-.254.085-.242.052.01.314.14.492.14.179 0 .2-.03.2-.03s.094-.167.313-.212c.223-.043.295-.053.368-.053.074 0 .178-.023.41.077.23.1.871.65 1.11.849.242.2 1.219 1.004 1.49 1.234.272.233.588.453.672.541.083.09.356.363.293.487-.063.119-.199.263-.232.396-.03.133-.04.32-.061.396-.02.078-.17.112-.241.1-.075-.01-.285-.022-.285-.022s.117-.087.149-.175c.03-.09-.032-.19-.149-.278a3.315 3.315 0 0 0-.524-.33c-.22-.109-.555-.408-.828-.64a34.58 34.58 0 0 1-1.143-1.08c-.158-.156-.65-.596-.776-.65-.127-.057-.492-.123-.63-.154-.136-.034-.336-.08-.336-.08s-.091.144-.134.144c-.085 0-.074-.01-.074-.01s.01 0-.063-.066c-.075-.069-.147-.155-.147-.155M98 15.184l.012-.186s.137-.051.319-.051c.18 0 .353.01.555-.065.202-.071.202-.051.341-.134.136-.083.202-.103.342-.187.136-.083.106-.197.191-.208.085-.01.342-.04.415 0 .074.042.618.469.938.654.321.188 1.29.77 1.653.988.362.219.906.508 1.087.664.182.157.3.24.289.387-.01.143-.128.247-.19.361-.067.115-.053.22-.099.311-.042.094-.073.188-.073.188l-.448.094s.117-.105.096-.217c-.02-.116-.096-.23-.289-.333-.192-.105-.447-.116-.66-.188-.212-.073-.588-.321-.81-.489-.225-.165-.79-.59-1.057-.767-.265-.176-.65-.478-.84-.563a2.72 2.72 0 0 0-.749-.165c-.203-.011-.447.011-.488 0-.044-.011-.108.219-.193.145-.087-.072-.119-.083-.225-.145-.105-.063-.117-.094-.117-.094m2.677-1.433s.287-.02.352-.144c.062-.126.041-.396.062-.521.022-.125.011-.197.066-.208.052-.01.192.083.329.096.14.009.311 0 .534.112.225.116 1.184.603 1.686.81.5.209 1.503.718 1.812.832.308.114.82.3.897.436.074.136.115.281.03.415-.084.135-.149.208-.117.302.033.094.117.206.042.26-.074.05-.255.062-.372.103-.117.042-.246.042-.246.042s.108-.072.085-.188c-.02-.112-.126-.268-.35-.322-.225-.051-.48-.062-.684-.114-.203-.051-.383-.134-.693-.31-.31-.177-.938-.541-1.269-.707-.33-.167-.939-.478-1.152-.612-.213-.136-.287-.199-.394-.23a.69.69 0 0 0-.319-.02c-.076.02-.299-.032-.299-.032m1.792-1.682s.053-.166.083-.353c.034-.188-.01-.282.055-.302.065-.02.172.031.308.02.14-.01.28-.02.373.034.097.05.567.227.801.308.234.085 1.45.51 1.856.657.404.145 1.14.404 1.46.518.32.116.534.146.65.249.118.105.225.25.214.458-.01.208.032.27-.053.373-.086.105-.107.125-.116.188-.012.06.073.176.02.239-.053.062-.14.073-.33.103-.193.031-.287.051-.287.051s.158-.165.009-.3c-.149-.133-.201-.218-.544-.341-.341-.125-.885-.345-1.13-.438-.246-.093-1.301-.561-1.6-.664-.298-.105-.906-.333-1.12-.447-.213-.114-.298-.156-.362-.24-.064-.082-.287-.113-.287-.113m1.322-1.725s-.021-.508.053-.53c.075-.02.289.042.383.031.096-.009.362-.009.61.054.243.062 1.599.395 2.131.508.533.113 1.247.28 1.696.352.447.074.746.074.842.23.096.156.085.488.076.666-.012.175.04.55.009.602-.03.05-.255.145-.415.207-.159.06-.225.092-.225.092s.075-.187-.032-.32c-.106-.136-.523-.301-.8-.375-.276-.073-1.076-.331-1.513-.456-.438-.125-1.163-.364-1.407-.427-.247-.062-.534-.134-.704-.239-.172-.103-.353-.29-.427-.332-.075-.041-.277-.063-.277-.063m.98-1.88l-.01-.196s.244-.229.31-.229c.062 0 .234-.033.5-.01a40.53 40.53 0 0 1 1.856.227c.448.072 1.643.229 1.983.27.344.043.866.01 1.034.054.289.072.246.322.268.497.02.178.053.447.03.518-.02.074-.18.221-.35.344a3.983 3.983 0 0 1-.437.27c-.098.052.03-.216-.075-.321-.066-.065-.235-.146-.503-.197-.266-.051-.693-.147-.949-.199-.255-.051-1.237-.237-1.632-.31-.392-.072-.841-.117-1.108-.24-.266-.125-.436-.332-.585-.395a1.421 1.421 0 0 0-.333-.083m.78-1.37s-.073-.208-.073-.261c0-.04.02-.103.02-.103s.437.02.735-.031a93.95 93.95 0 0 1 1.748-.27 80.071 80.071 0 0 0 1.985-.334c.35-.06.78-.134.927-.071a.47.47 0 0 1 .277.353c.023.145.14.467.182.601.043.136.15.344.128.407-.02.062-.204.28-.33.395-.129.114-.439.405-.439.405s.044-.24-.052-.384a1 1 0 0 0-.533-.396c-.245-.073-1.248-.145-1.6-.134-.352.009-1.214.02-1.62.009-.407-.01-.779-.081-.95-.156-.17-.072-.121-.05-.191-.072-.128-.04-.214.042-.214.042m5.759 1.122s.415-.438.523-.56c.105-.126.212-.283.285-.303.078-.02.351.015.523-.042.226-.073 1.665-.06 2.049-.073.384-.01 3.037-.01 3.613-.01.578 0 4.33-.051 4.95-.042.618.011 3.336 0 4.03-.02.694-.02 4.042 0 4.842-.032.799-.029 4.967-.05 5.662-.073.693-.02 3.912-.072 4.5-.083a92.15 92.15 0 0 0 2.11-.05c.363-.023.693-.064.833-.044.138.02.16.157.202.241.041.081.245.716.342.995.094.282.17.655.181.832.01.176.074.395.032.437a3.05 3.05 0 0 1-.502.28c-.074.02-.17.04-.17.04s.075-.123.02-.228c-.052-.101-.276-.257-.415-.277-.14-.024-.341.02-.617.123-.28.105-1.09.33-1.548.426-.457.092-.659.157-1.439.177-.778.02-2.58.01-3.347-.02-.768-.034-3.052-.096-4.128-.147-1.077-.054-3.741-.186-4.672-.23a428.6 428.6 0 0 1-4.465-.248c-.684-.04-4.02-.238-4.715-.291-.693-.052-4.18-.26-4.745-.311a82.038 82.038 0 0 0-2.154-.156c-.373-.02-.894-.063-1.087-.114-.193-.052-.193-.125-.342-.157-.15-.031-.351-.04-.351-.04m-1.42 2.586s.493-.293.704-.458c.214-.166.46-.32.514-.468.053-.144.053-.228.053-.228s1.503.043 1.845.074c.34.03 1.993.134 2.431.166.437.031 3.09.217 3.924.268.832.053 4.563.302 5.308.344.748.042 3.724.219 4.458.261.737.04 3.583.177 4.512.217.928.041 4.169.125 4.724.136.554.01 2.366.03 2.687.01.32-.02.714-.052.927-.052.213 0 .457.02.468.239.013.217-.032 1.131-.126 1.433-.097.301-.31.8-.47.934-.16.136-.405.261-.405.261s.095-.197.033-.313c-.065-.114-.289-.28-.448-.27-.16.01-1.11.24-1.578.29-.47.052-1.248.137-1.836.126a60.43 60.43 0 0 1-2.623-.114c-.68-.051-2.538-.188-3.465-.28a610.98 610.98 0 0 1-4.628-.498 718.696 718.696 0 0 1-4.37-.53c-.833-.105-3.543-.458-4.267-.56-.726-.106-2.667-.354-3.199-.438-.534-.083-2.209-.322-2.687-.385-.481-.06-.78-.125-.992-.125-.214 0-.374-.02-.65 0-.278.02-.234.02-.362.02-.12 0-.161-.01-.289-.02-.129-.01-.193-.04-.193-.04m-1.278 2.346s.404-.125.628-.228c.225-.105.588-.196.693-.373.108-.177.13-.219.118-.333a1.16 1.16 0 0 0-.042-.219s.704.042.98.063c.278.022 1.61.219 2.026.27.417.053 2.453.362 3.007.438.555.071 4.32.58 5.055.674.736.093 3.957.5 4.553.562.597.06 4.223.458 4.788.507.565.052 2.602.24 3.305.29a64.78 64.78 0 0 0 2.858.146c.651.011 1.12-.01 1.29.042.171.054.3.166.268.282-.033.114-.17 1.11-.234 1.308-.065.198-.17.582-.269.716-.094.135-.17.291-.33.376-.16.08-.223.103-.223.103s.118-.219.053-.344c-.064-.123-.298-.342-.438-.353-.138-.011-.672.084-1.023.136-.352.051-1 .125-1.44.156-.437.03-.99.072-1.27.061a16.054 16.054 0 0 1-1.257-.123c-.459-.065-2.143-.291-2.741-.387-.597-.092-2.559-.424-3.378-.57a214.3 214.3 0 0 1-4.299-.842c-.565-.123-2.73-.58-3.274-.706-.543-.123-2.911-.664-3.455-.798-.544-.136-2.056-.479-2.464-.572-.404-.094-1.235-.291-1.46-.333-.224-.04-.479-.103-.671-.053a19.74 19.74 0 0 0-.714.21c-.129.042-.15.061-.342.03a.582.582 0 0 1-.298-.136"/><path d="M106.758 15.212s.398-.02.58-.061c.183-.042.646-.137.852-.198.204-.065.278-.096.3-.2.022-.103-.022-.387.012-.501.03-.115.084-.252.084-.252s.442.095.625.105c.183.012.808.138 1.064.199.26.062 3.207.782 3.669.899.463.115 3.83.908 4.41 1.025.583.113 3.324.7 3.938.824.614.125 4.69.856 5.368.962.678.103 3 .458 3.55.512.55.052 1.345.135 1.508.178.161.042.31.104.277.292-.042.261-.268.785-.398 1.034-.127.25-.333.702-.558.954-.226.249-.377.447-.527.541a6.363 6.363 0 0 1-.204.125s.13-.187.097-.313c-.034-.124-.227-.293-.421-.324-.194-.03-.613-.01-1.032-.01-.418 0-1.646-.053-2.722-.21-1.075-.156-2.722-.417-3.829-.668-1.109-.252-2.69-.616-3.82-.93-1.128-.314-2.99-.826-4.165-1.211-1.17-.389-2.675-.868-3.333-1.099-.657-.23-2.583-.888-2.883-1.003a2.531 2.531 0 0 0-.732-.178c-.225-.02-.505.032-.742 0a4.448 4.448 0 0 1-.656-.146c-.13-.04-.224-.072-.28-.168-.053-.095-.032-.178-.032-.178m-2.238 1.84s.721-.167 1.088-.304c.308-.113.71-.281 1.054-.25.343.032 1.086.272 1.505.428.42.157 1.915.67 2.315.816.398.148 3.817 1.265 4.365 1.432.549.166 3.52 1.025 4.143 1.191.622.168 3.486.88 4.164 1.012.676.137 1.794.335 2.14.4.343.061.667.145.698.302.032.157.01.409-.053.533-.063.126-.172.533-.27.784-.097.25-.226.574-.363.722-.141.146-.453.209-.453.209s.161-.106.14-.263c-.022-.155-.076-.23-.205-.313-.13-.085-.204-.157-.387-.166-.183-.011-.657.04-1.023.06-.365.021-1.624.021-2.117.021-.496 0-.99.032-1.357-.009a9.138 9.138 0 0 1-1.386-.272c-.572-.155-1.98-.659-2.606-.897a126.398 126.398 0 0 1-2.98-1.264c-.494-.222-2.344-1.11-2.957-1.412-.612-.303-1.484-.723-1.958-.973-.472-.25-1.496-.794-1.764-.92a3.473 3.473 0 0 0-.787-.26 3.735 3.735 0 0 1-.643-.21c-.098-.042-.334-.103-.334-.103l.03-.294m-2.376 1.578s.764-.167.958-.239c.192-.074.613-.168.775-.137.16.031.72.292 1.053.47a179.965 179.965 0 0 0 5.143 2.601c.442.21 1.872.9 2.387 1.12.517.22 2.303.992 2.81 1.19.466.185 1.215.451 1.644.598.431.144.98.301 1.237.375.26.072.71.189.742.302a.655.655 0 0 1-.053.46c-.085.178-.29.731-.388.91-.096.177-.257.523-.396.648-.14.124-.206.19-.291.21-.086.02-.096.009-.096.009s.16-.187.16-.261c0-.072-.097-.324-.227-.407-.127-.084-.3-.169-.44-.169s-.58 0-1-.04a17.21 17.21 0 0 1-1.613-.23c-.507-.105-.851-.157-1.27-.335a25.077 25.077 0 0 1-1.829-.92 76.145 76.145 0 0 1-2.506-1.505c-.46-.296-2.667-1.828-3.003-2.058a75.831 75.831 0 0 1-1.45-1.034c-.324-.24-.785-.598-.968-.68-.183-.082-.722-.273-.907-.346-.18-.072-.386-.134-.44-.25-.053-.114-.032-.282-.032-.282m-2.345 1.38s.419.02.602-.02c.182-.043.57-.148.69-.148.117 0 .343-.041.557.051.215.097.764.4 1.046.619a86.45 86.45 0 0 0 1.817 1.358c.366.26 2.13 1.474 2.484 1.713.356.24 1.958 1.275 2.388 1.527.433.25 1.227.721 1.614.94.388.22.819.429.937.544.118.116.268.229.15.492-.12.259-.46.794-.548.92a2.418 2.418 0 0 1-.44.436c-.12.085-.174.106-.174.106s.184-.198.15-.336a.666.666 0 0 0-.333-.447c-.215-.115-.645-.157-.967-.232a76.382 76.382 0 0 1-1.979-.479c-.465-.126-.851-.231-1.14-.44-.292-.209-1.054-.898-1.42-1.223-.365-.322-1.143-1.034-1.583-1.421-.44-.387-1.344-1.213-1.666-1.514-.324-.303-1.206-1.056-1.359-1.223-.148-.168-.514-.501-.622-.607-.109-.103-.193-.094-.258-.2-.064-.101-.032-.259-.01-.3.022-.044.064-.116.064-.116m-2.7 1.745l.096-.315c.033-.103.033-.166.033-.166s.377.02.677-.02c.302-.043.463-.115.72-.095.26.022.378.074.507.324.13.252.516.659.785.91.269.25 1.572 1.42 1.97 1.788.396.364 1.655 1.524 2.098 1.911.439.387 1.04.898 1.202 1.055.162.157.54.513.627.618.084.103.063.313-.034.468-.095.157-.301.481-.452.618-.15.137-.474.355-.474.355s.12-.23.088-.335c-.032-.105-.27-.312-.442-.376-.173-.06-.912-.25-1.237-.343-.323-.097-1.033-.367-1.226-.513-.195-.146-1.044-1.138-1.238-1.37a99.694 99.694 0 0 1-1.192-1.494c-.26-.324-.831-1.097-1.144-1.482-.31-.389-.794-1.005-.923-1.13-.13-.125-.15-.19-.269-.271a1.601 1.601 0 0 1-.173-.137m-2.635.335s.473.06.741.06c.271 0 .52-.029.637-.008.116.02.269.009.387.146.118.137.182.376.235.512.054.137.915 1.316 1.056 1.505.139.187.752.982 1.023 1.328.268.345 1 1.253 1.213 1.527.216.27.648.697.754.855.11.157.387.544.43.627.045.083-.064.198-.129.281a3.26 3.26 0 0 1-.324.355c-.13.126-.321.263-.375.283-.053.021.021-.146.033-.24.009-.094-.052-.213-.215-.333-.225-.168-.55-.294-.797-.387-.247-.094-.767-.246-1.118-.389-.333-.134-.514-.23-.646-.375-.173-.189-.527-.825-.73-1.18a75.644 75.644 0 0 1-.96-1.745c-.15-.295-.226-.472-.247-.65-.022-.177-.032-.824-.097-.992-.064-.166-.259-.46-.375-.553-.12-.094-.162-.105-.215-.137-.056-.03-.238-.083-.238-.083s-.022-.23-.022-.281c0-.054-.02-.126-.02-.126m-.162 3.438s.3.492.407.658c.109.167.39.524.529.794.14.272.57.963.688 1.192.117.23.269.438.248.68-.023.24-.227.523-.29.635-.066.117-.076.243-.228.356-.15.116-.386.157-.386.157s.15-.146.161-.281c.01-.135-.106-.335-.182-.43a1.466 1.466 0 0 0-.44-.355c-.195-.092-.583-.292-.625-.407-.044-.114-.055-.24.042-.47a1.37 1.37 0 0 0 .055-.846c-.055-.242-.097-.314-.141-.399-.042-.081-.139-.135-.139-.135s.15-.533.183-.668l.118-.481"/><path d="M82.491 36.916s.728-.27 1.066-.425c.338-.152.989-.434 1.413-.633.446-.206 1.61-.85 2.11-1.166a16.792 16.792 0 0 0 1.663-1.199c.524-.437 1.36-1.21 1.697-1.539.337-.324 1.132-1.265 1.37-1.612.24-.35.653-1.004.653-1.004l.913.46c.393.194.816.38 1.1.424.28.043.465.076.748.055.284-.024.393-.078.546-.252.151-.174.325-.48.39-.645.066-.162.164-.38.164-.38s.348.162.566.241l1.053.37c.283.098.695.175.859.294.163.12.208.207.196.327-.012.122-.13.415-.239.631-.11.22-.521 1.091-.685 1.386a32.707 32.707 0 0 1-1.163 1.854c-.337.479-1.415 1.832-1.818 2.215-.4.382-.891.882-1.184 1.034-.294.153-.76.242-1.076.437l-1.654 1.035a22.81 22.81 0 0 1-1.5.874c-.447.228-1.556.784-1.892.948-.337.165-.796.36-1.011.46-.218.096-.393.186-.566.173-.173-.01-.293-.13-.37-.274-.075-.141-.608-1.058-.805-1.417a64.817 64.817 0 0 0-1.086-1.865c-.154-.24-.218-.359-.556-.49-.221-.085-.295-.12-.4-.12-.11 0-.18.015-.34-.033-.11-.032-.162-.164-.162-.164M80 37.624s.597-.152.892-.248c.292-.099.62-.218.826-.263.206-.044.294-.054.402.056.11.108.208.315.262.467.054.153.664 1.211.868 1.572.208.357.786 1.363.96 1.677.174.317.792 1.32.924 1.54.13.215.282.51.39.687.108.173.283.577.36.74.075.163.143.294.087.435-.054.144-.414.787-.49.95-.076.164-.413.763-.413.763s-.033-.493-.12-.732c-.088-.238-.185-.392-.358-.51-.175-.12-.512-.198-.643-.295-.128-.098-.25-.185-.412-.513-.164-.327-.602-1.51-.751-1.886-.163-.414-.706-1.789-.891-2.246-.185-.46-.489-1.243-.632-1.429-.14-.185-.51-.457-.63-.469-.119-.01-.282-.045-.325-.032-.046.009-.184.022-.184.022L80 37.624"/><path d="M99.257 30.573s.261.021.389-.044c.127-.066.436-.304.636-.5.2-.195.431-.457.507-.587.073-.131.104-.162.104-.162s.107.03.107.107c0 .078-.211.794-.277.978-.062.187-.282.795-.432 1.12a41.039 41.039 0 0 1-.793 1.587 31.588 31.588 0 0 1-1.257 2.012 42.803 42.803 0 0 1-1.573 2.001c-.295.337-1.47 1.511-1.754 1.795-.286.28-2.355 1.684-2.756 1.934-.404.25-1.722 1.043-2.03 1.218-.306.174-1.235.63-1.552.793-.317.164-1.142.564-1.343.61-.2.043-.432 0-.611-.022-.18-.024-.266-.024-.327-.024-.066 0-.298.033-.298.033l-.094-.162s.772-.315 1.162-.51c.391-.196 2.071-1.002 2.546-1.284.475-.282 1.468-.858 1.975-1.207.507-.348 1.723-1.26 2.166-1.663.443-.402 1.712-1.674 1.932-1.957.223-.283 1.237-1.25 1.469-1.5.234-.25.652-.645.931-1.066.31-.472.978-1.59 1.12-1.923.135-.327.294-.59.262-.728-.03-.142-.04-.273-.082-.294a4.163 4.163 0 0 0-.277-.089l.097-.292.053-.174zm-21.215 7.925s.245.012.466-.065c.222-.077.73-.293.941-.316.211-.021.527-.021.58.065.052.09.127.305.222.576.095.273.719 1.904.866 2.339.148.435.846 2.163.973 2.521.125.36.452 1.154.496 1.318.043.162.188.596.158.727-.032.129-.284.533-.434.76-.147.23-.665.948-.665.948s-.03-.285.022-.37c.052-.089.105-.271.075-.37-.032-.1-.15-.402-.307-.533-.159-.131-.456-.239-.615-.39-.155-.155-.232-.197-.346-.677-.118-.477-.414-1.759-.507-2.14-.098-.381-.477-2.185-.57-2.545-.096-.358-.18-.835-.319-1.02-.136-.187-.42-.446-.538-.47-.117-.02-.253-.01-.296-.01-.043 0-.118.01-.118.01l-.084-.358zm-2.196.207s.412-.043.57-.085c.158-.047.592-.143.846-.143.253 0 .496.066.539.228.041.162.104.63.136.839.032.206.486 2.206.54 2.498.052.295.58 2.447.633 2.762.053.317.232 1.067.221 1.24-.01.173.01.325-.02.38a6.647 6.647 0 0 1-.508.64c-.159.164-.718.894-.718.894s-.052-.206.023-.307c.072-.096.232-.238.211-.402a1.317 1.317 0 0 0-.307-.597c-.138-.13-.443-.294-.582-.446-.136-.15-.21-.271-.243-.63-.031-.36-.17-2.25-.211-2.87-.043-.62-.17-2.348-.211-2.608-.042-.262-.085-.512-.253-.685a1.118 1.118 0 0 0-.445-.295 1.22 1.22 0 0 0-.211-.044l-.01-.37zm-2.282.022s.421.01.518-.022c.094-.032.507-.088.8-.076.298.012.617.087.637.25.02.164.032.695.041 1.02.011.328.138 2.012.148 2.286.01.271.15 2.152.18 2.608.031.456.094 1.338.083 1.51-.01.176-.01.393-.01.393s-.485.522-.642.663c-.16.142-.73.641-.73.641s.084-.248.169-.358c.084-.108.159-.283.095-.39-.064-.11-.498-.579-.634-.688-.137-.106-.316-.347-.339-.576-.02-.227.085-1.738.15-2.37.062-.63.146-2.055.189-2.543.043-.49.105-1.075.022-1.283-.086-.206-.243-.456-.37-.521-.127-.064-.318-.099-.318-.099l.011-.445zm-2.261-.142s.307 0 .455-.01c.147-.011.284-.044.527-.032.245.009.434 0 .614.063.179.065.317.164.297.47-.022.302-.097 1.38-.127 1.684-.032.304-.212 2.5-.212 2.706 0 .206-.065 1.165-.086 1.479-.015.243-.105.837-.127 1.066-.02.227-.136.608-.136.653a.41.41 0 0 1-.032.117s-.391.327-.528.393c-.138.065-.138-.076-.222-.162-.085-.088-.2-.098-.402-.198-.2-.097-.508-.403-.644-.618-.136-.217-.182-.435-.096-.793.085-.36.38-1.6.477-2.044.094-.447.38-1.685.474-2.121.095-.436.266-1.121.266-1.36 0-.239-.075-.465-.2-.586-.128-.12-.15-.141-.234-.174-.085-.033-.17-.056-.17-.056l.106-.477zm-2.293-.39s.308.032.454.032c.148 0 .402-.033.687.03.286.068.624.122.665.253.044.128.107.271.033.554a288.566 288.566 0 0 0-1.183 5.088c-.063.283-.275 1.25-.338 1.466-.064.218-.19.632-.212.676-.02.043-.327.206-.402.239-.073.033-.18.086-.18.086s.117-.173.075-.282a.352.352 0 0 0-.318-.228c-.157 0-.336.131-.464.087-.126-.044-.327-.13-.474-.49-.148-.357-.16-.413-.107-.684.054-.273.709-1.88.845-2.262.139-.38.73-1.958.878-2.337.147-.381.35-.881.338-1.031a1.029 1.029 0 0 0-.2-.48c-.075-.077-.18-.121-.224-.11-.041.012-.094-.032-.094-.032l.22-.576zm-2.25-.632s.222.075.445.075c.222 0 .454-.01.707.067.254.075.593.281.645.424.052.142-.075.412-.223.75-.147.337-.834 2.218-.993 2.62-.159.4-.857 2.207-.95 2.459-.095.248-.402 1.01-.497 1.205-.094.196-.169.39-.169.39l-.39.121s.106-.163.04-.26c-.061-.1-.261-.306-.38-.316a.995.995 0 0 0-.41.076c-.17.065-.371.065-.444-.076-.075-.141-.286-.544-.307-.642-.02-.097-.095-.239.011-.445.105-.206.792-1.51.94-1.752.147-.238.95-1.63 1.13-1.966.179-.337.624-1.11.708-1.283.084-.175.136-.316.075-.446-.066-.131-.066-.196-.139-.23-.075-.032-.2-.054-.2-.054l.4-.717zm8.147-4.76h-.177c-2.312 0-4.931-.667-4.931-4.499 0-3.848 2.574-4.607 5.016-4.63 2.333.022 4.81.901 4.81 4.63 0 3.37-2.293 4.498-4.718 4.498zm7.048-10.216c2.656-1.55 3.202-3.12 3-4.96-.362-3.323-4.786-5.695-10.64-5.626-7.05.087-11.315 3.722-11.315 4.67 0 .95 1.397 1.194 1.397 1.704l.002 9.996c.015.62-1.313 1.31-1.313 1.998 0 .717 4.541 4.16 12.052 4.116 6.6-.037 10.392-2.886 10.427-6.295.019-1.842-1.023-4.327-3.61-5.56v-.043zM74.41 13.77c2.667.024 4.463 1.136 4.463 4.176 0 3.176-1.879 4.198-4.463 4.215-2.47-.015-4.469-.924-4.469-4.215 0-2.92 2.028-4.155 4.469-4.176z"/></g></svg>