<svg xmlns="http://www.w3.org/2000/svg" width="171" height="74" viewBox="0 0 171 74" xmlns:xlink="http://www.w3.org/1999/xlink"><defs><path id="a" d="M.02.27h73.906v73.71H.02z"/><path id="c" d="M.02.27h73.906v73.71H.02z"/></defs><g fill="none" fill-rule="evenodd"><mask id="b" fill="#fff"><use xlink:href="#a"/></mask><path fill="#080808" fill-rule="nonzero" d="M70.888 53.836c-.298.392-.515.411-.717.315l.023.494-.09.116-.531-1.374.117-.154c.304.578.671.926 1.083.384.165-.219.25-.583.142-.86-.366-.945-1.211 1.087-1.77-.353-.117-.301-.184-1.101.277-1.707.253-.335.454-.374.644-.318l-.047-.47.085-.113.505 1.302-.123.16c-.298-.627-.598-.804-.935-.359a.983.983 0 0 0-.145.917c.302.778 1.243-1.086 1.732.18.205.527.158 1.304-.25 1.84" mask="url(#b)"/><mask id="d" fill="#fff"><use xlink:href="#c"/></mask><path fill="#080808" fill-rule="nonzero" d="M73.168 50.304c-.597-.64-1.686-2.085-2.276-4.592-.126-.804-.72-1.558-2.085-1.558-1.64 0-3.067.938-3.856 1.816-.645.717-.977 1.503-.91 2.157.02.182.085.34.187.47l-.002.003 2.327 2.804c-3.627 2.9-8.089 4.26-12.194 4.867 6.662-6.574 11.083-15.602 11.083-28.509l-.001-23.928C58.486 2.058 47.328.27 36.967.27 26.604.27 15.445 2.058 8.492 3.834L8.49 27.762c0 12.836 4.373 21.834 10.974 28.399-4.076-.562-8.498-1.863-12.117-4.757L9.674 48.6l-.003-.003a.887.887 0 0 0 .186-.47c.068-.654-.263-1.44-.909-2.157-.788-.878-2.215-1.816-3.856-1.816-1.364 0-1.96.754-2.084 1.558-.592 2.507-1.68 3.953-2.277 4.592-1.333 1.423-.567 2.844.124 3.788 1.97 2.69 6.905 7.411 17.87 8.944-.3.935-.665 1.772-1.028 2.57-.412.894-.074 1.7 1.161 2.78C21.918 71.06 28.278 74 36.948 74c8.673 0 15.033-2.939 18.093-5.614 1.236-1.08 1.573-1.886 1.162-2.78-.364-.798-.728-1.635-1.029-2.57 10.965-1.533 16.054-6.06 17.987-9.024.64-.981 1.339-2.285.007-3.708zm-36.22 17.042a26.394 26.394 0 0 1-10.615-2.224c.483-.86.84-1.756 1.11-2.698 3.005 1.887 6.217 3.495 9.524 4.906 3.311-1.413 6.53-3.028 9.541-4.918.3.938.685 1.83 1.166 2.69a26.92 26.92 0 0 1-10.725 2.244z" mask="url(#d)"/><g fill="#080808" fill-rule="nonzero"><path d="M96.672 9.17c-.315-3.455-.705-4.358-2.982-4.358h-1.02v10.366c0 .923.412 1.08.943 1.08h1.684v.687H88.2v-.687h1.686c.53 0 .942-.157.942-1.08V4.812h-1.02c-2.275 0-2.667.903-2.982 4.358h-.647V4.067h11.14V9.17h-.646zm7.354 7.775v-.648h.627c.55 0 .962-.156.962-1.079V10.25c0-.432-.118-1.55-1.353-1.55-1.706 0-2.824 1.825-2.824 3.69v2.828c0 .923.41 1.08.961 1.08h.629v.647h-5.1v-.648h.843c.548 0 .94-.178.94-1.079V5.793c0-.922-.412-1.08-.96-1.08h-.824v-.646h3.51v5.515c.511-.98 1.59-1.805 3.16-1.805 1.627 0 2.608 1.14 2.745 2.18v5.261c0 .923.392 1.08.94 1.08h.845v.647h-5.1zm9.71.177c-3.14 0-4.256-2.318-4.256-4.183 0-2.532 1.452-5.143 4.098-5.143 2.316 0 3.572 2.101 3.61 4.594l-.254.315h-5.689c0 2.375.943 3.69 2.747 3.69 1.922 0 2.628-1.571 2.608-2.787h.707c.057 1.67-.943 3.514-3.57 3.514zm-.099-8.56c-1.272 0-2.157 1.315-2.352 3.376h4.12c.155-1.373-.373-3.376-1.768-3.376zM97.352 23.254c-.528 0-.922.156-.922 1.08v6.851c0 1.747-.842 4.536-4.55 4.536-3.08 0-4.453-1.925-4.648-3.456v-7.93c0-.925-.394-1.081-.922-1.081h-1.276v-.688h6.57v.688h-1.586c-.53 0-.943.156-.943 1.08v7.263c0 2.435 1.687 3.26 3.059 3.26 1.806 0 3.296-1.12 3.296-3.672v-6.85c0-.925-.393-1.081-.922-1.081H93v-.688h5.629v.688h-1.276zm6.629 12.192v-.648h.63c.548 0 .961-.158.961-1.1V28.81c0-.432-.12-1.551-1.354-1.551-1.708 0-2.61 1.826-2.61 3.71v2.729c0 .942.412 1.1.961 1.1h.629v.648h-5.102v-.648h.844c.55 0 .942-.158.942-1.1v-5.517c0-.922-.411-1.08-.96-1.08h-.845v-.648h3.394l.118 1.748c.509-1 1.372-1.864 2.962-1.864 1.628 0 2.61 1.137 2.746 2.178v5.183c0 .923.394 1.1.94 1.1h.708v.648h-4.964zm5.531 0v-.648h.689c.549 0 .961-.158.961-1.08V28.18c0-.922-.412-1.08-.961-1.08h-.844v-.648h3.53v7.264c0 .923.41 1.08.962 1.08h.842v.649h-5.179zm2.316-10.622c-.588 0-1.078-.53-1.078-1.197 0-.67.49-1.199 1.078-1.199.587 0 1.079.53 1.079 1.2 0 .666-.492 1.196-1.08 1.196zm11.944 2.277c-.628 0-1.098.414-1.372 1.118l-2.903 7.227h-.766l-2.686-7.227c-.334-.902-.825-1.118-1.433-1.118h-.627v-.648h5.296v.648h-.765c-.548 0-1.02.255-.687 1.14l1.845 5.025 1.785-4.731c.275-.708.275-1.434-.59-1.434h-.627v-.648h3.825v.648h-.295zm4.571 8.62c-3.139 0-4.257-2.415-4.257-4.281 0-2.533 1.452-5.223 4.1-5.223 2.315 0 3.569 2.102 3.609 4.594l-.254.315h-5.69c0 2.376.943 3.868 2.748 3.868 1.92 0 2.628-1.57 2.608-2.788h.705c.06 1.669-.94 3.515-3.569 3.515zm-.097-8.738c-1.277 0-2.16 1.316-2.355 3.376h4.119c.157-1.373-.372-3.376-1.764-3.376zm10.748 2.395c-.629 0-.96-.53-.96-.981 0-.727.41-1.197.98-1.414-1.473-.313-2.867 1.473-2.867 3.927v2.788c0 .923.414 1.1.962 1.1h1.04v.648h-5.51v-.648h.843c.55 0 .962-.196.962-1.1v-5.517c0-.922-.413-1.08-.962-1.08h-.844v-.648h3.374l.098 1.63c.451-1.02 1.393-1.866 2.589-1.866.863 0 1.472.707 1.472 1.67 0 .824-.452 1.491-1.177 1.491zm5.904 6.343c-1.02 0-2.06-.551-2.492-1.178l-.491 1.04h-.588v-3.888h.588c.176 1.414 1.178 3.24 2.905 3.24.784 0 1.608-.432 1.608-1.315 0-2.101-5.14-1.57-5.14-4.615 0-1.55 1.099-2.788 2.883-2.788.843 0 1.707.355 2.257.962l.567-.824h.453v3.436h-.59c-.392-1.884-1.352-2.787-2.608-2.787-1.04 0-1.53.686-1.53 1.353 0 2.24 5.237 1.553 5.237 4.575 0 1.65-1.275 2.789-3.059 2.789zm4.157-.275v-.648h.686c.549 0 .961-.158.961-1.08V28.18c0-.922-.412-1.08-.961-1.08h-.844v-.648h3.53v7.264c0 .923.413 1.08.962 1.08h.845v.649h-5.179zm2.314-10.622c-.59 0-1.079-.53-1.079-1.197 0-.67.49-1.199 1.08-1.199.589 0 1.079.53 1.079 1.2 0 .666-.49 1.196-1.08 1.196zm6.964 10.778c-.844 0-2.06-.568-2.255-1.786v-6.538h-1.355v-.706c1.256-.256 2.139-.982 2.255-4.006h.805v3.887h2.668v.825h-2.668v5.85c0 .865.374 1.335 1.08 1.335.785 0 1.217-.608 1.217-1.394v-2.71h.784v3.025c0 1.06-.864 2.218-2.53 2.218zm12.335-8.501c-.627 0-1.076.392-1.371 1.1l-3.375 8.166c-.96 2.336-1.646 3.653-3.255 3.653-.843 0-1.53-.687-1.53-1.609 0-.707.373-1.455 1.157-1.455.432 0 .863.471.863 1.061 0 .45-.195.903-.589 1.199 1.08.35 2.315-1.494 2.924-4.066l-2.434-6.95c-.313-.903-.842-1.099-1.451-1.099h-.431v-.648h5.08v.648h-.744c-.55 0-1 .237-.688 1.118l1.709 4.89 1.822-4.574c.275-.708.275-1.434-.589-1.434h-.725v-.648h3.923v.648h-.296zm-78.815 27.16c-3.59 0-5.572-3.456-5.572-6.52 0-3.73 2.354-6.909 5.59-6.909 4.138 0 5.69 4.26 5.69 6.676 0 4.278-2.57 6.753-5.708 6.753zm.136-12.565c-2.767 0-3.725 2.925-3.725 6.026 0 4.633 2.156 5.673 3.784 5.673 2.156 0 3.53-2.315 3.53-5.536 0-2.472-.685-6.163-3.59-6.163zm11.807 2.002c-.391 0-.844-.275-.844-.844 0-.452.295-.826.844-1.06-.118-.157-.391-.235-.549-.235-.921 0-1.452.706-1.452 1.806 0 .765.177 1.727.354 2.395h2.196v.826h-2.117v5.673c0 .922.41 1.08.961 1.08h1.04v.647h-5.533v-.647h.844c.549 0 .961-.158.961-1.08v-5.673h-1.706v-.826h1.647c-.136-.57-.254-1.453-.254-1.826 0-1.67 1.098-3.102 2.923-3.102 1.197 0 1.842.922 1.842 1.51 0 .984-.724 1.356-1.157 1.356zM92.484 72.83c-1.708 0-3.12-.882-3.65-1.767l-.804 1.493h-.527v-5.713h.645c.315 2.592 1.53 5.201 4.197 5.201 1.472 0 2.532-.823 2.532-2.235 0-4.282-7.573-1.593-7.573-6.853 0-1.59 1.256-3.555 3.787-3.555 1.686 0 2.627.59 3.373 1.414l.59-1.414h.508v5.44h-.667c-.254-2.69-1.354-4.655-3.589-4.655-2.137 0-2.649 1.551-2.649 2.258 0 3.967 7.709 1.61 7.709 6.48 0 2.61-1.98 3.906-3.882 3.906zm10.551-.274v-.648h.628c.548 0 .962-.158.962-1.08V65.94c0-.433-.117-1.553-1.353-1.553-1.707 0-2.61 1.826-2.61 3.692v2.748c0 .923.412 1.08.962 1.08h.627v.65h-5.1v-.65h.844c.549 0 .942-.177.942-1.08V60.756c0-.922-.414-1.08-.961-1.08h-.825v-.648h3.511v6.244c.512-.981 1.374-1.807 2.942-1.807 1.628 0 2.608 1.14 2.746 2.18v5.182c0 .923.394 1.08.942 1.08h.843v.65h-5.1zm9.806.274c-3.136 0-4.253-2.414-4.253-4.279 0-2.534 1.45-5.223 4.098-5.223 2.314 0 3.57 2.1 3.608 4.593l-.254.315h-5.688c0 2.377.941 3.868 2.746 3.868 1.922 0 2.628-1.57 2.608-2.787h.706c.059 1.668-.94 3.513-3.57 3.513zm-.096-8.737c-1.275 0-2.159 1.316-2.354 3.377h4.12c.155-1.375-.373-3.377-1.766-3.377zm9.865-2.532c-.392 0-.842-.275-.842-.844 0-.45.293-.825.842-1.06-.118-.177-.53-.352-.98-.352-1.119 0-1.688.94-1.688 1.862 0 .767.217 1.73.354 2.396h1.982v.824h-1.923v6.44c0 .923.412 1.08.962 1.08h.843v.65h-5.14v-.65h.647c.55 0 .962-.157.962-1.08v-6.44h-1.51v-.824h1.47c-.136-.567-.254-1.452-.254-1.826 0-1.668 1.333-3.16 3.158-3.16 1.254 0 2.276.844 2.276 1.631 0 .922-.61 1.353-1.159 1.353z"/><path d="M130.614 62.111c-.628 0-1.08-.49-1.08-1.099 0-.431.255-.923.667-1.158-.372-.453-.941-.609-1.53-.609-2.059 0-3 1.708-2.491 4.318h1.923v.824h-1.845v6.44c0 .923.413 1.08.962 1.08h.941v.65h-5.237v-.65h.648c.548 0 .961-.157.961-1.08v-6.44h-1.51v-.824h1.47c-.469-2.374.765-5.044 4.179-5.044 1.687 0 3.176 1.059 3.176 2.099 0 .962-.509 1.493-1.234 1.493zm-1.806 10.445v-.648h.766c.549 0 .962-.158.962-1.08V65.31c0-.924-.413-1.079-.962-1.079h-.843v-.669h3.53v7.264c0 .923.411 1.08.961 1.08h.646v.65h-5.06zm9.905.274c-3.139 0-4.256-2.414-4.256-4.279 0-2.534 1.452-5.223 4.1-5.223 2.314 0 3.57 2.1 3.61 4.593l-.255.315h-5.688c0 2.377.941 3.868 2.745 3.868 1.922 0 2.628-1.57 2.608-2.787h.707c.058 1.668-.943 3.513-3.57 3.513zm-.097-8.737c-1.274 0-2.158 1.316-2.354 3.377h4.12c.155-1.375-.374-3.377-1.766-3.377zm4.158 8.463v-.648h.844c.548 0 .96-.158.96-1.08V60.755c0-.922-.412-1.08-.96-1.08h-.844v-.648h3.53v11.8c0 .902.413 1.08.962 1.08h.842v.648h-5.334zm14.024 0c-.647 0-1.138-.648-1.156-1.316-.452.767-1.295 1.493-2.57 1.493-2.375 0-3.943-2.081-3.943-4.595 0-1.807 1.354-4.79 4.196-4.79.825 0 1.61.412 2.14 1.157v-3.75c0-.921-.413-1.08-.962-1.08h-1.882v-.647h4.569V70.79c0 .94.394 1.118.942 1.118h.843v.648h-2.177zm-3.473-8.402c-1.352 0-2.374 1.708-2.374 3.767 0 2.751 1.022 3.968 2.277 3.968 1.569 0 2.374-1.356 2.374-3.653 0-1.865-.57-4.082-2.277-4.082zm8.062 8.598c-.686 0-1.235-.57-1.235-1.257 0-.686.55-1.256 1.235-1.256.686 0 1.237.57 1.237 1.256a1.25 1.25 0 0 1-1.237 1.257z"/></g><g fill="#E84D5B" fill-rule="nonzero"><path d="M20.656 59.418c-.737 0-.958.237-.958.663 0 1.84 3.55 4.186 5.71 5.142.503-.886.898-1.81 1.196-2.788a48.785 48.785 0 0 1-3.727-2.64c-.815-.21-1.6-.377-2.221-.377M5.653 47.804c-.27.435-.817 1.32-.983 1.584.404.545 1.187 1.368 1.934 2.01l1.723-2.077c-.865-.01-1.977-.553-2.674-1.517"/><path d="M5.66 46.794c.695 1.215 1.821 2.089 2.872 1.872.363-.075.385-.297.392-.368.05-.507-.158-1.04-.703-1.648-.896-.996-2.154-1.607-3.363-1.607-1.224 0-1.586.7-1.586 1.371 0 .44.241 1.36 1.06 2.52l1.328-2.14"/><path d="M2.848 47.33c-.642 1.923-1.358 3.077-1.89 3.646-.832.89-.873 1.835.074 3.13 1.925 2.63 6.698 7.164 17.53 8.659.239-.843.401-1.67.481-2.713h.002c.008-.822.62-1.173 1.472-1.173.403 0 .907.077 1.456.19a41.362 41.362 0 0 1-2.093-1.847c-10.33-1.35-15.586-6.24-17.032-9.892m45.108 17.829c2.161-.956 5.549-3.228 5.549-5.067 0-.428-.221-.665-.958-.665-.603 0-1.355.158-2.137.356a49.17 49.17 0 0 1-3.729 2.645c.333.953.775 1.848 1.275 2.73m16.956-15.837l1.721 2.076c.75-.64 1.532-1.464 1.935-2.01l-.983-1.583c-.697.964-1.808 1.507-2.673 1.517"/><path d="M64.24 48.403c.009.073.03.292.394.368 1.052.215 2.25-.762 2.945-1.977 0 0 1.013 1.631 1.326 2.14.822-1.16 1.055-2.15 1.055-2.59 0-.673-.315-1.282-1.537-1.282-1.21 0-2.51.592-3.406 1.588-.545.608-.827 1.247-.777 1.753"/><path d="M70.391 47.33c-1.445 3.648-6.691 8.529-16.995 9.89a42.39 42.39 0 0 1-2.088 1.839c.532-.107 1.022-.18 1.413-.18.852 0 1.465.351 1.473 1.173.082 1.042.264 1.966.5 2.808 10.835-1.494 15.767-6.063 17.497-8.636.895-1.332.997-2.225.165-3.116-.532-.567-1.323-1.855-1.965-3.778z"/><path d="M53.816 61.315c-1.734 2.961-9.016 6.99-17.198 6.99-8.18 0-15.46-4.029-17.195-6.99-.311 1.938-.826 3.533-1.464 4.928-.198.434-.3.998 1.032 2.16 2.987 2.615 9.099 5.33 17.627 5.33 8.531 0 14.644-2.696 17.633-5.31 1.33-1.163 1.23-1.727 1.03-2.16-.638-1.396-1.154-3.01-1.465-4.948"/></g><path fill="#E84D5B" fill-rule="nonzero" d="M10 26.876V4.552C15.658 3.076 27.96 1 37.502 1 47.039 1 59.342 3.076 65 4.552v22.324C65 48.308 52.347 58.831 37.502 65 22.654 58.831 10 48.308 10 26.876z"/><path fill="#080808" fill-rule="nonzero" d="M21.195 68.06c-.798-.631-1.024-1.811-.875-2.605.17-.89.851-1.356 1.557-.799.312.247.454.49.609.857l.164-.245.119.094-.341 1.368-.169-.133c.09-.75.01-1.322-.41-1.654-.396-.312-.757.076-.93.979-.162.855-.01 1.596.395 1.918.432.341.751.266.945-.408l.192.153c-.196.78-.743.88-1.256.475zm2.874 1.724c-.96-.432-1.248-1.527-1.095-2.272.163-.8.87-1.492 1.786-1.08 1.103.497 1.282 1.664 1.144 2.334-.176.865-.87 1.452-1.835 1.018zm.679-3.08c-.41-.183-.847.044-1.068 1.122-.232 1.137.139 1.568.484 1.722.504.228.85-.207 1.016-1.013.208-1.012-.006-1.639-.432-1.831zm4.683 3.539c-.126-.045-.234-.037-.285.2l-.267 1.167-.197-.05-.144-.455c-.175.249-.519.358-.984.196-.888-.309-1.32-1.232-1.12-2.17.19-.894.979-1.545 1.894-1.227.412.142.644.378.788.637l.213-.29.151.041-.34 1.357-.194-.051c.07-.644-.05-1.214-.61-1.41-.277-.095-.91-.027-1.167 1.193-.2.943.104 1.52.566 1.68.367.125.531-.024.64-.235l.123-.512c.05-.235-.04-.313-.168-.358l-.298-.102.043-.208 1.586.453-.044.208-.186-.064zm3.99-.877c-.136-.022-.239.004-.258.245l-.405 2.917-.377-.066-1.423-2.773-.322 1.933c-.032.228.067.336.203.358l.313.075-.035.216-1.358-.306.036-.216.265.058c.139.022.216-.017.26-.258l.396-2.357c.036-.231-.056-.298-.213-.325l-.268-.058.039-.205 1.04.204 1.317 2.568.206-1.818c.02-.243-.08-.303-.216-.327l-.31-.052.033-.212 1.377.233-.03.212-.27-.046zm1.928 3.484c-1.062-.081-1.506-1.065-1.443-1.863.067-.855.716-1.804 1.73-1.73 1.22.092 1.56 1.189 1.503 1.908-.073.925-.723 1.763-1.79 1.685zm.309-3.316c-.453-.033-.881.354-.97 1.506-.098 1.22.35 1.51.731 1.54.557.042.864-.518.931-1.38.086-1.087-.22-1.631-.692-1.666zm3.581 3.338c-.511.02-.764-.158-.948-.41l-.196.38-.153.005.016-1.469.202-.008c.083.69.34 1.268 1.05 1.24.282-.011.542-.2.546-.496.01-1.01-1.856-.29-1.84-1.828.005-.322.289-.963 1.08-.993.435-.017.677.13.868.341l.156-.381.15-.007-.015 1.392-.212.008c-.055-.72-.314-1.116-.893-1.093-.427.016-.573.319-.576.537-.009.831 1.888.316 1.874 1.669-.005.564-.409 1.085-1.109 1.113zm3.614-.352c-1.055.157-1.646-.633-1.7-1.458-.059-.924.531-1.987 1.449-2.101.411-.051.656 0 .925.175l.112-.363.155-.026.095 1.484-.217.04c-.11-.733-.447-1.14-.995-1.045-.517.089-.803.756-.741 1.694.055.89.424 1.392.954 1.299.562-.1.889-.454.916-1.213l.25-.045c.002.905-.414 1.444-1.203 1.56zm3.082-3.919c-.115.033-.186.098-.172.285l.067 1.03.093-.025c.513-.146.576-.185.59-.994l.189-.056.127 1.885-.189.054c-.12-.774-.163-.777-.7-.625l-.092.026.079 1.178c.011.195.096.193.202.167.223-.054.356-.09.67-.188.508-.143.613-.385.638-1.305l.198-.054.138 1.311c-1.12.359-1.965.588-3.082.865l-.015-.221.302-.076c.128-.035.228-.112.211-.358l-.163-2.41c-.015-.24-.12-.256-.248-.221l-.303.085-.015-.215a87.969 87.969 0 0 0 2.877-.805l.138 1.277-.198.057c-.144-.882-.414-.944-.83-.824-.207.057-.393.125-.512.157zm2.573 2.412l-.029-.214.31-.116c.122-.054.188-.149.158-.385l-.297-2.291c-.032-.233-.133-.233-.253-.18l-.293.114-.028-.209 2.002-.894c.521-.234.973-.044 1.037.442.046.342-.147.807-.542 1.044.369.081.491.263.584.965.027.207.132.22.215.174.08-.043.137-.127.12-.263l-.121-.654.22-.097.14.683c.033.25-.097.56-.546.759-.346.157-.686.097-.741-.322-.095-.709-.245-.908-.642-.785l-.3.133.151 1.18c.026.191.101.196.2.154l.394-.159.029.215a21.77 21.77 0 0 1-1.768.706zm1.174-3.762l-.243.108c-.104.048-.13.099-.115.214l.147 1.101.338-.15c.524-.236.65-.679.616-.941-.071-.536-.462-.458-.743-.332zm4.398-2.954l.324 1.133-.164.123c-.21-.806-.46-.743-.8-.478-.178.135-.284.222-.437.344-.095.071-.148.157-.119.336l.216.965.108-.081c.37-.281.422-.358.297-1.121l.154-.117.406 1.735-.154.116c-.182-.704-.217-.694-.662-.362l-.107.08.226 1.114c.03.187.096.15.189.093.14-.086.47-.343.615-.455.341-.257.413-.56.285-1.432l.163-.122.323 1.198c-.658.618-1.701 1.345-2.564 1.9l-.034-.21.26-.167c.14-.105.177-.184.136-.434l-.458-2.223c-.037-.227-.14-.255-.247-.176l-.272.183-.054-.197a51.533 51.533 0 0 0 2.37-1.745zM3.097 54.716c-.227-.306-.348-.762-.174-1.148.296-.647.307-.99.076-1.38l-.196-.263-.521.997c-.08.174-.039.264.027.351l.252.34-.089.196-1.149-1.546.089-.197.187.252c.079.106.157.156.257-.062l1.041-2.043c.098-.216.052-.338-.027-.444l-.187-.25.087-.194 1.29 1.735c.338.458.447 1.15.246 1.596-.143.314-.435.334-.734.13.124.509.09.795-.202 1.44-.086.187-.06.292-.007.365.055.072.118.073.175-.053l.28-.616.18.244-.296.655c-.105.23-.314.286-.605-.105zm.592-3.823l-.143-.193c-.067-.09-.103-.083-.15.022l-.491.981.235.305c.343.46.608.276.717.038.224-.493.016-.907-.168-1.153zm0 4.478l.101-.204.23.2c.097.087.19.117.304-.11l1.109-2.217c.11-.223.054-.331-.042-.416l-.23-.204.1-.198 2.215 1.95-.598 1.196-.149-.132c.354-.888.23-1.212-.086-1.49l-.388-.34c-.086-.078-.162-.087-.248.085l-.495.987.07.063c.389.343.446.366.863-.318l.142.128-.865 1.734-.142-.126c.31-.775.286-.818-.12-1.173l-.069-.06-.534 1.067c-.09.181-.04.258.04.329l.507.445c.313.276.574.224 1.038-.528l.15.134-.608 1.217-2.295-2.02zm5.237 3.833c-.32-.189-.523-.557-.339-.972.31-.704.312-1.017-.027-1.283l-.275-.16-.507 1.147c-.083.188-.021.255.07.309l.357.21-.092.212-1.63-.956.094-.212.264.155c.113.066.217.08.322-.158l1.02-2.312c.103-.233.033-.328-.079-.393l-.265-.154.091-.209 1.85 1.086c.481.282.692.869.48 1.35-.15.34-.521.474-.925.404.211.415.198.686-.111 1.386-.089.202-.047.288.03.334.076.043.157.02.218-.117l.294-.666.257.15-.313.71c-.11.248-.371.382-.784.14zm.364-3.7l-.226-.13c-.095-.057-.14-.037-.191.077l-.484 1.095.314.184c.485.285.806.015.921-.244.235-.534-.075-.829-.334-.982zm4.383 1.936c-.15-.06-.245-.011-.376.182l-1.923 2.66-.31-.124.058-3.41c-.006-.263-.033-.342-.152-.391l-.226-.09.07-.225 1.625.653-.07.223-.242-.096c-.119-.049-.281-.05-.277.218l-.082 2.273 1.261-1.8c.114-.17.073-.302-.093-.368l-.2-.08.07-.223 1.097.44-.068.223-.162-.065zm1.928 4.158l.067-.233.262.057c.192.034.254-.018.307-.238l.607-2.145-1.759 2.423-.317-.087-.074-2.903-.715 2.12c-.074.255.016.324.139.358l.265.071-.067.23-1.301-.353.066-.232.291.081c.123.033.232.017.308-.238l.82-2.486c.073-.248-.014-.322-.14-.356l-.286-.079.065-.225 1.298.353.017 2.663 1.635-2.252 1.258.245-.066.226-.293-.051c-.128-.033-.238-.015-.31.236l-.71 2.506c-.075.258.01.324.138.358l.287.064-.068.231-1.724-.344zm42 .073c-.999.233-1.721-.61-1.935-1.482-.237-.975.172-2.086 1.057-2.29.39-.09.626-.014.927.163l.04-.387.15-.035.383 1.569-.209.048c-.25-.771-.664-1.191-1.192-1.069-.493.115-.65.832-.407 1.823.229.94.691 1.46 1.2 1.34.538-.125.795-.513.675-1.318l.24-.057c.177.959-.175 1.522-.928 1.695zm2.732-.867l-.065-.23.276-.093c.124-.042.257-.145.113-.363l-.338-.51-.828.287v.626c.002.213.107.29.28.226l.21-.072.065.23-1.197.415-.065-.23.217-.075c.157-.054.212-.151.215-.4l.03-3.37.329-.117 1.819 2.733c.138.215.209.253.336.208l.28-.095.068.227-1.745.603zm-.837-2.45l-.002 1.254.67-.233-.668-1.02zM63.58 55.7c-.15.069-.2.18-.201.43l-.003 3.484-.308.144-1.857-2.611c-.144-.2-.208-.239-.327-.183l-.225.105-.064-.224 1.62-.76.065.224-.242.113c-.119.056-.248.18-.1.383l1.192 1.712-.017-2.263c-.001-.22-.103-.288-.268-.212l-.199.096-.065-.226 1.094-.513.066.224-.161.077zm2.427 2.484c-.424.271-.689.211-.919.047l-.05.484-.127.08-.424-1.515.166-.107c.276.666.663 1.134 1.25.758.234-.151.397-.473.311-.779-.29-1.041-1.643.615-2.088-.972-.093-.333-.045-1.128.61-1.546.362-.233.61-.2.83-.077l.02-.47.12-.078.404 1.435-.175.11c-.26-.71-.595-.99-1.076-.682a.754.754 0 0 0-.322.835c.239.857 1.678-.602 2.07.79.162.582-.022 1.315-.6 1.687zm2.223-1.812l-.073-.219.222-.195c.102-.087.205-.24.067-.422l-.32-.423-.67.584.045.663c.019.224.111.268.252.144l.169-.147.073.218-.97.848-.072-.221.176-.153c.126-.11.165-.233.148-.495l-.221-3.574.266-.232 1.722 2.268c.134.18.194.195.3.103l.226-.197.072.22-1.412 1.23zm-.884-2.303l.09 1.326.545-.475-.635-.851zm3.257-.06c-.298.415-.515.435-.717.333l.023.523-.09.123-.532-1.455.117-.163c.305.612.672.98 1.084.407.165-.232.25-.617.142-.91-.366-1.002-1.212 1.15-1.772-.374-.116-.32-.184-1.167.277-1.808.254-.355.455-.396.646-.337l-.048-.497.086-.12.505 1.379-.123.17c-.298-.665-.599-.853-.936-.381-.25.343-.225.755-.145.971.302.824 1.244-1.15 1.734.19.205.559.158 1.38-.25 1.949z"/><g fill="#080808" fill-rule="nonzero"><path d="M17.934 14.296l.41-.56 37.77 23.52c.415.259.89.57 1.37.893l.192-.257c.178-.179.324-.332.424-.422.187.068.863.388 1.24.62.876.547 1.67 1.718 1.526 2.502-.734.418-2.205.175-3.083-.372a9.392 9.392 0 0 1-1.087-.827c.05-.113.272-.501.398-.711l-33.707-20.99c-.994.021-2.018.143-3.04-.483a96.972 96.972 0 0 1-2.51-1.601c.17-.097.695-.4 1.112-.68l-1.015-.632"/><path d="M18.09 14.102l1.067.665c-.418.28-.928.595-1.1.689a93.04 93.04 0 0 0 2.44 1.56c1.025.627 2.05.504 3.046.482l32.277 20.1c1.09.68 2.697 1.587 3.76 2.102l-.031.043c-.916-.135-1.765-.586-2.47-1.024-.132.208-.23.393-.282.512.138.135.711.594 1.086.829.88.543 2.3.755 3.033.338.146-.784-.598-1.922-1.476-2.47a9.775 9.775 0 0 0-1.238-.62 7.555 7.555 0 0 0-.55.616l-33.71-20.99c-.349-.86-.61-1.776-1.62-2.417a101.251 101.251 0 0 0-2.479-1.506c-.031.183-.155.733-.279 1.195l-1.066-.664-.408.56"/><path d="M20.163 14.708c.05-.341.06-.9.06-1.036 0-.09.124-.013.135.037.057.234.06.781.101 1.18l-.296-.181m.964.597c-.01-.35-.054-.85-.101-1.16-.016-.116.13-.013.153.04.145.336.223 1.091.248 1.31l-.3-.19m1.95 1.217c-.058-.343-.148-.782-.216-.954-.089-.227.074-.102.12-.017.172.31.32.809.38 1.147l-.283-.176m-.962-.6c-.009-.35-.125-.921-.184-1.213-.024-.115.139-.007.163.046.149.328.308 1.145.334 1.362l-.313-.195m-2.237-.827c-.323.17-.881.39-1.017.44-.09.033.033.112.088.102.256-.04.807-.242 1.224-.357l-.295-.185m.962.6c-.355.124-.874.275-1.203.35-.122.03.036.118.096.116.394-.003 1.18-.218 1.409-.278l-.302-.187m1.954 1.216c-.369.077-.841.164-1.04.171-.261.009-.076.102.027.108.375.033.931-.028 1.294-.104l-.281-.175m-.964-.599c-.355.123-.973.238-1.289.296-.123.023.046.121.107.123.387.004 1.267-.165 1.494-.225l-.312-.194m-6.06 1.27l.409-.559 37.769 23.52c.414.259.89.569 1.371.893l.19-.255c.179-.18.326-.333.426-.425.186.068.861.387 1.238.623.878.546 1.672 1.715 1.528 2.499-.734.418-2.205.177-3.084-.371a9.244 9.244 0 0 1-1.086-.828c.05-.114.272-.502.397-.71L21.223 20.98c-.996.02-2.019.142-3.041-.484a100.19 100.19 0 0 1-2.51-1.6c.171-.097.696-.4 1.113-.68l-1.014-.633"/><path d="M15.924 17.39l1.068.665c-.416.28-.928.595-1.101.69.777.517 2.05 1.319 2.442 1.559 1.025.626 2.049.503 3.045.482l32.277 20.1c1.091.68 2.697 1.586 3.759 2.1l-.031.043c-.914-.132-1.763-.585-2.468-1.023-.132.21-.23.394-.283.512.137.136.712.594 1.087.828.878.546 2.3.757 3.033.339.144-.784-.6-1.922-1.478-2.47a9.598 9.598 0 0 0-1.237-.62 7.47 7.47 0 0 0-.55.618L21.78 20.22c-.351-.858-.613-1.776-1.622-2.416a94.678 94.678 0 0 0-2.48-1.505c-.03.182-.154.732-.279 1.193l-1.065-.664-.41.561"/><path d="M17.998 17.993c.05-.34.06-.897.06-1.033 0-.09.124-.014.136.037.056.233.059.781.1 1.18l-.296-.184m.963.6c-.01-.35-.054-.85-.099-1.16-.017-.116.13-.013.153.04.144.336.222 1.091.249 1.308l-.303-.188m1.952 1.217c-.059-.344-.148-.782-.215-.954-.09-.227.071-.103.118-.018.172.31.32.81.38 1.147l-.283-.175m-.961-.6c-.01-.35-.126-.92-.185-1.215-.025-.113.14-.005.163.047.148.33.31 1.147.335 1.363l-.313-.195m-2.237-.827c-.324.17-.883.388-1.017.44-.09.033.033.11.088.101.255-.038.806-.24 1.223-.356l-.294-.185m.961.6a13.32 13.32 0 0 1-1.202.35c-.124.03.034.116.097.116.39 0 1.18-.219 1.408-.278l-.303-.188M20.63 20.2c-.367.076-.84.165-1.039.171-.262.01-.075.1.028.108.373.031.932-.028 1.294-.104l-.283-.175m-.962-.6c-.356.124-.974.239-1.289.296-.123.024.045.122.108.123.385.005 1.265-.164 1.493-.224l-.312-.196M13.6 20.9l.41-.561 37.77 23.52c.414.26.891.569 1.372.894l.189-.256c.179-.181.327-.333.427-.423a9.71 9.71 0 0 1 1.238.62c.876.547 1.67 1.716 1.526 2.5-.732.418-2.206.177-3.083-.37a9.288 9.288 0 0 1-1.087-.828c.051-.114.274-.502.399-.71L19.053 24.294c-.993.021-2.017.143-3.04-.482a93.065 93.065 0 0 1-2.51-1.602c.172-.096.695-.4 1.112-.68L13.6 20.9"/><path d="M13.756 20.705l1.068.664c-.418.28-.93.595-1.101.691.776.519 2.05 1.32 2.44 1.558 1.025.628 2.05.505 3.047.483l32.275 20.1c1.09.68 2.7 1.589 3.761 2.1l-.03.044c-.915-.131-1.766-.585-2.47-1.024-.13.21-.23.394-.282.512.137.136.71.593 1.087.829.878.545 2.299.755 3.032.338.144-.784-.6-1.921-1.477-2.468a9.538 9.538 0 0 0-1.238-.622 8.047 8.047 0 0 0-.55.618L19.61 23.536c-.35-.857-.613-1.776-1.622-2.415a97.425 97.425 0 0 0-2.48-1.507c-.031.183-.155.734-.279 1.194l-1.064-.662-.41.559"/><path d="M15.83 21.31c.05-.34.06-.9.06-1.035 0-.091.123-.013.136.036.057.236.058.783.099 1.182l-.296-.183m.963.598c-.01-.35-.053-.85-.098-1.16-.018-.115.128-.013.152.04.144.336.223 1.09.248 1.309l-.302-.189m1.954 1.217c-.061-.343-.15-.78-.218-.954-.088-.227.073-.101.12-.018.171.31.32.81.379 1.15l-.281-.178m-.964-.6c-.008-.35-.123-.921-.184-1.214-.024-.115.138-.006.163.047.148.328.308 1.146.334 1.361l-.313-.194m-2.237-.827c-.322.17-.88.389-1.017.44-.09.034.035.111.088.102.255-.04.808-.242 1.224-.356l-.295-.186m.962.6a13.76 13.76 0 0 1-1.203.352c-.122.028.036.116.098.115.392-.002 1.18-.218 1.407-.278l-.302-.188m1.954 1.216c-.369.078-.841.164-1.04.173-.262.007-.074.099.027.108.375.029.932-.03 1.295-.106l-.282-.175m-.964-.6c-.354.125-.972.238-1.287.298-.123.023.046.121.106.121.387.004 1.267-.164 1.495-.224l-.314-.195m-6.108 1.268l.409-.56 37.769 23.52c.415.26.89.568 1.371.893l.19-.255c.179-.18.327-.333.427-.424.187.069.86.387 1.237.62.878.549 1.672 1.716 1.528 2.5-.733.42-2.206.177-3.083-.37a9.12 9.12 0 0 1-1.087-.825c.049-.116.272-.504.398-.712L16.84 27.58c-.995.021-2.019.141-3.041-.485a98.595 98.595 0 0 1-2.51-1.601c.171-.095.696-.4 1.113-.68l-1.014-.631"/><path d="M11.542 23.988l1.068.666c-.416.28-.927.594-1.1.69a93.102 93.102 0 0 0 2.44 1.558c1.026.627 2.05.504 3.046.484l32.277 20.1c1.091.679 2.697 1.585 3.76 2.1l-.032.044c-.914-.134-1.763-.586-2.468-1.024-.13.21-.23.393-.283.512a9.56 9.56 0 0 0 1.087.827c.878.547 2.3.756 3.032.34.146-.784-.599-1.923-1.476-2.469a9.34 9.34 0 0 0-1.238-.62c-.095.085-.406.43-.549.615L17.398 26.82c-.351-.857-.612-1.776-1.622-2.415a89.846 89.846 0 0 0-2.48-1.505c-.03.182-.154.732-.279 1.193l-1.065-.664-.41.56"/><path d="M13.615 24.594c.051-.34.062-.9.062-1.035 0-.09.124-.012.135.038.056.234.06.78.1 1.18l-.297-.183m.964.598c-.008-.35-.054-.85-.098-1.16-.018-.115.13-.012.151.04.145.335.225 1.092.25 1.309l-.303-.189m1.952 1.217c-.059-.343-.148-.78-.215-.954-.09-.227.071-.101.118-.016.172.308.32.808.38 1.147l-.283-.177m-.961-.599c-.01-.35-.126-.923-.185-1.215-.023-.113.14-.006.163.046.148.329.31 1.146.335 1.363l-.313-.194m-2.237-.827c-.323.17-.883.389-1.017.44-.09.033.033.11.088.102.255-.04.806-.242 1.224-.357l-.295-.185m.962.6c-.356.123-.875.273-1.203.35-.122.028.034.116.097.116.392-.002 1.18-.218 1.408-.278l-.302-.188m1.952 1.215c-.367.079-.84.166-1.038.173-.262.01-.077.1.027.108.373.031.932-.03 1.294-.104l-.283-.177m-.962-.599c-.356.125-.974.24-1.289.298-.124.023.046.121.108.123.386.003 1.267-.166 1.493-.226l-.312-.195M57.34 14.296l-.412-.56-37.767 23.52c-.414.259-.892.57-1.373.893l-.189-.257c-.18-.179-.326-.332-.425-.422a9.977 9.977 0 0 0-1.24.62c-.876.547-1.672 1.718-1.526 2.502.733.418 2.206.175 3.084-.372.375-.234.95-.692 1.087-.827a12.204 12.204 0 0 0-.399-.711l33.706-20.99c.996.021 2.019.143 3.041-.483a98.325 98.325 0 0 0 2.51-1.601c-.171-.097-.695-.4-1.111-.68l1.014-.632"/><path d="M56.774 13.542l-1.065.664a18.484 18.484 0 0 1-.279-1.195 100.2 100.2 0 0 0-2.48 1.506c-1.009.64-1.271 1.558-1.621 2.417l-33.71 20.99a7.637 7.637 0 0 0-.548-.616 9.64 9.64 0 0 0-1.237.62c-.879.548-1.622 1.686-1.478 2.47.734.417 2.155.205 3.033-.338a9.558 9.558 0 0 0 1.087-.829 4.224 4.224 0 0 0-.283-.512c-.703.438-1.554.89-2.468 1.024l-.032-.043c1.062-.515 2.669-1.422 3.76-2.102l32.277-20.1c.996.022 2.02.145 3.045-.482a89.15 89.15 0 0 0 2.442-1.56 20.423 20.423 0 0 1-1.101-.689l1.068-.665-.41-.56"/><path d="M55.11 14.708a8.97 8.97 0 0 1-.06-1.036c0-.09-.124-.013-.136.037-.057.234-.058.781-.1 1.18l.296-.181m-.963.597c.01-.35.053-.85.1-1.16.015-.116-.132-.013-.154.04-.144.336-.222 1.091-.248 1.31l.302-.19m-1.953 1.217c.06-.343.15-.782.217-.954.088-.227-.072-.102-.119-.017-.171.31-.32.809-.38 1.147l.282-.176m.962-.6c.01-.35.125-.921.185-1.213.024-.115-.14-.007-.163.046-.148.328-.307 1.145-.334 1.362l.312-.195m2.237-.827c.325.17.883.39 1.017.44.091.033-.033.112-.087.102-.255-.04-.807-.242-1.224-.357l.294-.185m-.96.6c.354.124.874.275 1.202.35.123.03-.036.118-.096.116-.393-.003-1.182-.218-1.409-.278l.303-.187m-1.954 1.216c.368.077.84.164 1.039.171.262.009.075.102-.027.108-.375.033-.932-.028-1.294-.104l.282-.175m.963-.599c.355.123.973.238 1.288.296.123.023-.046.121-.108.123-.386.004-1.265-.165-1.492-.225l.312-.194m6.06 1.27l-.408-.559-37.77 23.52c-.415.259-.89.569-1.37.893l-.19-.255c-.18-.18-.326-.333-.427-.425a9.749 9.749 0 0 0-1.24.623c-.876.546-1.67 1.715-1.526 2.499.734.418 2.206.177 3.084-.371a9.17 9.17 0 0 0 1.087-.828 10.57 10.57 0 0 0-.4-.71l33.709-20.99c.993.02 2.017.142 3.04-.484a97.943 97.943 0 0 0 2.51-1.6c-.172-.097-.695-.4-1.112-.68l1.014-.633"/><path d="M58.94 16.829l-1.067.664a18.517 18.517 0 0 1-.278-1.193 93.541 93.541 0 0 0-2.48 1.505c-1.01.64-1.27 1.558-1.62 2.416l-33.71 20.992a7.598 7.598 0 0 0-.55-.618 9.598 9.598 0 0 0-1.237.62c-.877.548-1.622 1.686-1.476 2.47.733.418 2.153.207 3.031-.34.377-.233.95-.69 1.088-.827a4.45 4.45 0 0 0-.283-.512c-.705.438-1.554.89-2.469 1.023l-.031-.042c1.063-.515 2.67-1.42 3.76-2.101l32.276-20.1c.996.021 2.021.144 3.046-.482a100.92 100.92 0 0 0 2.441-1.559c-.172-.095-.682-.41-1.1-.69l1.067-.665-.408-.561"/><path d="M57.274 17.993c-.05-.34-.06-.897-.06-1.033 0-.09-.124-.014-.135.037-.056.233-.059.781-.1 1.18l.295-.184m-.963.6c.01-.35.054-.85.1-1.16.017-.116-.13-.013-.152.04-.146.336-.224 1.091-.249 1.308l.3-.188m-1.95 1.217c.059-.344.149-.782.216-.954.087-.227-.073-.103-.119-.018-.172.31-.32.81-.38 1.147l.283-.175m.961-.6c.01-.35.126-.92.185-1.215.024-.113-.139-.005-.163.047-.149.33-.309 1.147-.335 1.363l.313-.195m2.238-.827c.323.17.882.388 1.017.44.09.033-.034.11-.088.101-.256-.038-.807-.24-1.224-.356l.295-.185m-.962.6c.355.125.875.274 1.202.35.122.03-.035.116-.096.116-.392 0-1.18-.219-1.409-.278l.303-.188M54.643 20.2c.369.076.842.165 1.04.171.261.01.076.1-.027.108-.375.031-.932-.028-1.294-.104l.281-.175m.963-.6c.356.124.973.239 1.289.296.124.024-.045.122-.106.123-.387.005-1.267-.164-1.495-.224l.312-.196M61.67 20.9l-.409-.561-37.77 23.52c-.414.26-.89.569-1.37.894l-.19-.256c-.179-.181-.326-.333-.426-.423a9.778 9.778 0 0 0-1.238.62c-.878.547-1.673 1.716-1.527 2.5.733.418 2.206.177 3.082-.37a9.04 9.04 0 0 0 1.087-.828 11.52 11.52 0 0 0-.397-.71L56.22 24.294c.994.021 2.017.143 3.04-.482a96.38 96.38 0 0 0 2.51-1.602c-.171-.096-.695-.4-1.111-.68l1.012-.63"/><path d="M61.108 20.146l-1.065.662c-.125-.46-.248-1.01-.279-1.194a96.571 96.571 0 0 0-2.48 1.507c-1.01.64-1.27 1.558-1.621 2.415l-33.71 20.992a7.576 7.576 0 0 0-.549-.618 9.494 9.494 0 0 0-1.237.622c-.877.547-1.621 1.684-1.477 2.468.734.417 2.153.207 3.033-.338.376-.236.95-.693 1.087-.829a4.73 4.73 0 0 0-.283-.512c-.705.44-1.555.893-2.47 1.024l-.03-.043c1.062-.512 2.669-1.421 3.76-2.101l32.276-20.1c.997.022 2.02.145 3.046-.483a93.53 93.53 0 0 0 2.441-1.558c-.173-.096-.682-.41-1.1-.69l1.068-.665-.41-.56"/><path d="M59.444 21.31c-.05-.34-.06-.9-.06-1.035 0-.091-.124-.013-.137.036-.055.236-.06.783-.1 1.182l.297-.183m-.963.598c.008-.35.054-.85.099-1.16.017-.115-.13-.013-.153.04-.144.336-.222 1.09-.248 1.309l.302-.189m-1.952 1.217c.059-.343.148-.78.215-.954.09-.227-.071-.101-.118-.018-.172.31-.32.81-.38 1.15l.283-.178m.961-.6c.01-.35.127-.921.184-1.214.025-.115-.138-.006-.163.047-.147.328-.308 1.146-.334 1.361l.313-.194m2.237-.827c.324.17.882.389 1.017.44.09.034-.033.111-.088.102-.255-.04-.805-.242-1.223-.356l.294-.186m-.96.6c.354.125.874.275 1.202.352.122.028-.036.116-.098.115-.391-.002-1.18-.218-1.408-.278l.304-.188m-1.955 1.216c.369.078.843.164 1.04.173.26.007.075.099-.026.108-.375.029-.934-.03-1.296-.106l.282-.175m.962-.6c.356.125.975.238 1.29.298.123.023-.046.121-.108.121-.386.004-1.265-.164-1.493-.224l.311-.195m6.11 1.268l-.409-.56-37.769 23.52c-.415.26-.89.568-1.37.893l-.191-.255c-.18-.18-.325-.333-.427-.424a10.17 10.17 0 0 0-1.238.62c-.877.549-1.67 1.716-1.527 2.5.732.42 2.207.177 3.084-.37.376-.233.95-.69 1.086-.825-.05-.116-.273-.504-.397-.712l33.707-20.99c.994.021 2.017.141 3.04-.485a96.493 96.493 0 0 0 2.51-1.601c-.172-.095-.695-.4-1.112-.68l1.014-.631"/><path d="M63.322 23.429l-1.066.664a18.166 18.166 0 0 1-.28-1.193 90.581 90.581 0 0 0-2.479 1.505c-1.01.639-1.27 1.558-1.62 2.415L24.166 47.81a7.296 7.296 0 0 0-.55-.615 9.299 9.299 0 0 0-1.237.62c-.878.546-1.622 1.685-1.476 2.468.732.417 2.153.208 3.031-.339.377-.235.95-.692 1.087-.827a4.221 4.221 0 0 0-.282-.512c-.705.438-1.555.89-2.469 1.024l-.031-.043c1.062-.516 2.67-1.422 3.76-2.1l32.276-20.101c.996.02 2.022.143 3.046-.484.392-.24 1.666-1.04 2.44-1.558a21.02 21.02 0 0 1-1.098-.69l1.066-.666-.408-.56"/><path d="M61.657 24.594c-.05-.34-.06-.9-.06-1.035 0-.09-.125-.012-.136.038-.056.234-.06.78-.1 1.18l.296-.183m-.964.598c.01-.35.054-.85.1-1.16.017-.115-.13-.012-.152.04-.146.335-.224 1.092-.25 1.309l.302-.189m-1.95 1.217c.058-.343.147-.78.214-.954.088-.227-.072-.101-.117-.016-.174.308-.32.808-.381 1.147l.283-.177m.962-.599c.008-.35.125-.923.184-1.215.023-.113-.139-.006-.164.046-.148.329-.308 1.146-.333 1.363l.313-.194m2.237-.827c.323.17.88.389 1.017.44.09.033-.035.11-.088.102-.256-.04-.808-.242-1.225-.357l.296-.185m-.962.6c.354.123.874.273 1.202.35.123.028-.035.116-.096.116-.393-.002-1.182-.218-1.409-.278l.303-.188m-1.954 1.215c.369.079.841.166 1.04.173.26.01.076.1-.027.108-.376.031-.931-.03-1.295-.104l.282-.177m.963-.599c.356.125.973.24 1.287.298.126.023-.043.121-.105.123-.387.003-1.267-.166-1.494-.226l.312-.195"/></g><path fill="#080808" fill-rule="nonzero" d="M38.66 46.635c-.014-.273-.014-1.079-.028-1.201-.014-.124-.082-.138-.15-.095-.07.04-.182.132-.308.229 0-.151.022-.461.022-.57 0-.173-.024-.186-.147-.084-.06.051-.11.008-.134-.058-.04-.11-.249-.653-.29-.775-.043-.123-.102-.1-.165.027-.07.137-.229.562-.27.684-.052.153-.079.148-.177.073-.144-.116-.178-.063-.166.03.023.177.129.593.157.826-.07-.123-.224-.267-.304-.355-.087-.097-.15-.056-.152.08-.004.152-.027.67-.027 1.024l1.132.781 1.006-.616m-8.71 5.62c-.34-.11-.738-.251-.872-.293-.13-.042-.148-.134-.029-.183.116-.05.3-.123.435-.177-.23-.045-.633-.109-.808-.152-.175-.04-.15-.12-.04-.178.06-.033.066-.05-.017-.11a9.677 9.677 0 0 1-.543-.488c-.103-.097-.105-.161.024-.164.132 0 .653-.01.796-.02.122-.009.133-.016.07-.108-.088-.13-.074-.192.02-.162.104.034.547.178.69.222a2.804 2.804 0 0 1-.102-.347c-.02-.078.016-.139.14-.114.12.025.895.275 1.161.346l.313 1.202-1.237.726m2.092 7.055c-.15.23-.505.707-.568.815-.06.107-.013.158.067.165.08.008.215-.008.386-.032-.089.122-.612.629-.677.716-.065.089.215.037.3.017.069-.014.058 0 .039.12-.021.122-.197.614-.236.736-.04.125.044.173.173.108.136-.07.571-.372.677-.45.103-.071.115-.076.166.162.026.12.111.242.206.09.094-.151.416-.877.532-1.162-.016.139.025.345.035.464.012.128.102.14.172.022.07-.119.419-.526.631-.812l-.26-1.206-1.643.247m9.265 1.327c.174.213.552.744.637.836.083.09.149.062.178-.012.033-.073.072-.168.115-.317.09.12.307.433.37.522.076.102.12.126.153-.016.031-.14.042-.14.151-.083.11.056.485.318.591.393.107.077.201.043.177-.098a8.954 8.954 0 0 0-.149-.708c-.04-.123-.032-.103.093-.094.26.021.222-.07.103-.206-.115-.135-.409-.407-.569-.579.13.059.337.093.456.11.187.024.233-.03.108-.167-.092-.103-.474-.526-.685-.813l-1.527-.215-.202 1.447m3.504-8.25c.258-.096.979-.266 1.14-.297.115-.021.153-.081.046-.173a2.871 2.871 0 0 0-.29-.221c.145-.048.498-.196.602-.228.107-.035.02-.107-.055-.151-.089-.052-.089-.068-.008-.123.1-.07.59-.392.694-.47.106-.077.066-.126-.076-.147-.153-.023-.595 0-.726-.001-.131 0-.144-.009-.112-.128.047-.19.037-.242-.129-.173-.166.068-.487.258-.701.357.096-.104.155-.28.193-.394.064-.193.018-.202-.108-.147-.129.056-.673.215-1.014.325l-.7 1.376 1.244.595"/><path fill="#080808" fill-rule="nonzero" d="M46.864 50.532c-.153-.023-.595 0-.726-.001-.131 0-.144-.009-.112-.128.047-.188.037-.24-.129-.17-.166.067-.487.256-.701.353.096-.103.155-.277.193-.39.064-.193.018-.201-.108-.147-.104.046-.551.178-.899.284-.16-1.561-2.19-3.86-5.32-3.86-.152 0-.286.011-.406.03-.01-.334-.012-.973-.024-1.079-.014-.123-.082-.136-.15-.095-.07.04-.182.132-.308.228 0-.15.022-.458.022-.567 0-.17-.024-.184-.147-.082-.06.05-.11.007-.134-.058-.04-.11-.249-.648-.29-.77-.043-.122-.102-.098-.165.027a8.33 8.33 0 0 0-.27.68c-.052.152-.079.147-.177.072-.144-.115-.178-.063-.166.03.023.175.129.59.157.82-.07-.122-.224-.265-.304-.352-.087-.097-.15-.056-.152.08-.004.123-.02.49-.026.814a.674.674 0 0 0-.084-.006c-2.148 0-5.36 1.696-5.637 4.018-.312-.088-.977-.3-1.089-.323-.123-.024-.158.035-.139.113.019.078.048.201.102.345a78.594 78.594 0 0 1-.69-.22c-.094-.03-.108.032-.02.16.063.092.052.099-.07.107-.143.01-.664.02-.796.02-.129.003-.127.067-.024.164.11.106.437.407.543.484.083.06.078.076.016.11-.109.057-.134.136.041.176.175.043.577.107.808.15-.136.055-.319.128-.435.177-.119.049-.1.14.029.181.1.03.412.138.705.235-.27.482-.42 1.214-.42 2.2 0 2.7 1.045 4.583 2.629 4.944-.2.281-.47.651-.517.728-.06.107-.013.157.067.164.08.008.215-.008.386-.031-.089.12-.612.624-.677.711-.065.088.215.036.3.017.069-.015.058 0 .039.119-.021.12-.197.61-.236.731-.04.123.044.171.173.106.136-.068.571-.369.677-.446.103-.07.115-.076.166.161.026.12.111.24.206.09.094-.15.416-.872.532-1.154-.016.137.025.342.035.46.012.127.102.139.172.022.048-.083.238-.309.418-.535C34.29 61.472 36.02 62 37.817 62c2.344 0 3.315-.552 3.697-1.21.174.23.372.5.43.563.083.09.149.062.178-.012.033-.072.072-.167.115-.315.09.12.307.43.37.519.076.101.12.125.153-.016.031-.139.042-.139.151-.082.11.055.485.316.591.39.107.076.201.043.177-.097a8.84 8.84 0 0 0-.149-.703c-.04-.122-.032-.103.093-.094.26.021.222-.07.103-.205-.115-.133-.409-.404-.569-.574.13.058.337.092.456.108.187.025.233-.03.108-.165-.076-.084-.353-.39-.567-.656 1.331-.453 2.815-2.54 2.815-5.264 0-.91-.358-1.556-.83-1.958.311-.084.698-.174.812-.194.115-.021.153-.08.046-.172a2.869 2.869 0 0 0-.29-.22c.145-.047.498-.195.602-.227.107-.034.02-.105-.055-.15-.089-.051-.089-.067-.008-.121.1-.07.59-.39.694-.467.106-.076.066-.126-.076-.146zm-17.35.491c.18.069.807.275 1.273.438-.361.017-.663.188-.895.51a12.55 12.55 0 0 0-.568-.158c.074-.043.253-.139.355-.193.159-.083.168-.183-.128-.226-.13-.017-.673-.098-.673-.098l.17-.1a6.66 6.66 0 0 0-.693-.556c.179.01.687-.014.934-.036l-.105-.196c.105.036.48.159.58.205.101.047.19-.024.173-.101l-.075-.324c.104.046.553.227.922.306l-.002.09c0 .237.067.442.2.644-.509-.13-1.277-.284-1.409-.335-.182-.068-.324.03-.058.13zm3.798 9.688c-.018-.082-.043-.264-.06-.379-.029-.173-.207-.168-.274.038-.04.123-.46.971-.46.971l-.084-.3c-.199.137-.577.364-.813.532.083-.158.222-.671.263-.91l-.282.055c.064-.089.516-.563.592-.645.075-.078.03-.139-.07-.13-.08.008-.197.006-.363.008.065-.07.282-.349.474-.62.104.01.211.019.32.019.18 0 .451-.03.734-.164-.337.463-.83 1.166-.912 1.277-.115.154-.054.316.112.087.128-.173.743-.871 1.104-1.285-.08.356-.058.676.05.962a15.64 15.64 0 0 0-.33.484zm4.483-13.704c-.031-.515-.126-1.4-.128-1.551 0-.19-.146-.285-.143-.005.002.2-.01.939-.023 1.441-.228-.372-.473-.553-.776-.618-.005-.206-.016-.5-.025-.635.065.057.193.191.276.272.125.124.268.016.198-.188a9.555 9.555 0 0 1-.139-.683l.174.14c.056-.094.236-.542.333-.84.028.176.207.675.317.893l.178-.147c0 .11-.025.485-.04.594-.014.11.082.17.151.13.071-.041.157-.104.294-.218a6.38 6.38 0 0 0-.02.962c-.326.097-.51.269-.627.453zm5.647 13.036c-.084-.008-.269-.043-.384-.06-.178-.028-.227.14-.048.268.107.074.515.53.515.53l-.276-.032c.054.116.15.498.212.822-.13-.127-.565-.382-.78-.511l-.048.238a9.101 9.101 0 0 1-.33-.52c-.053-.096-.133-.096-.166-.024-.03.073-.093.204-.14.359a7.438 7.438 0 0 0-.372-.558c.127-.337.13-.688.104-.994.342.395.94 1.032 1.03 1.15.118.152.292.144.118-.079A86.27 86.27 0 0 1 42 59.436c.22.09.405.107.635.107.101 0 .205-.011.31-.034.144.158.4.418.497.534zm2.41-8.84l.229.147c-.104.032-.465.15-.574.17-.187.037-.135.1-.046.176.071.061.18.102.295.201-.096.02-.48.082-.828.174a2.034 2.034 0 0 0-.825-.318c.627-.26 1.226-.551 1.362-.599.182-.065.223-.231-.043-.133-.201.072-.838.275-1.472.482.296-.255.44-.576.443-.96.236-.075.618-.195.752-.246-.035.077-.088.234-.141.335-.093.177-.081.277.208.111.114-.065.603-.285.603-.285l-.014.242c.109.021.512-.014.83-.014-.162.08-.603.347-.778.517z"/><path fill="#E84D5B" fill-rule="nonzero" d="M39.326 56.548c.162.355 1.501 1.685 1.501 2.572 0 1.442-1.283 1.88-3.58 1.88-2.936 0-4.074-1.15-4.074-1.949 0-.725.803-1.773 1.52-2.536.311-.334-.156-.633-.36-.249-.224.423-1.28 2.255-2.345 2.255-2.137 0-2.988-2.986-2.988-5.273 0-1.248.431-2.044 1.382-2.044.454 0 1.483.587 3.006 1.04.436.131.726-.357.1-.425-1.422-.157-3.12-.832-3.12-1.759 0-2.153 4.044-4.06 5.328-4.06 1.25 0 1.377 1.817 1.223 3.995-.028.401.47.392.456-.02-.057-.536-.104-1.948-.176-2.555-.064-.544.293-1.176 1.288-1.176 2.342 0 5.088 2.42 5.088 3.734 0 .834-1.43 1.617-3.186 1.936-.471.085-.166.582.218.39.56-.278 1.845-.786 2.687-.786.792 0 1.706.656 1.706 1.97 0 3.01-1.714 5.25-2.862 5.25-1.037 0-1.854-1.33-2.46-2.398-.16-.284-.512-.143-.352.208"/><path fill="#080808" fill-rule="nonzero" d="M37.43 50.223c-.013-.19-.152-1.422-.152-1.729 0-.92.275-1.35.963-1.35.699 0 1.424 1.086 2.108 1.086a.593.593 0 0 0 .426-.192c.07-.083.22-.015.186.097-.038.118-.05.279-.05.436 0 .927 1.815.84 1.815 1.675 0 1.125-1.963 1.574-2.619 1.566-.369-.003-.21-.12-.059-.12 1.133-.006 2.456-.768 2.456-1.378 0-.801-2.206-.673-1.742-2.061-1.007.695-1.654-.848-2.493-.848-.466 0-.752.272-.752 1.071 0 .283.042 1.464.062 1.744.02.28-.137.192-.15.003m-4.135 1.545c-.355-.172-1.45-.332-1.759-.426-1.087-.331-1.176-.885-1.05-1.268.192-.576 1.568-.935 1.772-1.558a.478.478 0 0 0-.066-.437c-.07-.093.044-.213.136-.153.077.046.321.154.45.193.886.259 1.491-1.353 2.336-1.09 1.297.404.625 2.548.646 3.088.007.213-.155.277-.174.046-.043-.524.568-2.562-.58-2.899-.813-.24-1.248 1.766-2.597.89.294 1.093-1.396 1.27-1.627 1.968-.141.425.197.84.87 1.046.287.085 1.49.343 1.71.502.108.08.172.215-.067.098m.204 4.216c-.147.223-.684 1.238-.876 1.486-.569.738-1.385.831-1.883.49-.487-.331-.523-1.737-.98-2.047a.628.628 0 0 0-.478-.086c-.113.024-.209-.1-.102-.166.09-.056.272-.232.338-.337.475-.748-.98-1.7-.361-2.472.662-.833 2.625-.016 3.364.491.191.13.203.299-.008.169-1.097-.668-2.634-1.124-3.12-.493-.502.647 1.292 1.778.048 2.646 1.198-.005.858 1.634 1.485 2.062.353.242 1.04.16 1.476-.302.2-.213.875-1.346.993-1.543.119-.197.25-.12.104.102m4.818 1.295c.131.181.853.992 1.078 1.214.64.628.611 1.29.201 1.651-.514.452-1.891-.093-2.474.338-.119.088-.195.3-.209.39-.03.176-.197.148-.223.05a2.148 2.148 0 0 0-.238-.406c-.545-.704-2.061.111-2.643-.526-.7-.771.364-2.168.928-2.634.165-.137.342-.079.17.057-.991.783-1.277 1.932-.953 2.35.5.649 2.405-.494 2.819.929.46-1.176 1.938-.323 2.567-.753.351-.24.33-.76-.062-1.266-.175-.23-.985-1.148-1.093-1.305-.107-.158 0-.271.132-.09m2.313-4.11c.55-.053 1.252-.173 1.633-.352.862-.404 1.486-.134 1.658.47.16.546-.5 1.692-.317 2.292.043.136.236.292.33.315.094.025.09.203-.016.208a2.186 2.186 0 0 0-.483.087c-.878.28-.456 1.792-1.3 2.05-1.191.364-2.23-1.328-2.373-1.846-.085-.313.052-.275.113-.132.472 1.112 1.482 1.927 2.142 1.725.81-.247.144-2.015 1.692-2.03-.92-.724.193-1.919-.047-2.612-.157-.458-.601-.614-1.316-.341a4.97 4.97 0 0 1-1.72.3c-.259-.003-.361-.099.004-.134"/><path fill="#E84D5B" fill-rule="nonzero" d="M42.924 54.734c-.133-.091-2.341-.687-2.895-.792.512.076 2.18-.222 2.613-.44.12-.063.117-.233-.066-.182-.298.082-1.662.448-2.56.5.08-.249.133-.518.133-.803 0-.677-.328-1.322-.853-1.855a2.092 2.092 0 0 0-.219-.189c.76-.545 1.942-.903 2.222-.938.239-.03.288-.231.049-.226-.287.007-1.752.426-2.369 1.096l-.008-.004c.379-.517 1.418-2 1.61-2.178.221-.202.007-.302-.13-.21-.13.086-1.307 1.737-1.653 2.285a.027.027 0 0 1-.008-.005c.222-.514.414-1.976.332-2.409-.026-.129-.199-.177-.205.003-.009.27-.093 1.515-.269 2.336-.455-.21-1.025-.332-1.638-.332-.555 0-.99.15-1.364.384-.43-.841-.395-2.249-.337-2.544.042-.223-.144-.329-.212-.114-.088.275-.115 1.87.455 2.585-.27-.344-1.658-1.985-1.787-2.231-.137-.261-.303-.1-.252.05.049.15 1.465 1.856 1.846 2.25-.367-.347-1.902-1.031-2.387-1.094-.137-.017-.24.122-.06.182.31.106 1.808.658 2.487 1.092a4.94 4.94 0 0 0-.527.489c-.447.472-.649 1.098-.649 1.869 0 .175.02.348.056.52-1 .02-2.38-.616-2.636-.8-.193-.135-.348-.029-.174.124.222.196 1.72.931 2.653.77-.446.075-2.595.493-2.913.514-.306.022-.23.211-.062.235.161.026 2.41-.41 2.955-.556-.493.155-1.826 1.146-2.103 1.53-.078.105.01.256.147.132.244-.221 1.503-1.312 2.21-1.676.205.575.646 1.07 1.355 1.376a4.23 4.23 0 0 0 1.298.346c-.21.997-1.054 2.095-1.279 2.298-.175.157-.09.347.1.211.24-.174 1.257-1.45 1.241-2.345.005.428.105 2.526.056 2.797-.051.288.183.25.237.1.054-.149-.03-2.314-.094-2.845.08.483.898 1.89 1.25 2.21.1.091.27.033.162-.115-.338-.472-1.09-1.485-1.33-2.305.763-.033 1.815-.419 2.244-1.117.098-.16.198-.341.287-.54.838.481 1.638 1.538 1.769 1.794.103.206.321.187.242-.025-.1-.27-1.071-1.576-1.978-1.84.432.13 2.577.688 2.836.816.27.136.307-.088.172-.184"/><path d="M36.902 53.512c.315 0 .54.255.54.426 0 .257-.257.466-.484.466-.226 0-.482-.208-.482-.453 0-.237.22-.44.426-.44m-1.24-.285c.282 0 .408.306.408.46 0 .23-.248.45-.45.45-.205 0-.357-.217-.357-.436 0-.214.214-.474.398-.474m.296 1.222c.285 0 .426.224.426.38 0 .23-.17.42-.374.42-.205 0-.53-.138-.53-.36 0-.213.295-.44.478-.44m1.362.454c.284 0 .428.226.428.38 0 .233-.172.424-.375.424-.204 0-.433-.188-.433-.41 0-.212.197-.394.38-.394m.87-.797c.284 0 .425.227.425.382 0 .23-.17.421-.372.421-.206 0-.433-.187-.433-.409 0-.212.196-.394.38-.394m-.272-1.366c.285 0 .485.284.485.439 0 .231-.17.422-.373.422-.205 0-.434-.188-.434-.408 0-.214.14-.453.322-.453m1.373 0c.276 0 .413.219.413.371 0 .222-.166.41-.362.41-.199 0-.421-.183-.421-.397 0-.207.192-.384.37-.384m-1.022-1.114c.276 0 .414.218.414.37 0 .223-.167.41-.362.41-.2 0-.423-.184-.423-.398 0-.207.191-.382.371-.382m1.117 2.604c.276 0 .412.22.412.369 0 .224-.21.475-.407.475-.2 0-.376-.247-.376-.461 0-.208.191-.383.371-.383m-.906 1.239c.276 0 .57.186.57.333 0 .225-.307.527-.507.527-.194 0-.471-.101-.471-.304 0-.208.228-.556.408-.556m-1.85.396c.276 0 .602.313.602.463 0 .224-.247.373-.444.373-.198 0-.422-.182-.422-.396 0-.208.084-.44.263-.44m-1.393-.377c.275 0 .524.213.524.364 0 .225-.278.414-.474.414-.198 0-.421-.18-.421-.396 0-.207.192-.382.371-.382m-.78-1.255c.277 0 .415.219.415.368 0 .225-.165.41-.363.41-.2 0-.42-.18-.42-.396 0-.207.19-.382.369-.382m.153-1.546c.276 0 .414.218.414.369 0 .224-.243.475-.44.475-.2 0-.344-.248-.344-.461 0-.209.191-.383.37-.383m2.326-1.388c.275 0 .414.22.414.369 0 .223-.166.41-.363.41-.199 0-.42-.183-.42-.396 0-.208.19-.383.369-.383m-1.488.38c.277 0 .415.217.415.369 0 .224-.166.41-.363.41-.197 0-.42-.183-.42-.398 0-.207.19-.38.368-.38m1.157.697c.285 0 .426.226.426.38 0 .23-.171.423-.373.423-.205 0-.434-.188-.434-.408 0-.215.197-.395.381-.395" fill="#080808" fill-rule="nonzero"/><g fill-rule="nonzero"><path fill="#080808" d="M37.433 2.05c1.489 0 2.107.945 1.484 2.396.283 0 .408-.278.606-.859 1.053.396 1.216 1.581.345 2.296.54-.242.989-.209 1.304.027-.432.253-.566.471-.536.697.33-.22.611-.472 1.258-.472.667 0 1.353.428 1.353 1.462 0 1.596-1.02 1.742-2.326 1.452 0 .067.233.355.463.47-1.054.306-2.34.026-3.23-.48.502 1.583 2.993 2.227 4.868.736.754 1.918 3.816 2.196 5.183.578-1.285.57-2.688.249-3.346-.363.242-.074.686-.247.871-.484-1.037.012-1.506-.378-1.506-1.153 0-.764.827-1.613 1.785-1.613.696 0 1.028.462 1.276 1.024.13-.232.138-.754.082-1.18 1.22-.05 1.453.682 1.667 1.133.366-1.538 1.424-2.646 3.75-2.238-.394.38-.68.787-.906 1.264.289-.243.67-.559 1.465-.559 1.032 0 1.58.694 1.573 1.369-.007.725-.468 1.22-.816 1.464-.495-.827-1.146-.941-1.608-.941-1.338 0-1.917.566-2.07 1.007.41.754-.089 1.362-.954 1.275-.149.272-1.079 1.893-1.392 2.253.204.598.154 1.326-.305 1.983-.022.132-.11.774-.121.905.123.06.293.236.293.454 0 1.286-4.708 1.757-10.572 1.757-3.034 0-10.59-.333-10.59-1.689 0-.235.131-.378.32-.501-.029-.09-.077-.822-.1-.904-.417-.659-.432-1.351-.177-1.896-.313-.36-1.327-2.078-1.474-2.351-1.105.01-1.246-.712-.883-1.31-.478-.543-1.111-1.03-2.06-1.03-.671 0-1.155.132-1.612.799-.317-.233-.72-.577-.726-1.302-.009-.815.736-1.315 1.433-1.315.713 0 1.161.276 1.55.684-.147-.432-.568-1.091-.887-1.443 2.275-.38 3.302.792 3.668 2.33.214-.45.57-1.283 1.79-1.232-.08.426-.103.801.006 1.102.294-.427.571-.938 1.212-.938.877 0 1.84 1.023 1.84 1.76 0 .764-.55 1.098-1.702 1.027.187.237.487.407.86.494-.63.641-1.937.832-3.269.33 1.564 1.77 4.5 1.277 5.197-.535 1.652 1.5 4.46.864 5.001-.782-.982.632-2.233.743-3.286.54.2-.137.371-.36.426-.49-1.427.373-2.245-.041-2.245-1.424 0-.81.595-1.45 1.292-1.45.434 0 .9.163 1.293.449.03-.226-.074-.432-.505-.685.315-.235.716-.307 1.256-.065-.779-.646-.73-1.915.408-2.295.14.533.292.88.559.917-.615-1.541-.023-2.456 1.467-2.456"/><path fill="#E84D5B" d="M25.488 10.05c.191.301 1.478 2.297 1.645 2.512.55.101 1.463.228 1.757.292.348.073.49.622.173.801-.299.167-1.438 1.014-1.63 1.143.009.148.051.427.06.556 2.57-.914 5.943-1.244 9.932-1.244 4.832 0 7.677.536 9.855 1.278.027-.228.062-.383.087-.687a13.924 13.924 0 0 1-1.688-1.098c-.272-.219-.098-.708.152-.777.528-.146 1.313-.29 1.967-.416.062-.059 1.304-1.974 1.563-2.424.07-.216.383-.694.656-.834.5-1.078 1.614-1.504 3.256-1.259-.566-.383-1.434-.295-1.76-.214-.069.017-.219 0-.21-.145.2-.742.34-1.181.755-1.762-2.096-.108-2.791 1.52-2.853 2.529-.007.114-.256.208-.284.076-.142-.63-.468-1.408-1.25-1.533.007.476.022.84-.162 1.148-.11.187-.354.135-.393.055-.278-.574-.604-.942-.986-.942-.623 0-.928.347-.723.674.082.126-.052.195-.195.154-.31-.09-.577.043-.577.519 0 .58.531.866 1.353.778.2-.021.27.111.177.25-.086.129-.404.395-.622.52.184.141.686.317 1.488.317.69 0 1.371-.243 1.633-.47.118-.103.327-.022.224.25-.543 1.447-4.115 2.951-6.047.242-1.634 1.161-4.246.99-5.1-1.247-.096-.256.153-.517.448-.336a4.72 4.72 0 0 0 1.583.541c.26.035.699.087.99.019a2.583 2.583 0 0 1-.294-.492c-.055-.151.095-.23.275-.124.183.11.331.23.79.23.77 0 1.194-.58 1.194-.813 0-.318-.185-.387-.418-.423-.11-.018-.13-.154-.052-.188.24-.109.304-.243.304-.46 0-.274-.276-.555-.803-.555-.43 0-.828.21-1.107.35a.206.206 0 0 1-.264-.077c-.07-.16-.074-.427.185-.79-.34-.07-1.385.298-2.27 1.123-.14.132-.356-.167-.236-.238 1.188-.703 1.964-1.436 1.964-2.048a.86.86 0 0 0-.374-.738c-.214.462-.6.729-.844.729-.11 0-.254-.078-.226-.167.05-.147.217-.712.217-1.09 0-.576-.386-1.038-.757-1.038-.273 0-.443.142-.504.307-.039.106-.2.096-.25 0-.117-.226-.267-.313-.497-.313-.4 0-.741.478-.741 1.035 0 .504.216 1.015.216 1.11 0 .09-.165.148-.275.148-.41 0-.69-.347-.785-.721-.22.092-.343.465-.343.755 0 .686.637 1.214 1.933 2.05.116.075-.045.345-.197.224-.97-.778-1.922-1.159-2.26-1.089.252.47.203.641.134.8-.043.072-.21.112-.284.074-.279-.14-.641-.345-.97-.345-.547 0-.863.319-.863.704 0 .066.08.255.3.334.066.024.03.142-.052.154a.393.393 0 0 0-.347.396c0 .396.385.748.95.744.458-.004.81-.086.99-.228.162-.125.284-.008.218.14a36.3 36.3 0 0 1-.282.566c.815.072 1.814-.113 2.567-.57.28-.17.463.124.429.297-.319 1.603-3.026 2.81-5.133 1.334-2.135 2.478-5.021 1.43-6.01-.285-.107-.185-.07-.475.197-.248.343.287.943.427 1.695.427.64 0 1.052-.035 1.403-.261a1.917 1.917 0 0 1-.69-.554c-.091-.137-.012-.311.187-.282 1.113.16 1.391-.286 1.389-.633-.006-.475-.245-.73-.61-.633-.202.054-.29-.067-.228-.153.229-.32-.055-.683-.584-.683-.38 0-.655.318-.964.78-.077.117-.327.074-.397-.044-.135-.23-.204-.603-.105-1.025-.71.114-1.184.825-1.347 1.555-.03.126-.317.043-.325-.08-.051-.834-.781-2.61-2.751-2.529.407.541.573.971.754 1.752.012.145-.19.173-.263.162-.443-.063-.946-.099-1.56.191 1.01-.162 2.268.128 3.049 1.249.234.104.636.55.648.93"/><path fill="#080808" d="M37.081 11.003c-.225.2-.77.593-1.062.789a.383.383 0 0 0-.175.317.434.434 0 0 0 .166.363c.24.184.735.572 1.042.828.197.163.532.133.69-.003.156-.135.87-.613 1.066-.732a.378.378 0 0 0 .184-.326.42.42 0 0 0-.182-.372c-.19-.128-.81-.626-.986-.823a.506.506 0 0 0-.354-.153c-.074-.004-.259 0-.389.112m-6.138 2.25c-.04-.178-.104-.606-.12-.75a.74.74 0 0 0 .338-.433c.463-.05 1.477-.194 1.886-.257a.828.828 0 0 0 .53.29c.069.21.122.669.13.833a1.17 1.17 0 0 0-.373.438c-1.048.11-1.76.2-1.95.23-.081-.186-.207-.288-.441-.351m5.97-5.432c0-.334.242-.623.56-.623.349 0 .52.273.52.608 0 .541-.247.658-.555.658-.358 0-.525-.32-.525-.643m6.908 5.414c.04-.178.104-.604.118-.747a.74.74 0 0 1-.335-.434 62.381 62.381 0 0 1-1.888-.259.827.827 0 0 1-.53.291c-.068.21-.122.668-.13.832.174.116.306.3.374.44 1.047.11 1.76.2 1.949.23.081-.187.207-.29.442-.353"/><path fill="#080808" d="M37.279 11.196c.031-.028.176-.04.223.013.206.229.858.748 1.05.878.056.037.049.166.015.187-.202.12-.933.608-1.115.765-.027.025-.155.043-.21-.001a38.042 38.042 0 0 0-1.054-.837c-.05-.037-.058-.158-.008-.19a14.18 14.18 0 0 0 1.099-.815m-10.01 3.185c.033.028.104.03.196-.03.406-.29 1.045-.792 1.394-.991.047-.02.012-.2-.069-.205-.113-.008-1.073-.186-1.54-.26-.084-.008-.146.01-.16.072-.2.388-.162.999.178 1.414M47.7 12.829c-.022-.043-.09-.052-.206-.039-.541.061-1.428.29-1.541.317-.076.018-.105.213-.04.24.38.216 1.062.731 1.428.91.052.026.086.013.116-.009.35-.184.432-1.116.243-1.419m-16.464.269a.31.31 0 0 1 .201.152c.392-.06 1.273-.154 1.702-.198a.491.491 0 0 1 .175-.183 3.088 3.088 0 0 0-.099-.634.406.406 0 0 1-.22-.131c-.467.07-1.255.185-1.708.234a.33.33 0 0 1-.15.178c.015.127.06.407.099.582m12.207-.002a.318.318 0 0 0-.202.151 50.574 50.574 0 0 0-1.702-.198.477.477 0 0 0-.175-.181 3.11 3.11 0 0 1 .1-.636.389.389 0 0 0 .22-.131c.466.07 1.253.185 1.707.235a.33.33 0 0 0 .149.177 6.302 6.302 0 0 1-.097.583M33.55 7.564c.288-.042 2.496.011 2.707.033.21.024.188.248.058.239-.306-.02-2.481-.16-2.698-.143-.203.014-.212-.108-.067-.13m4.101-.967c-.008.102-.337.123-.326-.025a132 132 0 0 0 .075-2.718c-.005-.24.161-.249.175-.013.016.252.087 2.608.076 2.756m1.008.976c.144-.031 2.437.053 2.698.05.14 0 .16.136.013.144-.306.016-2.372.006-2.655.057-.21.04-.257-.208-.056-.25m-10.167.948c-.102.073-2.422.796-2.562.875-.106.06-.191-.151-.142-.184.08-.054 2.57-.763 2.65-.799.079-.038.147.04.054.108m21.33.133c.052-.66.635-1.704.902-2.029.066-.08.207-.071.134.032-.357.498-.684 1.417-.802 1.886-.025.1-.245.232-.235.11m-3.446-.132c.1.073 2.27.765 2.41.845.104.06.19-.152.141-.185-.08-.055-2.418-.732-2.498-.768-.08-.038-.148.04-.053.108m-9.018 8.865c4.417.032 9.93-.426 9.93-1.34 0-.595-4.544-1.556-9.891-1.556-5.422 0-9.83.956-9.83 1.56 0 .54 4.66 1.298 9.791 1.336"/><path fill="#080808" d="M37.357 17.386c4.417.032 9.93-.426 9.93-1.34 0-.595-4.544-1.556-9.891-1.556-5.422 0-9.83.956-9.83 1.56 0 .54 4.66 1.298 9.791 1.336M25.045 8.654c-.054-.66-.576-1.795-1-2.075-.088-.058-.223-.06-.132.032.4.405.78 1.463.898 1.932.025.1.244.232.234.11"/><path fill="#080808" d="M37.396 14.877c5.84.045 8.85.732 8.846 1.16-.003.282-.597.417-.674.429-.12.02-.195-.162-.08-.204.154-.056.264-.116.264-.198 0-.31-2.79-.852-8.357-.893-4.703-.037-8.176.593-8.179.949-.001.074.055.071.195.11.08.024.077.18-.014.178-.283 0-.69-.119-.69-.285.006-.68 4.708-1.275 8.689-1.246M23.092 7.419c-.449-.746-1.028-.872-1.479-.87-.658.006-1.159.5-1.159 1.076 0 .307.118.559.254.672.279-.363.816-1.023 2.384-.878m31.091.9c.165-.135.26-.467.26-.742 0-.6-.497-1.038-1.198-1.044-.711-.004-1.085.231-1.517.815 1.628-.11 2.096.462 2.455.971"/></g><g fill-rule="nonzero"><path fill="#080808" d="M50.977 41.715c-.102-3.059-1.169-15.74-1.228-20.31-.004-.332-.052-.34-.303-.309-.143.02-.41.047-.786.083 0 0 .018-.399 0-.525-.018-.127-.018-.146-.179-.127-.129.016-.392.029-.707.053 0-.355.003-.7.011-1.034-.638.206-1.851.287-2.411.287-2.242 0-3.503-.707-5.26-.707-.776 0-1.605.092-2.44.408-.249.095-.404.032-.575-.048-.171-.078-.869-.36-1.94-.36-1.733 0-4.116.779-6.14.779-1.115 0-2.025-.29-2.495-.554-.008.244-.021.53-.036.85-.26-.024-.565-.053-.664-.053-.153 0-.157-.001-.157.18 0 .16-.015.304-.027.528-.135 0-.659-.04-.792-.063-.172-.029-.202-.01-.202.295 0 .227-1.487 20.573-1.487 21.007 0 .568.048.743.661.544 1.164-.377 6.809-2.141 11.273-1.613-.382 1.477 4.76 1.496 4.554.037 4.073-.578 10.356 1.324 10.804 1.395.446.071.544-.146.526-.743"/><path fill="#080808" d="M36.657 40.49c-.588-.251-1.5-.504-3.863-.504-3.838 0-6.519 1.23-8.462.953-.124-.017-.186-.036-.18-.18.312-6.098 1.065-14.78 1.47-19.536-.13 0-.447-.035-.517-.035-.073 0-.12 0-.12.084s-1.458 20.358-1.47 20.574c-.011.217.043.313.208.275.167-.037 4.743-1.55 9.011-1.55.852 0 2.566.132 2.673.146.106.011.059.07.046.154-.157 1.13 4.066.948 3.832.11-.025-.086-.049-.205.093-.229a15 15 0 0 1 2.306-.18c3.341 0 8.331 1.178 8.52 1.228.19.046.213-.12.213-.275 0-.157-1.089-19.774-1.089-19.893 0-.121.047-.194-.06-.18a6.535 6.535 0 0 1-.475.013c-.063 3.678.996 19.134.996 19.254 0 .121-.036.126-.13.145-.277.058-.73.093-1.223.093-1.665 0-4.61-.948-7.307-.948-1.217 0-2.536.343-3.053.55-.545.217-.861.172-1.42-.07"/><path fill="#E84D5B" d="M37.117 20.28a.36.36 0 0 0-.125-.26c-.229-.19-.786-.541-1.662-.541-2.143 0-4.205.933-6.345.933-.808 0-1.388-.14-1.99-.27-.064 1.093-1.102 17.397-1.264 19.266 1.763.334 3.635-.915 7.456-.915 2.274 0 3.772.75 4.015.882.218.115.3.115.557-.022.649-.345 2.235-.824 4.052-.824 2.554 0 4.941 1.247 6.394.87.137-6.236-1.01-14.076-.994-19.19-.307.042-1.284.137-1.724.137-2.22 0-3.568-.852-5.524-.852-1.154 0-1.914.418-2.167.605-.086.064-.093.09-.096.22-.04 3.958-.038 14.71-.194 18.44-.01.23-.353.17-.353.009.13-4.22-.07-14.91-.036-18.488"/><path fill="#080808" d="M48.333 21.021c-.003-.073-.036-.108-.107-.096-.049.008-.263.01-.45.014.044 6.01 1.067 14.521.888 19.035-1.667.32-4.038-.824-6.995-.824-2.683 0-3.862.552-3.983.612-.121.062-.294.046-.455-.02-.63-.264-2.095-.61-4.09-.61-4.301 0-5.53.965-7.83.817.317-5.334.947-15.06 1.16-19.397a2.903 2.903 0 0 0-.288-.025c-.142 0-.133.025-.142.132-.465 5.356-1.039 13.636-1.448 19.711-.01.143-.023.143.07.157 2.38.3 4.389-.903 8.095-.903 1.942 0 3.224.23 4.237.65.375.155.619.148 1.018-.036.905-.42 2.025-.565 3.068-.565 3.515 0 6.333 1.23 8.239.939.098-.015.095-.083.095-.168 0-.083-.99-16.405-1.082-19.423"/><path fill="#080808" d="M28.09 32.33c-.219-.009-.337-.146-.472-.154-.136-.009-.347.026-.406.137-.051.171-.17.12-.17-.034 0-.155.11-4.79.103-4.943-.018-.386-.051-.48-.388-.378-.06.018-.11-.155.015-.205.069-.035.905-.318.98-.318.06 0 .068.052.068.129 0 .095 0 .257-.008.471a2.63 2.63 0 0 1 .54-.574c.093-.078.17-.137.288-.068.423.257.996 1.14.945 3.032-.015.617-.853 2.94-1.494 2.906zm.177-5.32c-.169 0-.32.197-.465.462a100.82 100.82 0 0 1-.176 4.224c.405.094.38.274.482.283.075 0 .11-.009.169-.052.43-.334.659-1.208.674-1.756.051-1.92-.396-3.161-.684-3.161zm2.214 5.046c-.033.17-.262.128-.262-.026s-.075-2.58-.1-2.733c-.043-.282-.204-.326-.406-.36-.068-.008-.102-.145.017-.205.067-.035.912-.36.987-.36.06 0 .069.052.069.128.007.471-.11 2.639-.305 3.556zm.017-4.275c-.085.214-.254.111-.262.026-.008-.077-.118-.404-.143-.481-.034-.101-.136-.223-.178-.223-.043 0-.1-.05-.016-.12.041-.033.531-.222.675-.256.05-.017.094.034.076.086-.008.052-.118.866-.152.968zm1.335 4.224a1.22 1.22 0 0 1-.887-.42c-.043-.052-.084-.086-.025-.12.059-.034.286-.43.33-.48.033-.05.058 0 .074.043.11.316.322.686.618.686.186 0 .422-.3.422-.627 0-.435-1.275-.427-1.275-1.566 0-.327.1-.79.777-1.242.092-.07.126-.078.16-.036.016.026.397.344.618.489.074.052.11.042.085.094a1.084 1.084 0 0 1-.238.282c-.051.044-.16.044-.204.026a1.752 1.752 0 0 1-.514-.445c-.017-.026-.035-.035-.05-.017-.17.146-.195.316-.195.54 0 .59 1.232.65 1.232 1.414 0 .531-.345 1.379-.928 1.379zm2.104-.01c-.676 0-.988-.804-.988-1.653 0-.762.599-1.473.946-1.85.084-.094.143-.12.176-.078.018.026.365.446.559.6.024.027.21-.009.16.094a1.245 1.245 0 0 1-.279.334c-.075.062-.228.079-.287.026a1.483 1.483 0 0 1-.372-.453c-.017-.027-.041-.034-.051-.018-.185.248-.269.59-.269.909 0 1.122.32 1.593.734 1.593.236 0 .346-.215.482-.412.051-.077.092.009.059.078-.246.487-.38.83-.87.83zm1.907 0c-.674 0-.986-.804-.986-1.653 0-.762.465-1.473.81-1.85.084-.094.254-.094.304-.078.17.061.803.6.803 1.028 0 .164-.93.96-1.309 1.218.11.599.372.865.684.865.33 0 .532-.163.685-.386.05-.077.1.018.066.078-.27.505-.565.779-1.057.779zm-.092-3.11c-.05-.041-.084-.016-.101.018-.17.29-.244.677-.244 1.028 0 .19.008.36.025.514.254-.213.701-.676.701-.985 0-.196-.21-.437-.381-.574zm3.624 3.377c-.22 0-.345-.138-.481-.138-.135 0-.322-.008-.396.078-.026.077-.171.162-.171-.026 0-.154-.023-4.712-.033-4.866-.016-.317-.118-.412-.397-.36-.068.008-.135-.103-.017-.163.069-.034.837-.369.912-.369.136 0 .16.07.16.146v.368c.136-.205.297-.376.525-.573.092-.087.17-.13.286-.06.626.35 1.065 1.2 1.065 3.178 0 .84-.81 2.785-1.453 2.785zm-.016-5.356c-.16 0-.288.189-.398.42 0 1.054-.016 2.888-.075 4.26.405.066.405.307.507.307.075 0 .101-.008.16-.06.457-.385.616-1.293.616-1.979 0-2.236-.481-2.948-.81-2.948zm2.652 5.09c-.54 0-.954-.857-.954-1.732 0-.915.683-1.866 1.191-1.866.592 0 .98.933.98 1.723 0 .753-.676 1.875-1.217 1.875zm-.076-3.152c-.236 0-.38.401-.38.736 0 1.165.49 1.91.718 1.91.313 0 .448-.351.448-.72 0-1.019-.465-1.926-.786-1.926zm2.56 3.152c-.625 0-.988-.9-.988-1.654 0-.762.464-1.49.904-1.858.169-.138.185-.147.287-.034.017.025.287.41.481.565.025.026.178.042.127.145-.043.094-.16.223-.253.3-.076.06-.22.068-.288.026-.177-.103-.286-.378-.404-.549-.018-.026-.036-.026-.051-.017-.194.147-.279.437-.279.79 0 1.12.38 1.78.793 1.78.237 0 .39-.17.517-.359.059-.086.117.034.075.102-.237.378-.431.763-.92.763zm2.053 0c-.624 0-1.081-.754-1.081-1.525 0-.831.447-1.594.963-2.03.092-.078.211-.043.261-.027.322.112.82.806.82 1.26 0 .163-1.014.72-1.428.908.136.591.465.892.777.892a.788.788 0 0 0 .676-.387c.051-.077.11.06.068.121-.304.444-.566.788-1.056.788zm-.092-3.067c-.051-.043-.085-.026-.11 0-.238.213-.33.651-.33 1.002 0 .171.018.325.033.463.305-.145.752-.446.752-.712a.914.914 0 0 0-.345-.753z"/></g></g></svg>