<svg xmlns="http://www.w3.org/2000/svg" width="106" height="56" viewBox="0 0 106 56">
  <path fill="#FFFFFF" fill-rule="evenodd" d="M42.843857,29.2485748 C41.5923474,27.857868 39.9779221,26.7448653 38.0181769,25.9817259 C40.2462598,24.8927763 41.8210943,23.418977 42.843857,21.5996876 L42.843857,29.2485748 Z M74.4219285,34.2057009 L64.6891872,0 L42.843857,0 L42.843857,9.16641937 C39.995518,3.67137837 33.1199137,0.378289731 23.5323387,0.378289731 C12.2643537,0.378289731 2.21928496,5.63498633 1.68260951,17.9807888 L16.0958645,17.9807888 C16.5555579,14.1694651 19.3159172,12.2670832 23.0726454,12.2670832 C26.2135165,12.2670832 29.3543876,13.5593909 29.3543876,17.0689574 C29.3543876,22.0938696 24.0668147,22.5486919 19.8525927,22.5486919 L19.8525927,31.9272159 C23.681904,31.9272159 29.8140809,32.4585709 29.8140809,37.872706 C29.8140809,40.9952362 27.3594505,44.1177665 22.6877347,44.1177665 C17.7080904,44.1177665 15.0247131,41.1417415 15.0247131,36.193362 L0,36.193362 C0,49.3766497 9.27304795,56 21.8431307,56 C31.6308593,56 39.0211441,53.0392815 42.843857,47.3146427 L42.843857,54.8629442 L59.0958853,54.8629442 L59.0958853,36.2742679 C59.0958853,31.8506833 58.4800282,24.4598204 57.9433528,19.6579461 L58.0995165,19.6579461 L68.1379868,54.8629442 L80.7080696,54.8629442 L90.74654,19.6579461 L90.9027037,19.6579461 C90.216463,25.9817259 89.7523707,31.9272159 89.7523707,38.0957439 L89.7523707,54.8629442 L106,54.8629442 L106,0 L84.1590687,0 L74.4219285,34.2057009 Z"/>
</svg>
