<svg xmlns="http://www.w3.org/2000/svg" width="165" height="60" viewBox="0 0 165 60">
  <path fill="#FFFFFF" fill-rule="evenodd" d="M12.95,1.351 L32.053,1.351 L43.787,41.056 L43.949,41.056 L51.986,1.351 L66.426,1.351 L54.293,58.609 L35.254,58.609 L23.283,18.989 L23.121,18.989 L15.158,58.609 L0.72,58.609 L12.95,1.351 Z M161.233,14.313 C158.28,12.923 154.262,11.695 148.604,11.695 C142.539,11.695 137.614,12.589 137.614,17.19 C137.614,25.303 159.843,22.275 159.843,39.667 C159.843,55.495 145.157,59.599 131.872,59.599 C125.967,59.599 119.157,58.199 114.157,56.636 L117.767,44.989 C120.795,46.961 126.872,48.275 131.872,48.275 C136.634,48.275 144.09,47.37 144.09,41.466 C144.09,32.275 121.861,35.723 121.861,19.571 C121.861,4.798 134.824,0.37 147.376,0.37 C154.434,0.37 161.072,1.113 164.929,2.913 L161.233,14.313 Z M72.081,1.351 L87.414,1.351 L82.911,23.256 L101.034,23.256 L105.548,1.351 L120.881,1.351 L108.986,58.609 L93.654,58.609 L98.739,34.085 L80.605,34.085 L75.52,58.609 L60.186,58.609 L72.081,1.351 Z"/>
</svg>
