<svg xmlns="http://www.w3.org/2000/svg" width="177" height="75" viewBox="0 0 177 75">
  <g fill="none">
    <polygon fill="#080808" points=".593 55.009 176.244 55.009 176.244 .464 .593 .464"/>
    <path fill="#E84D5B" d="M113.241,39.451 C115.665,40.444 116.747,41.523 116.747,43.15 C116.747,45.347 114.76,47.04 112.199,47.04 C109.704,47.04 107.719,45.498 107.719,43.573 C107.719,42.091 108.872,40.886 111.114,40.061 C108.943,39.171 107.903,38.138 107.903,36.702 C107.903,34.841 109.822,33.277 112.131,33.277 C114.439,33.277 116.286,34.628 116.286,36.32 C116.286,37.672 115.273,38.711 113.241,39.451 Z M111.578,40.273 C110.004,41.054 109.059,42.157 109.059,43.531 C109.059,45.329 110.467,46.508 112.223,46.508 C113.955,46.508 115.384,45.392 115.384,43.742 C115.384,42.326 114.255,41.391 111.578,40.273 Z M112.107,33.811 C110.514,33.811 109.151,34.714 109.151,36.045 C109.151,37.209 109.804,38.012 112.807,39.171 C114.1,38.433 115.015,37.506 115.015,36.301 C115.015,34.777 113.723,33.811 112.107,33.811 Z M126.439,43.029 L126.439,42.539 L133.14,33.408 L133.764,33.408 L133.764,41.97 L135.499,41.97 L135.499,43.029 L133.764,43.029 L133.764,46.827 L132.274,46.827 L132.274,43.029 L126.439,43.029 Z M132.274,35.461 L127.528,41.97 L132.274,41.97 L132.274,35.461 Z M101.115,46.827 L101.115,46.319 C103.11,46.319 103.205,45.976 103.205,44.939 L103.208,44.939 L103.208,35.099 C102.497,35.69 101.257,36.473 100.431,36.835 L100.254,36.538 C101.542,35.714 103.387,34.126 103.918,33.408 L104.695,33.408 L104.695,44.653 C104.721,46.011 104.979,46.271 106.969,46.319 L106.969,46.827 L101.115,46.827 Z M126.215,43.889 L125.818,43.889 C125.531,45.166 125.159,45.503 124.112,45.524 L119.121,45.524 C121.754,43.21 125.802,40.191 125.802,36.994 C125.802,34.873 124.186,33.277 121.983,33.277 C119.711,33.277 117.99,34.915 117.74,37.309 L118.074,37.309 C118.556,35.606 119.882,34.472 121.372,34.472 C122.949,34.472 124.146,35.714 124.146,37.29 C124.146,41.06 118.008,45.698 117.466,46.227 L117.466,46.827 L125.815,46.827 L125.818,46.829 L125.818,46.827 L125.823,46.827 L125.999,45.524 L125.997,45.524 L126.215,43.889 Z M113.299,17.21 C112.957,15.016 112.283,14.863 111.344,14.863 L105.403,14.863 L105.403,21.338 L110.054,21.338 C111.012,21.338 111.465,21.216 111.596,19.673 L112.102,19.673 L112.102,24.132 L111.596,24.132 C111.383,22.245 110.878,22.361 109.785,22.361 L105.403,22.361 L105.403,28.025 C105.403,29.249 105.966,29.486 106.948,29.486 L110.933,29.486 C112.762,29.486 113.365,29.094 114.005,26.854 L114.489,26.854 L114.073,30.443 L100.92,30.443 L100.92,29.936 C103.05,29.885 103.197,29.591 103.197,27.97 L103.208,16.373 C103.208,14.75 103.057,14.458 100.931,14.407 L100.931,13.901 L113.578,13.907 L113.786,17.21 L113.299,17.21 Z M124.975,16.669 L136.264,16.669 L136.588,19.666 L136.196,19.666 C135.87,17.747 135.467,17.499 134.596,17.499 L131.566,17.499 L131.566,28.395 C131.566,29.57 131.961,29.986 133.288,29.986 L133.788,29.986 L133.788,30.444 L127.452,30.444 L127.452,29.986 L127.95,29.986 C129.277,29.986 129.671,29.57 129.671,28.395 L129.671,17.499 L126.644,17.499 C125.773,17.499 125.383,17.738 125.055,19.669 L124.662,19.669 L124.975,16.669 Z M116.992,19.005 C116.992,17.773 118.095,17.028 119.677,17.028 C121.33,17.028 122.864,18.081 123.536,19.666 L123.92,19.666 L123.604,17.31 C122.78,16.934 121.014,16.386 119.461,16.386 C117.016,16.386 115.242,17.975 115.242,19.803 C115.242,23.655 122.888,24.513 122.888,27.68 C122.888,29.418 121.188,30.163 119.582,30.163 C117.708,30.163 115.989,29.023 115.479,26.854 L115.058,26.854 L115.544,30.131 C116.784,30.476 118.471,30.87 119.798,30.87 C122.601,30.87 124.641,29.063 124.641,26.904 C124.641,22.853 116.992,22.13 116.992,19.005 Z"/>
    <path fill="#E84D5B" d="M155.937,22.937 C155.324,22.937 154.921,22.965 154.281,22.885 L154.281,14.338 C154.763,14.286 155.113,14.286 155.616,14.286 C159.735,14.286 160.859,16.097 160.859,18.584 C160.859,21.793 158.906,22.937 155.937,22.937 Z M74.841,13.507 C77.631,13.507 79.682,14.443 80.923,14.975 L81.129,18.268 L80.621,18.268 C79.746,15.794 77.9,14.174 74.999,14.174 C70.559,14.174 68.345,17.607 68.345,22.077 C68.345,26.888 71.251,30.139 75.294,30.139 C76.505,30.139 79.533,29.333 81.342,26.115 L81.845,26.115 L80.574,29.236 C78.989,29.991 77.713,30.87 74.576,30.87 C69.177,30.87 65.955,27.308 65.955,22.389 C65.955,17.23 69.282,13.507 74.841,13.507 Z M100.528,29.936 L100.528,30.44 L93.949,30.44 L93.949,29.936 C95.956,29.886 96.201,29.622 96.222,28.228 L96.222,22.362 L86.458,22.362 L86.458,27.967 L86.462,27.967 C86.462,29.589 86.612,29.881 88.737,29.934 L88.737,30.439 L82.16,30.439 L82.16,29.934 C84.154,29.934 84.248,29.589 84.248,28.552 L84.251,28.552 L84.251,15.794 L84.246,15.791 C84.246,14.754 84.151,14.411 82.157,14.411 L82.157,13.904 L88.736,13.904 L88.736,14.411 C86.61,14.462 86.459,14.754 86.459,16.377 L86.454,16.376 L86.449,21.338 L96.214,21.338 L96.219,16.148 C96.201,14.731 95.964,14.459 93.945,14.412 L93.945,13.907 L100.523,13.907 L100.523,14.412 C98.53,14.412 98.433,14.756 98.433,15.794 L98.426,15.794 L98.426,28.552 L98.437,28.554 C98.437,29.59 98.532,29.936 100.528,29.936 Z M60.231,13.907 L60.231,14.412 C62.357,14.465 62.506,14.757 62.506,16.381 L62.506,26.962 L51.397,13.907 L47.42,13.907 L47.42,14.412 C48.349,14.438 48.844,14.649 49.455,15.077 L49.455,28.157 C49.455,29.167 49.067,29.886 48.175,29.886 C47.465,29.886 47.135,29.103 46.748,28.263 L40.561,13.907 L38.673,13.907 L32.961,27.308 C31.94,29.531 31.756,29.891 31.206,29.891 C30.516,29.891 30.271,29.277 30.156,27.491 L29.344,15.791 C29.344,14.754 29.658,14.411 31.653,14.411 L31.653,13.904 L27.169,13.905 L21.326,27.334 L15.449,13.907 L10.79,13.907 L10.79,14.412 C12.786,14.412 13.102,14.756 13.102,15.794 L12.393,27.094 C12.259,29.512 12.022,29.939 10.077,29.939 L10.077,30.443 L15.611,30.443 L15.611,29.939 C14.413,29.885 13.403,29.594 13.482,28.239 L14.2,16.273 L14.256,16.273 L20.502,30.443 L21.112,30.443 L27.177,16.273 L27.231,16.273 L28.001,28.183 C28.109,29.594 26.884,29.939 25.636,29.939 L25.636,30.443 L35.9,30.443 L35.9,29.939 L35.804,29.939 C34.342,29.939 33.651,29.675 33.651,28.956 C33.651,28.584 33.998,27.786 34.183,27.279 L35.659,23.784 L42.587,23.784 L44.329,27.945 C44.435,28.211 44.622,28.61 44.622,29.033 C44.622,29.778 44.064,29.939 42.548,29.939 L42.185,29.939 L42.185,30.443 L53.006,30.443 L53.006,29.939 C50.744,29.939 50.652,29.542 50.652,27.627 L50.652,16.22 L63.011,30.63 L63.702,30.63 L63.702,15.794 C63.702,14.757 63.798,14.412 65.795,14.412 L65.795,13.907 L60.231,13.907 Z M36.092,22.761 L39.14,15.542 L42.159,22.761 L36.092,22.761 Z M148.586,17.21 L148.375,13.907 L135.73,13.901 L135.73,14.407 C137.857,14.458 138.004,14.75 138.004,16.373 L137.997,27.97 C137.997,29.591 137.846,29.885 135.72,29.936 L135.72,30.443 L148.87,30.443 L149.289,26.854 L148.804,26.854 C148.162,29.094 147.564,29.486 145.732,29.486 L141.75,29.486 C140.763,29.486 140.202,29.249 140.202,28.025 L140.202,22.361 L144.588,22.361 C145.677,22.361 146.185,22.245 146.395,24.132 L146.901,24.132 L146.901,19.673 L146.395,19.673 C146.261,21.216 145.809,21.338 144.853,21.338 L140.202,21.338 L140.202,14.863 L146.14,14.863 C147.083,14.863 147.757,15.016 148.099,17.21 L148.586,17.21 Z"/>
    <g transform="translate(149 13)">
      <path fill="#E84D5B" d="M15.973,14.363 L13.862,12.342 C12.604,11.086 11.804,10.532 10.814,9.756 C13.01,9.114 14.373,7.429 14.373,5.426 C14.373,2.696 12.154,0.666 7.208,0.666 C5.469,0.666 4.934,0.691 3.839,0.747 C2.744,0.799 1.112,0.907 0.47,0.907 L0.47,1.415 L1.057,1.415 C2.607,1.415 3.065,1.895 3.065,3.554 L3.065,14.716 C3.065,16.507 2.502,16.936 0.925,16.936 L0.47,16.936 L0.47,17.443 L8.035,17.443 L8.035,16.936 L7.421,16.936 C5.921,16.936 5.281,16.536 5.281,14.931 L5.281,10.504 C5.71,10.532 6.058,10.556 6.645,10.556 C7.348,10.556 7.771,10.532 8.406,10.506 C10.443,11.673 12.036,13.466 12.98,14.363 C15.418,16.684 15.987,17.657 20.664,17.443 L20.664,16.936 C18.608,16.803 17.552,15.943 15.973,14.363 Z"/>
      <path fill="#080808" d="M6.937,9.937 C6.324,9.937 5.921,9.965 5.281,9.885 L5.281,1.338 C5.763,1.286 6.113,1.286 6.616,1.286 C10.735,1.286 11.859,3.097 11.859,5.584 C11.859,8.793 9.906,9.937 6.937,9.937 Z"/>
    </g>
    <polyline fill="#080808" points="4.561 62.126 4.561 71.044 3.453 71.044 3.453 62.126 .504 62.126 .504 61.192 7.525 61.192 7.525 62.126 4.561 62.126"/>
    <path fill="#080808" d="M13.509,71.044 L13.509,66.344 C13.509,65.205 13.202,64.549 12.151,64.549 C10.852,64.549 9.932,65.833 9.932,67.556 L9.932,71.044 L8.838,71.044 L8.838,60.389 L9.932,60.389 L9.932,63.936 C9.932,64.417 9.903,65.016 9.816,65.38 L9.845,65.395 C10.268,64.33 11.173,63.644 12.428,63.644 C14.092,63.644 14.603,64.695 14.603,65.979 L14.603,71.044 L13.509,71.044 Z M22.265,67.191 L17.42,67.191 C17.347,69.365 18.207,70.27 19.828,70.27 C20.587,70.27 21.389,70.08 21.929,69.803 L22.031,70.737 C21.36,71.015 20.543,71.175 19.638,71.175 C17.449,71.175 16.282,69.993 16.282,67.454 C16.282,65.278 17.449,63.659 19.463,63.659 C21.462,63.659 22.295,65.045 22.295,66.651 C22.295,66.782 22.295,66.972 22.265,67.191 Z M19.405,64.49 C18.383,64.49 17.653,65.234 17.478,66.373 L21.156,66.373 C21.185,65.25 20.514,64.49 19.405,64.49 Z M30.569,71.175 C27.519,71.175 26.935,69.468 26.935,67.774 L26.935,61.192 L28.059,61.192 L28.059,67.672 C28.059,69.088 28.526,70.255 30.657,70.255 C32.467,70.255 33.357,69.496 33.357,67.395 L33.357,61.192 L34.452,61.192 L34.452,67.307 C34.452,69.832 33.124,71.175 30.569,71.175 Z M41.268,71.044 L41.268,66.344 C41.268,65.205 40.961,64.549 39.91,64.549 C38.611,64.549 37.692,65.833 37.692,67.556 L37.692,71.044 L36.597,71.044 L36.597,63.79 L37.677,63.79 C37.677,64.256 37.634,64.957 37.56,65.395 L37.589,65.41 C37.998,64.359 38.918,63.644 40.187,63.644 C41.851,63.644 42.362,64.695 42.362,65.979 L42.362,71.044 L41.268,71.044 Z M44.989,62.476 C44.566,62.476 44.23,62.155 44.23,61.732 C44.23,61.323 44.566,60.987 44.989,60.987 C45.398,60.987 45.748,61.323 45.748,61.732 C45.748,62.155 45.398,62.476 44.989,62.476 Z M44.435,71.044 L45.529,71.044 L45.529,63.79 L44.435,63.79 L44.435,71.044 Z M50.593,71.044 L49.455,71.044 L46.711,63.79 L47.952,63.79 L49.645,68.519 C49.79,68.971 49.922,69.38 50.054,69.803 L50.068,69.803 C50.185,69.409 50.316,68.971 50.463,68.578 L52.199,63.79 L53.396,63.79 L50.593,71.044 Z M59.655,67.191 L54.81,67.191 C54.737,69.365 55.598,70.27 57.218,70.27 C57.976,70.27 58.779,70.08 59.319,69.803 L59.421,70.737 C58.75,71.015 57.933,71.175 57.028,71.175 C54.839,71.175 53.671,69.993 53.671,67.454 C53.671,65.278 54.839,63.659 56.852,63.659 C58.852,63.659 59.684,65.045 59.684,66.651 C59.684,66.782 59.684,66.972 59.655,67.191 Z M56.795,64.49 C55.773,64.49 55.043,65.234 54.868,66.373 L58.546,66.373 C58.575,65.25 57.904,64.49 56.795,64.49 Z M64.894,64.738 C63.288,64.476 62.53,65.701 62.53,68.139 L62.53,71.044 L61.436,71.044 L61.436,63.79 L62.516,63.79 C62.516,64.272 62.457,64.987 62.355,65.614 L62.37,65.629 C62.662,64.563 63.42,63.483 64.939,63.659 L64.894,64.738 Z M67.405,71.175 C66.865,71.175 66.31,71.117 65.872,71.029 L65.901,70.022 C66.368,70.153 66.952,70.255 67.521,70.255 C68.572,70.255 69.302,69.789 69.302,69.029 C69.302,67.278 65.77,68.373 65.77,65.789 C65.77,64.578 66.763,63.659 68.601,63.659 C69.054,63.659 69.565,63.732 70.017,63.819 L69.988,64.768 C69.507,64.607 68.98,64.52 68.485,64.52 C67.419,64.52 66.894,64.957 66.894,65.673 C66.894,67.409 70.44,66.417 70.44,68.883 C70.44,70.168 69.302,71.175 67.405,71.175 Z M73.433,61.732 C73.433,61.323 73.082,60.987 72.673,60.987 C72.25,60.987 71.914,61.323 71.914,61.732 C71.914,62.155 72.25,62.476 72.673,62.476 C73.082,62.476 73.433,62.155 73.433,61.732 Z M72.119,71.044 L73.213,71.044 L73.213,63.79 L72.119,63.79 L72.119,71.044 Z M77.738,71.16 C76.279,71.16 75.855,70.518 75.855,69.015 L75.855,64.651 L74.279,64.651 L74.279,63.79 L75.855,63.79 L75.855,61.382 L76.95,61.075 L76.95,63.79 L79.08,63.79 L79.08,64.651 L76.95,64.651 L76.95,68.562 C76.95,69.861 77.183,70.198 78.045,70.198 C78.409,70.198 78.789,70.153 79.08,70.066 L79.08,71.015 C78.701,71.102 78.19,71.16 77.738,71.16 Z M83.05,71.802 C82.204,74.036 81.562,74.78 79.971,74.78 C79.708,74.78 79.343,74.751 79.051,74.707 L79.168,73.7 C79.46,73.802 79.752,73.845 80.073,73.845 C80.948,73.845 81.387,73.437 81.956,71.905 L82.291,71.044 L79.518,63.79 L80.773,63.79 L82.291,67.949 C82.525,68.606 82.686,69.131 82.846,69.671 L82.861,69.671 C82.992,69.204 83.298,68.3 83.59,67.468 L84.889,63.79 L86.086,63.79 L83.05,71.802 Z M92.639,71.175 C90.698,71.175 89.443,69.993 89.443,67.454 C89.443,65.38 90.727,63.659 92.902,63.659 C94.668,63.659 96.113,64.636 96.113,67.293 C96.113,69.453 94.784,71.175 92.639,71.175 Z M92.8,64.563 C91.661,64.563 90.581,65.425 90.581,67.366 C90.581,69.22 91.384,70.241 92.8,70.241 C93.938,70.241 94.974,69.365 94.974,67.366 C94.974,65.614 94.245,64.563 92.8,64.563 Z M101.994,61.367 C101.629,61.25 101.235,61.207 100.855,61.207 C99.746,61.207 99.25,61.849 99.25,63.25 L99.25,63.79 L101.396,63.79 L101.396,64.651 L99.25,64.651 L99.25,71.044 L98.155,71.044 L98.155,64.651 L96.579,64.651 L96.579,63.79 L98.155,63.79 L98.155,63.279 C98.155,61.25 99.162,60.316 100.899,60.316 C101.307,60.316 101.701,60.36 102.096,60.448 L101.994,61.367 Z M115.187,71.044 L114.311,64.972 C114.136,63.775 114.063,63.046 114.005,62.506 L113.976,62.506 C113.874,62.914 113.727,63.483 113.494,64.154 L111.188,71.044 L109.918,71.044 L107.729,64.593 C107.481,63.877 107.218,63.104 107.101,62.506 L107.087,62.506 C107.044,63.294 106.941,64.081 106.824,65.089 L106.109,71.044 L104.956,71.044 L106.357,61.192 L107.773,61.192 L110.02,67.847 C110.268,68.562 110.473,69.22 110.575,69.759 L110.604,69.759 C110.75,69.088 110.896,68.65 111.144,67.949 L113.45,61.192 L114.91,61.192 L116.369,71.044 L115.187,71.044 Z M122.076,71.044 C122.076,70.489 122.076,69.934 122.149,69.511 L122.12,69.511 C121.77,70.43 120.835,71.175 119.595,71.175 C118.442,71.175 117.61,70.562 117.61,69.409 C117.61,67.891 119.186,66.84 122.018,66.84 L122.018,66.242 C122.018,65.147 121.623,64.534 120.368,64.534 C119.668,64.534 118.792,64.754 118.15,65.162 L118.048,64.199 C118.734,63.892 119.58,63.659 120.558,63.659 C122.558,63.659 123.127,64.651 123.127,66.023 L123.127,68.869 C123.127,69.584 123.127,70.402 123.156,71.044 L122.076,71.044 Z M122.018,67.643 C119.289,67.643 118.704,68.504 118.704,69.204 C118.704,69.861 119.172,70.285 119.887,70.285 C121.171,70.285 122.018,69.015 122.018,67.76 L122.018,67.643 Z M129.884,71.044 L129.884,66.344 C129.884,65.205 129.578,64.549 128.527,64.549 C127.228,64.549 126.309,65.833 126.309,67.556 L126.309,71.044 L125.214,71.044 L125.214,63.79 L126.294,63.79 C126.294,64.256 126.25,64.957 126.177,65.395 L126.207,65.41 C126.615,64.359 127.534,63.644 128.804,63.644 C130.468,63.644 130.979,64.695 130.979,65.979 L130.979,71.044 L129.884,71.044 Z M135.795,71.131 C134.175,71.131 132.657,70.416 132.657,67.672 C132.657,65.293 133.854,63.687 136.218,63.687 C136.817,63.687 137.416,63.775 137.926,63.936 L137.809,64.899 C137.328,64.709 136.758,64.578 136.145,64.578 C134.584,64.578 133.81,65.732 133.81,67.482 C133.81,68.971 134.277,70.198 136.029,70.198 C136.671,70.198 137.371,70.037 137.853,69.789 L137.955,70.737 C137.473,70.927 136.685,71.131 135.795,71.131 Z M144.143,71.044 L144.143,66.344 C144.143,65.205 143.836,64.549 142.786,64.549 C141.487,64.549 140.567,65.833 140.567,67.556 L140.567,71.044 L139.473,71.044 L139.473,60.389 L140.567,60.389 L140.567,63.936 C140.567,64.417 140.539,65.016 140.451,65.38 L140.48,65.395 C140.903,64.33 141.808,63.644 143.063,63.644 C144.727,63.644 145.238,64.695 145.238,65.979 L145.238,71.044 L144.143,71.044 Z M152.9,67.191 L148.055,67.191 C147.981,69.365 148.843,70.27 150.463,70.27 C151.222,70.27 152.025,70.08 152.565,69.803 L152.667,70.737 C151.995,71.015 151.178,71.175 150.273,71.175 C148.084,71.175 146.916,69.993 146.916,67.454 C146.916,65.278 148.084,63.659 150.098,63.659 C152.097,63.659 152.929,65.045 152.929,66.651 C152.929,66.782 152.929,66.972 152.9,67.191 Z M150.04,64.49 C149.018,64.49 148.288,65.234 148.113,66.373 L151.791,66.373 C151.82,65.25 151.149,64.49 150.04,64.49 Z M155.775,71.175 C155.236,71.175 154.681,71.117 154.243,71.029 L154.272,70.022 C154.739,70.153 155.323,70.255 155.892,70.255 C156.943,70.255 157.673,69.789 157.673,69.029 C157.673,67.278 154.141,68.373 154.141,65.789 C154.141,64.578 155.133,63.659 156.972,63.659 C157.425,63.659 157.936,63.732 158.387,63.819 L158.359,64.768 C157.877,64.607 157.352,64.52 156.856,64.52 C155.79,64.52 155.265,64.957 155.265,65.673 C155.265,67.409 158.811,66.417 158.811,68.883 C158.811,70.168 157.673,71.175 155.775,71.175 Z M162.796,71.16 C161.336,71.16 160.912,70.518 160.912,69.015 L160.912,64.651 L159.337,64.651 L159.337,63.79 L160.912,63.79 L160.912,61.382 L162.008,61.075 L162.008,63.79 L164.138,63.79 L164.138,64.651 L162.008,64.651 L162.008,68.562 C162.008,69.861 162.241,70.198 163.102,70.198 C163.467,70.198 163.846,70.153 164.138,70.066 L164.138,71.015 C163.759,71.102 163.248,71.16 162.796,71.16 Z M171.042,67.191 L166.196,67.191 C166.123,69.365 166.984,70.27 168.604,70.27 C169.363,70.27 170.166,70.08 170.706,69.803 L170.808,70.737 C170.137,71.015 169.32,71.175 168.415,71.175 C166.225,71.175 165.057,69.993 165.057,67.454 C165.057,65.278 166.225,63.659 168.24,63.659 C170.239,63.659 171.07,65.045 171.07,66.651 C171.07,66.782 171.07,66.972 171.042,67.191 Z M168.181,64.49 C167.159,64.49 166.429,65.234 166.254,66.373 L169.932,66.373 C169.962,65.25 169.291,64.49 168.181,64.49 Z M176.208,64.738 C174.603,64.476 173.843,65.701 173.843,68.139 L173.843,71.044 L172.749,71.044 L172.749,63.79 L173.829,63.79 C173.829,64.272 173.771,64.987 173.668,65.614 L173.683,65.629 C173.975,64.563 174.734,63.483 176.252,63.659 L176.208,64.738 Z"/>
  </g>
</svg>
