<svg xmlns="http://www.w3.org/2000/svg" width="177" height="75" viewBox="0 0 177 75"><g fill="none"><path fill="#FFF" d="M.593 55.009h175.651V.464H.593z"/><path fill="#3001FF" d="M113.241 39.451c2.424.993 3.506 2.072 3.506 3.699 0 2.197-1.987 3.89-4.548 3.89-2.495 0-4.48-1.542-4.48-3.467 0-1.482 1.153-2.687 3.395-3.512-2.171-.89-3.211-1.923-3.211-3.359 0-1.861 1.919-3.425 4.228-3.425 2.308 0 4.155 1.351 4.155 3.043 0 1.352-1.013 2.391-3.045 3.131zm-1.663.822c-1.574.781-2.519 1.884-2.519 3.258 0 1.798 1.408 2.977 3.164 2.977 1.732 0 3.161-1.116 3.161-2.766 0-1.416-1.129-2.351-3.806-3.469zm.529-6.462c-1.593 0-2.956.903-2.956 2.234 0 1.164.653 1.967 3.656 3.126 1.293-.738 2.208-1.665 2.208-2.87 0-1.524-1.292-2.49-2.908-2.49zm14.332 9.218v-.49l6.701-9.131h.624v8.562h1.735v1.059h-1.735v3.798h-1.49v-3.798h-5.835zm5.835-7.568l-4.746 6.509h4.746v-6.509zm-31.159 11.366v-.508c1.995 0 2.09-.343 2.09-1.38h.003v-9.84c-.711.591-1.951 1.374-2.777 1.736l-.177-.297c1.288-.824 3.133-2.412 3.664-3.13h.777v11.245c.026 1.358.284 1.618 2.274 1.666v.508h-5.854zm25.1-2.938h-.397c-.287 1.277-.659 1.614-1.706 1.635h-4.991c2.633-2.314 6.681-5.333 6.681-8.53 0-2.121-1.616-3.717-3.819-3.717-2.272 0-3.993 1.638-4.243 4.032h.334c.482-1.703 1.808-2.837 3.298-2.837 1.577 0 2.774 1.242 2.774 2.818 0 3.77-6.138 8.408-6.68 8.937v.6h8.349l.003.002v-.002h.005l.176-1.303h-.002l.218-1.635zM113.299 17.21c-.342-2.194-1.016-2.347-1.955-2.347h-5.941v6.475h4.651c.958 0 1.411-.122 1.542-1.665h.506v4.459h-.506c-.213-1.887-.718-1.771-1.811-1.771h-4.382v5.664c0 1.224.563 1.461 1.545 1.461h3.985c1.829 0 2.432-.392 3.072-2.632h.484l-.416 3.589H100.92v-.507c2.13-.051 2.277-.345 2.277-1.966l.011-11.597c0-1.623-.151-1.915-2.277-1.966v-.506l12.647.006.208 3.303h-.487zm11.676-.541h11.289l.324 2.997h-.392c-.326-1.919-.729-2.167-1.6-2.167h-3.03v10.896c0 1.175.395 1.591 1.722 1.591h.5v.458h-6.336v-.458h.498c1.327 0 1.721-.416 1.721-1.591V17.499h-3.027c-.871 0-1.261.239-1.589 2.17h-.393l.313-3zm-7.983 2.336c0-1.232 1.103-1.977 2.685-1.977 1.653 0 3.187 1.053 3.859 2.638h.384l-.316-2.356c-.824-.376-2.59-.924-4.143-.924-2.445 0-4.219 1.589-4.219 3.417 0 3.852 7.646 4.71 7.646 7.877 0 1.738-1.7 2.483-3.306 2.483-1.874 0-3.593-1.14-4.103-3.309h-.421l.486 3.277c1.24.345 2.927.739 4.254.739 2.803 0 4.843-1.807 4.843-3.966 0-4.051-7.649-4.774-7.649-7.899z"/><path fill="#3001FF" d="M155.937 22.937c-.613 0-1.016.028-1.656-.052v-8.547c.482-.052.832-.052 1.335-.052 4.119 0 5.243 1.811 5.243 4.298 0 3.209-1.953 4.353-4.922 4.353zm-81.096-9.43c2.79 0 4.841.936 6.082 1.468l.206 3.293h-.508c-.875-2.474-2.721-4.094-5.622-4.094-4.44 0-6.654 3.433-6.654 7.903 0 4.811 2.906 8.062 6.949 8.062 1.211 0 4.239-.806 6.048-4.024h.503l-1.271 3.121c-1.585.755-2.861 1.634-5.998 1.634-5.399 0-8.621-3.562-8.621-8.481 0-5.159 3.327-8.882 8.886-8.882zm25.687 16.429v.504h-6.579v-.504c2.007-.05 2.252-.314 2.273-1.708v-5.866h-9.764v5.605h.004c0 1.622.15 1.914 2.275 1.967v.505H82.16v-.505c1.994 0 2.088-.345 2.088-1.382h.003V15.794l-.005-.003c0-1.037-.095-1.38-2.089-1.38v-.507h6.579v.507c-2.126.051-2.277.343-2.277 1.966l-.005-.001-.005 4.962h9.765l.005-5.19c-.018-1.417-.255-1.689-2.274-1.736v-.505h6.578v.505c-1.993 0-2.09.344-2.09 1.382h-.007v12.758l.011.002c0 1.036.095 1.382 2.091 1.382zM60.231 13.907v.505c2.126.053 2.275.345 2.275 1.969v10.581L51.397 13.907H47.42v.505c.929.026 1.424.237 2.035.665v13.08c0 1.01-.388 1.729-1.28 1.729-.71 0-1.04-.783-1.427-1.623l-6.187-14.356h-1.888l-5.712 13.401c-1.021 2.223-1.205 2.583-1.755 2.583-.69 0-.935-.614-1.05-2.4l-.812-11.7c0-1.037.314-1.38 2.309-1.38v-.507l-4.484.001-5.843 13.429-5.877-13.427H10.79v.505c1.996 0 2.312.344 2.312 1.382l-.709 11.3c-.134 2.418-.371 2.845-2.316 2.845v.504h5.534v-.504c-1.198-.054-2.208-.345-2.129-1.7l.718-11.966h.056l6.246 14.17h.61l6.065-14.17h.054l.77 11.91c.108 1.411-1.117 1.756-2.365 1.756v.504H35.9v-.504h-.096c-1.462 0-2.153-.264-2.153-.983 0-.372.347-1.17.532-1.677l1.476-3.495h6.928l1.742 4.161c.106.266.293.665.293 1.088 0 .745-.558.906-2.074.906h-.363v.504h10.821v-.504c-2.262 0-2.354-.397-2.354-2.312V16.22l12.359 14.41h.691V15.794c0-1.037.096-1.382 2.093-1.382v-.505h-5.564zm-24.139 8.854l3.048-7.219 3.019 7.219h-6.067zm112.494-5.551l-.211-3.303-12.645-.006v.506c2.127.051 2.274.343 2.274 1.966l-.007 11.597c0 1.621-.151 1.915-2.277 1.966v.507h13.15l.419-3.589h-.485c-.642 2.24-1.24 2.632-3.072 2.632h-3.982c-.987 0-1.548-.237-1.548-1.461v-5.664h4.386c1.089 0 1.597-.116 1.807 1.771h.506v-4.459h-.506c-.134 1.543-.586 1.665-1.542 1.665h-4.651v-6.475h5.938c.943 0 1.617.153 1.959 2.347h.487z"/><path fill="#3001FF" d="M164.973 27.363l-2.111-2.021c-1.258-1.256-2.058-1.81-3.048-2.586 2.196-.642 3.559-2.327 3.559-4.33 0-2.73-2.219-4.76-7.165-4.76-1.739 0-2.274.025-3.369.081-1.095.052-2.727.16-3.369.16v.508h.587c1.55 0 2.008.48 2.008 2.139v11.162c0 1.791-.563 2.22-2.14 2.22h-.455v.507h7.565v-.507h-.614c-1.5 0-2.14-.4-2.14-2.005v-4.427c.429.028.777.052 1.364.052.703 0 1.126-.024 1.761-.05 2.037 1.167 3.63 2.96 4.574 3.857 2.438 2.321 3.007 3.294 7.684 3.08v-.507c-2.056-.133-3.112-.993-4.691-2.573z"/><path fill="#FFF" d="M155.937 22.937c-.613 0-1.016.028-1.656-.052v-8.547c.482-.052.832-.052 1.335-.052 4.119 0 5.243 1.811 5.243 4.298 0 3.209-1.953 4.353-4.922 4.353zM4.561 62.126v8.918H3.453v-8.918H.504v-.934h7.021v.934H4.561m8.948 8.918v-4.7c0-1.139-.307-1.795-1.358-1.795-1.299 0-2.219 1.284-2.219 3.007v3.488H8.838V60.389h1.094v3.547c0 .481-.029 1.08-.116 1.444l.029.015c.423-1.065 1.328-1.751 2.583-1.751 1.664 0 2.175 1.051 2.175 2.335v5.065h-1.094zm8.756-3.853H17.42c-.073 2.174.787 3.079 2.408 3.079.759 0 1.561-.19 2.101-.467l.102.934c-.671.278-1.488.438-2.393.438-2.189 0-3.356-1.182-3.356-3.721 0-2.176 1.167-3.795 3.181-3.795 1.999 0 2.832 1.386 2.832 2.992 0 .131 0 .321-.03.54zm-2.86-2.701c-1.022 0-1.752.744-1.927 1.883h3.678c.029-1.123-.642-1.883-1.751-1.883zm11.164 6.685c-3.05 0-3.634-1.707-3.634-3.401v-6.582h1.124v6.48c0 1.416.467 2.583 2.598 2.583 1.81 0 2.7-.759 2.7-2.86v-6.203h1.095v6.115c0 2.525-1.328 3.868-3.883 3.868zm10.699-.131v-4.7c0-1.139-.307-1.795-1.358-1.795-1.299 0-2.218 1.284-2.218 3.007v3.488h-1.095V63.79h1.08c0 .466-.043 1.167-.117 1.605l.029.015c.409-1.051 1.329-1.766 2.598-1.766 1.664 0 2.175 1.051 2.175 2.335v5.065h-1.094zm3.721-8.568a.742.742 0 0 1-.759-.744.76.76 0 0 1 1.518 0 .75.75 0 0 1-.759.744zm-.554 8.568h1.094V63.79h-1.094v7.254zm6.158 0h-1.138l-2.744-7.254h1.241l1.693 4.729c.145.452.277.861.409 1.284h.014c.117-.394.248-.832.395-1.225l1.736-4.788h1.197l-2.803 7.254zm9.062-3.853H54.81c-.073 2.174.788 3.079 2.408 3.079.758 0 1.561-.19 2.101-.467l.102.934c-.671.278-1.488.438-2.393.438-2.189 0-3.357-1.182-3.357-3.721 0-2.176 1.168-3.795 3.181-3.795 2 0 2.832 1.386 2.832 2.992 0 .131 0 .321-.029.54zm-2.86-2.701c-1.022 0-1.752.744-1.927 1.883h3.678c.029-1.123-.642-1.883-1.751-1.883zm8.099.248c-1.606-.262-2.364.963-2.364 3.401v2.905h-1.094V63.79h1.08c0 .482-.059 1.197-.161 1.824l.015.015c.292-1.066 1.05-2.146 2.569-1.97l-.045 1.079zm2.511 6.437c-.54 0-1.095-.058-1.533-.146l.029-1.007a6.21 6.21 0 0 0 1.62.233c1.051 0 1.781-.466 1.781-1.226 0-1.751-3.532-.656-3.532-3.24 0-1.211.993-2.13 2.831-2.13.453 0 .964.073 1.416.16l-.029.949a4.83 4.83 0 0 0-1.503-.248c-1.066 0-1.591.437-1.591 1.153 0 1.736 3.546.744 3.546 3.21 0 1.285-1.138 2.292-3.035 2.292zm6.028-9.443a.761.761 0 0 0-.76-.745.751.751 0 0 0-.759.745c0 .423.336.744.759.744.409 0 .76-.321.76-.744zm-1.314 9.312h1.094V63.79h-1.094v7.254zm5.619.116c-1.459 0-1.883-.642-1.883-2.145v-4.364h-1.576v-.861h1.576v-2.408l1.095-.307v2.715h2.13v.861h-2.13v3.911c0 1.299.233 1.636 1.095 1.636.364 0 .744-.045 1.035-.132v.949c-.379.087-.89.145-1.342.145zm5.312.642c-.846 2.234-1.488 2.978-3.079 2.978-.263 0-.628-.029-.92-.073l.117-1.007c.292.102.584.145.905.145.875 0 1.314-.408 1.883-1.94l.335-.861-2.773-7.254h1.255l1.518 4.159c.234.657.395 1.182.555 1.722h.015c.131-.467.437-1.371.729-2.203l1.299-3.678h1.197l-3.036 8.012zm9.589-.627c-1.941 0-3.196-1.182-3.196-3.721 0-2.074 1.284-3.795 3.459-3.795 1.766 0 3.211.977 3.211 3.634 0 2.16-1.329 3.882-3.474 3.882zm.161-6.612c-1.139 0-2.219.862-2.219 2.803 0 1.854.803 2.875 2.219 2.875 1.138 0 2.174-.876 2.174-2.875 0-1.752-.729-2.803-2.174-2.803zm9.194-3.196a3.76 3.76 0 0 0-1.139-.16c-1.109 0-1.605.642-1.605 2.043v.54h2.146v.861H99.25v6.393h-1.095v-6.393h-1.576v-.861h1.576v-.511c0-2.029 1.007-2.963 2.744-2.963.408 0 .802.044 1.197.132l-.102.919zm13.193 9.677l-.876-6.072c-.175-1.197-.248-1.926-.306-2.466h-.029c-.102.408-.249.977-.482 1.648l-2.306 6.89h-1.27l-2.189-6.451c-.248-.716-.511-1.489-.628-2.087h-.014c-.043.788-.146 1.575-.263 2.583l-.715 5.955h-1.153l1.401-9.852h1.416l2.247 6.655c.248.715.453 1.373.555 1.912h.029c.146-.671.292-1.109.54-1.81l2.306-6.757h1.46l1.459 9.852h-1.182zm6.889 0c0-.555 0-1.11.073-1.533h-.029c-.35.919-1.285 1.664-2.525 1.664-1.153 0-1.985-.613-1.985-1.766 0-1.518 1.576-2.569 4.408-2.569v-.598c0-1.095-.395-1.708-1.65-1.708-.7 0-1.576.22-2.218.628l-.102-.963a6.12 6.12 0 0 1 2.51-.54c2 0 2.569.992 2.569 2.364v2.846c0 .715 0 1.533.029 2.175h-1.08zm-.058-3.401c-2.729 0-3.314.861-3.314 1.561 0 .657.468 1.081 1.183 1.081 1.284 0 2.131-1.27 2.131-2.525v-.117zm7.866 3.401v-4.7c0-1.139-.306-1.795-1.357-1.795-1.299 0-2.218 1.284-2.218 3.007v3.488h-1.095V63.79h1.08c0 .466-.044 1.167-.117 1.605l.03.015c.408-1.051 1.327-1.766 2.597-1.766 1.664 0 2.175 1.051 2.175 2.335v5.065h-1.095zm5.911.087c-1.62 0-3.138-.715-3.138-3.459 0-2.379 1.197-3.985 3.561-3.985.599 0 1.198.088 1.708.249l-.117.963a4.557 4.557 0 0 0-1.664-.321c-1.561 0-2.335 1.154-2.335 2.904 0 1.489.467 2.716 2.219 2.716.642 0 1.342-.161 1.824-.409l.102.948a6.13 6.13 0 0 1-2.16.394zm8.348-.087v-4.7c0-1.139-.307-1.795-1.357-1.795-1.299 0-2.219 1.284-2.219 3.007v3.488h-1.094V60.389h1.094v3.547c0 .481-.028 1.08-.116 1.444l.029.015c.423-1.065 1.328-1.751 2.583-1.751 1.664 0 2.175 1.051 2.175 2.335v5.065h-1.095zm8.757-3.853h-4.845c-.074 2.174.788 3.079 2.408 3.079.759 0 1.562-.19 2.102-.467l.102.934c-.672.278-1.489.438-2.394.438-2.189 0-3.357-1.182-3.357-3.721 0-2.176 1.168-3.795 3.182-3.795 1.999 0 2.831 1.386 2.831 2.992 0 .131 0 .321-.029.54zm-2.86-2.701c-1.022 0-1.752.744-1.927 1.883h3.678c.029-1.123-.642-1.883-1.751-1.883zm5.735 6.685a8.125 8.125 0 0 1-1.532-.146l.029-1.007a6.21 6.21 0 0 0 1.62.233c1.051 0 1.781-.466 1.781-1.226 0-1.751-3.532-.656-3.532-3.24 0-1.211.992-2.13 2.831-2.13.453 0 .964.073 1.415.16l-.028.949a4.83 4.83 0 0 0-1.503-.248c-1.066 0-1.591.437-1.591 1.153 0 1.736 3.546.744 3.546 3.21 0 1.285-1.138 2.292-3.036 2.292zm7.021-.015c-1.46 0-1.884-.642-1.884-2.145v-4.364h-1.575v-.861h1.575v-2.408l1.096-.307v2.715h2.13v.861h-2.13v3.911c0 1.299.233 1.636 1.094 1.636.365 0 .744-.045 1.036-.132v.949c-.379.087-.89.145-1.342.145zm8.246-3.969h-4.846c-.073 2.174.788 3.079 2.408 3.079.759 0 1.562-.19 2.102-.467l.102.934c-.671.278-1.488.438-2.393.438-2.19 0-3.358-1.182-3.358-3.721 0-2.176 1.168-3.795 3.183-3.795 1.999 0 2.83 1.386 2.83 2.992 0 .131 0 .321-.028.54zm-2.861-2.701c-1.022 0-1.752.744-1.927 1.883h3.678c.03-1.123-.641-1.883-1.751-1.883zm8.027.248c-1.605-.262-2.365.963-2.365 3.401v2.905h-1.094V63.79h1.08c0 .482-.058 1.197-.161 1.824l.015.015c.292-1.066 1.051-2.146 2.569-1.97l-.044 1.079z"/></g></svg>