<svg xmlns="http://www.w3.org/2000/svg" version="1.1" width="114px" height="51px" viewBox="0 0 114.4115 51.0012">
  <g id="logo">
     <title>logo</title> <g> <g> <rect x="0.0001" y="0.0001" width="5.609" height="38.1822" style="fill: #ffffff"/> <polygon points="15.684 18.285 15.216 16.516 14.903 16.516 14.903 18.285 14.903 38.182 9.762 38.182 9.762 0 14.748 0 20.202 19.89 20.669 21.659 20.982 21.659 20.982 19.89 20.982 0 26.125 0 26.125 38.182 21.138 38.182 15.684 18.285" style="fill: #ffffff"/> <rect x="30.0686" y="21.7133" width="7.5303" height="4.9313" style="fill: #ffffff"/> <path d="M46.3091,4.3872h5.61c4.8839,0,9.8624,2.6485,9.8624,11.4281,0,8.7745-4.9784,11.475-9.8624,11.475V42.5694h-5.61Zm5.61,17.1893c3.5344,0,4.211-1.2929,4.211-5.5566,0-4.2593-.6766-5.9187-4.211-5.9187Z" transform="translate(-4.7634 -4.3871)" style="fill: #ffffff"/> <path d="M63.033,42.5693,68.794,4.3872h6.857l5.7647,38.1822H75.9639l-1.0334-7.796H69.53l-1.0488,7.796Zm9.5025-25.7679-.1562-.9861H72.066l-.1566.9861L70.2987,28.8479h3.8492Z" transform="translate(-4.7634 -4.3871)" style="fill: #ffffff"/> <path d="M94.0445,42.5694,91.1326,26.4605H89.63V42.5694H84.01V4.3871h5.62c6.638,0,9.55,3.8432,9.55,11.0134,0,3.7884-.9864,7.2168-3.1155,8.6728l3.5853,18.4962ZM89.63,9.9447V21.271c1.55,0,4.1486-.2115,4.1486-5.667,0-5.4483-2.5989-5.6593-4.1486-5.6593" transform="translate(-4.7634 -4.3871)" style="fill: #ffffff"/> <polygon points="96.027 5.769 96.027 0 112.23 0 112.23 5.769 106.934 5.769 106.934 38.182 101.319 38.182 101.319 5.769 96.027 5.769" style="fill: #ffffff"/> </g> <rect y="43.3662" width="38.1352" height="7.635" style="fill: #9ccae2"/> <rect x="38.1352" y="43.3662" width="38.1427" height="7.635" style="fill: #c3e483"/> <rect x="76.2779" y="43.3662" width="38.1336" height="7.635" style="fill: #f7a95f"/> </g>
  </g>
</svg>
