<svg xmlns="http://www.w3.org/2000/svg" width="478" height="333" viewBox="0 0 478 333">
  <defs>
    <linearGradient id="a" x1="0%" y1="100%" y2="0%">
      <stop stop-color="#30CFD0" offset="0%"/>
      <stop stop-color="#330867" offset="100%"/>
    </linearGradient>
    <linearGradient id="b" x1="0%" y1="100%" y2="0%">
      <stop stop-color="#2AF598" offset="0%"/>
      <stop stop-color="#0073FC" offset="100%"/>
    </linearGradient>
  </defs>
  <g fill="none" fill-rule="evenodd" transform="translate(-3)">
    <path fill="url(#a)" fill-rule="nonzero" d="M176.728675 152C174.737592 157.56031 176.63927 170.186546 181.336753 176.006934 181.336753 186.113012 181.335354 195.205575 186.313801 204.302439 190.296667 211.8826 193.780383 215.419035 199.753633 219.965947 205.727583 224.513018 208.840191 225.443945 215.350492 228.38762 220.421181 230.680215 229.785904 235.000512 239 234.859405 231.03555 235.87008 214.505111 231.20834 207.174891 228.027079 189.011221 220.13799 175.739392 208.441262 171.259435 188.732489 168.769861 177.615893 169.664104 162.968465 176.728675 152zM265.286937 93.6688593C272.749848 104.4011 276.863461 110.667564 282.246512 120.666857 296.433386 145.667744 301.976039 167.99382 292.192413 196.4925 286.321008 212.99466 264.636116 231.491314 246 234 254.269361 233.553313 271.320808 228.990827 281.499656 222.324567 303.069488 208.199792 312.265858 192.938095 316.085863 169.501413 318.683988 153.556392 315.792254 137.607466 306.79082 125.500338 309.346964 132.078089 304.834118 140.001406 303.854316 142.500448 304.299541 137.518917 302.49438 126.87788 298.655429 120.015313 290.51465 105.453495 281.666209 95.719692 269.568631 82.7717803 260.469786 73.0352833 257.946763 56.0711316 263.249173 46 253.266714 55.3270566 250.61316 69.1822025 252.079369 75.3366528 252.079178 75.3367699 262.037952 88.9970539 265.286937 93.6688593z"/>
    <path fill="url(#b)" fill-rule="nonzero" d="M238.043441,233.997941 C225.51734,234.149506 207.237505,225.898015 199.979581,220.372054 C177.726713,203.288239 178.739718,178.856316 184.54373,153.73378 C187.446832,141.674111 194.2056,126.686224 195.228615,116.468123 C196.089653,107.870619 193.211445,100.647671 190.788838,94.7533731 C193.691108,99.7803442 197.017891,104.351523 201.854908,107.870619 C211.531434,115.406269 220.882267,109.799603 223.117511,99.0728997 C227.412876,78.4617102 215.252132,56.7746997 224.652978,30.9419732 C229.854219,16.644777 237.299958,7.85682721 251.943749,0 C221.365972,30.5763824 244.107834,61.901916 262.410485,88.148806 C284.16144,119.339568 308.34369,154.047738 293.346177,194.243183 C285.607985,213.839915 268.391773,229.57558 245.81257,233.936774 L238.043441,233.997941 Z"/>
    <path fill="url(#a)" fill-rule="nonzero" d="M242.586974,234 L231.30514,234 C206.449727,224.27399 194.1665,192.165526 207.396857,169.621528 C213.124472,159.858094 219.662604,153.977061 229.034181,150.849148 C223.748096,155.825407 223.777584,167.30224 227.730492,171.96604 C237.328287,183.620933 250.561304,171.310056 244.750125,157.106818 C231.685489,125.173354 209.335196,119.179969 216.629123,88.2831672 C219.463974,76.2838454 229.789445,64.8360812 241.154766,57 C235.692927,66.7134957 235.809399,74.8329662 235.809399,81.2447262 C236.374014,97.5643609 247.855009,108.689703 258.018216,120.348675 C277.216429,143.078619 296.414679,168.901992 281.915746,201.685781 C273.709878,220.23589 261.670196,229.511552 243.682762,233.895847 L242.586974,234 Z"/>
    <text fill="#324C8B" font-family="SFUIText-Bold, SF UI Text" font-size="72" font-weight="bold" letter-spacing="7.38">
      <tspan x=".472" y="331">SPRINTLOG</tspan>
    </text>
  </g>
</svg>
