<svg xmlns="http://www.w3.org/2000/svg" width="327" height="80" viewBox="0 0 327 80">
  <g fill="none">
    <path fill="#FFFFFF" d="M147.5 0L7.3 0C3.3 0 0 3.3 0 7.3L0 72.6C0 76.6 3.3 79.9 7.3 79.9L147.4 79.9 147.4 0 147.5 0zM147.5 0L319 0C323 0 326.3 3.3 326.3 7.3L326.3 72.6C326.3 76.6 323 79.9 319 79.9L147.5 79.9 147.5 0z"/>
    <path d="M147.5,1.6 L318.5,1.6 C313,25.6 292.2,41.1 284.3,41.1 L147.5,41.1 L147.5,1.6 Z" opacity=".9"/>
    <path d="M147.5,1.6 L9.4,1.6 C14.9,25.6 35.7,41.1 43.6,41.1 L147.5,41.1 L147.5,1.6 Z" opacity=".3"/>
    <path fill="#3001FF" d="M97.4,75.1 C98.4,75.6 100.3,76.2 102.8,76.2 C107,76.3 109.3,74.7 111,70.9 L133.6,20.5 C132.7,20 130.6,19.4 128.9,19.4 C126,19.3 122.1,19.9 119.6,25.9 L112.3,43.2 L97.9,19.9 C97,19.6 94.7,19.2 93.1,19.2 C88,19.2 85.2,21.1 82.3,24.3 L68.3,39.5 L79.5,57.2 C81.6,60.4 84.3,62.1 88.7,62.1 C91.6,62.1 94,61.4 95.1,60.9 L81.7,40.4 L91.3,30.2 L107,54.9 L97.4,75.1 Z M67.7,56.1 C67.7,59.8 66.2,62 59,62 C58,62 57.2,61.9 56.4,61.8 L56.4,12.4 C56.4,8.7 57.7,4.7 65,4.7 C65.9,4.7 66.9,4.8 67.7,5 L67.7,56.1 Z M52.8,48.6 C52.8,55.5 48.3,60.6 39.1,61.6 C32.4,62.3 22.8,61.5 18.2,61 C18,60.3 17.9,59.3 17.9,58.6 C17.9,52.6 21.2,51.2 24.2,51.2 C27.4,51.2 32.4,51.8 36.1,51.8 C40.2,51.8 41.5,50.4 41.5,49.1 C41.5,47.4 39.9,46.7 36.7,46 L28,44.3 C20.7,42.9 16.9,37.9 16.9,32.6 C16.9,26.1 21.5,20.7 30.5,19.7 C37.3,19 45.6,19.8 50.2,20.3 C50.4,21.1 50.4,21.8 50.4,22.6 C50.4,28.6 47.2,29.9 44.1,29.9 C41.7,29.9 38.1,29.5 33.9,29.5 C29.7,29.5 27.9,30.7 27.9,32.1 C27.9,33.6 29.6,34.2 32.2,34.7 L40.5,36.2 C49.1,37.8 52.8,42.6 52.8,48.6 Z M187.9,65.6 L173.9,65.6 C172.3,65.6 170.9,65.4 169.9,65.1 C168.9,64.8 168.2,64.4 167.7,63.9 C167.2,63.4 166.8,62.8 166.6,62 C166.4,61.2 166.3,60.4 166.3,59.5 L166.3,20.1 C166.3,19.2 166.4,18.4 166.6,17.6 C166.8,16.9 167.1,16.3 167.7,15.7 C168.2,15.2 169,14.8 169.9,14.5 C170.9,14.2 172.2,14.1 173.8,14.1 L187.3,14.1 C191.4,14.1 194.8,14.4 197.5,15.1 C200.2,15.8 202.5,16.7 204.2,17.9 C205.9,19.1 207.1,20.5 207.8,22.1 C208.5,23.7 208.9,25.4 208.9,27.3 C208.9,29.9 208.1,32 206.6,33.9 C205,35.8 202.8,37.2 200,38.2 L198.6,38.7 L200,39.1 C204,40.2 206.8,41.8 208.5,43.8 C210.2,45.8 211,48.1 211,50.7 C211,55.5 209.1,59.1 205.3,61.7 C201.6,64.3 195.7,65.6 187.9,65.6 Z M179,56.4 L186.6,56.4 C190.3,56.4 192.9,55.9 194.5,55 C196.2,54 197.1,52.3 197.1,49.9 C197.1,49.2 197,48.5 196.7,47.8 C196.4,47 195.9,46.3 195.1,45.7 C194.4,45.1 193.3,44.7 192,44.3 C190.7,43.9 189,43.8 186.9,43.8 L179,43.8 L179,56.4 Z M179,35.6 L186.6,35.6 C188.4,35.6 189.9,35.4 191,35.1 C192.2,34.8 193.1,34.3 193.9,33.7 C194.6,33.1 195.1,32.5 195.4,31.7 C195.7,31 195.8,30.3 195.8,29.5 C195.8,27.5 195,26 193.5,25 C192,24.1 189.7,23.6 186.3,23.6 L179,23.6 L179,35.6 Z M230.5,54.9 L230.5,45.2 L248.7,45.2 C253,45.2 255.4,43.7 255.4,38.1 C255.4,36.8 255.3,35.5 255,34.7 L230.5,34.7 L230.5,24.6 L249.2,24.6 C253.5,24.6 255.9,23.1 255.9,17.6 C255.9,16.3 255.7,15 255.5,14.2 L227.5,14.2 C219.5,14.2 218,18.4 218,22.6 L218,65.5 L250.3,65.5 C254.6,65.5 257,64 257,58.5 C257,57.2 256.9,55.9 256.6,55 L230.5,54.9 Z M290.8,24.7 L300.9,24.7 C304.2,24.7 307.6,23.2 307.6,16.6 C307.6,15.8 307.5,14.9 307.4,14.2 L268.2,14.2 C264.9,14.2 261.5,15.7 261.5,22.3 C261.5,23.1 261.6,24 261.7,24.8 L278.3,24.8 L278.3,65.6 C279.2,65.8 280.3,65.8 281.4,65.8 C289.1,65.8 290.9,63.6 290.9,59.6 L290.8,24.7 Z"/>
  </g>
</svg>
