<svg xmlns="http://www.w3.org/2000/svg" width="188" height="38" viewBox="0 0 188 38">
  <g fill="#FFFFFF" fill-rule="evenodd">
    <polyline points="11.99 36.16 8.253 36.16 8.253 5.88 .094 5.88 .094 2.382 20.241 2.382 20.241 5.88 11.99 5.88 11.99 36.16"/>
    <path d="M39.989 5.332C47.747 5.332 53.844 11.63 53.844 19.269 53.844 26.863 47.658 33.205 39.989 33.205 32.322 33.205 26.134 26.863 26.134 19.269 26.134 11.63 32.233 5.332 39.989 5.332zM39.989 1.835C30.351 1.835 22.397 9.666 22.397 19.313 22.397 29.006 30.351 36.703 39.989 36.703 49.629 36.703 57.582 29.006 57.582 19.313 57.582 9.666 49.629 1.835 39.989 1.835zM66.496 5.88L67.894 5.88C72.308 5.88 76.768 6.281 76.768 11.784 76.768 16.618 73.209 17.869 69.019 17.869L66.496 17.869 66.496 5.88zM66.496 21.366L69.244 21.366C72.084 21.366 75.013 21.009 77.305 19.125 79.395 17.379 80.505 14.605 80.505 11.873 80.505 8.875 79.216 5.923 76.725 4.174 74.247 2.469 71.226 2.382 68.297 2.382L62.76 2.382 62.76 36.16 66.496 36.16 66.496 21.366z"/>
    <polyline points="89.675 .425 101.946 28.807 114.263 .425 121.116 36.16 117.263 36.16 112.92 13.292 112.831 13.292 101.946 37.551 91.105 13.292 91.018 13.292 86.672 36.16 82.82 36.16 89.675 .425"/>
    <path d="M143.466,23.086 L132.031,23.086 L137.816,9.545 L143.466,23.086 Z M144.947,26.584 L148.936,36.16 L153.111,36.16 L137.905,0.757 L122.299,36.16 L126.425,36.16 L130.504,26.584 L144.947,26.584 Z"/>
    <polyline points="157.055 .943 183.445 28.543 183.445 2.378 187.181 2.378 187.181 37.686 160.791 10.129 160.791 36.16 157.055 36.16 157.055 .943"/>
  </g>
</svg>
