<svg xmlns="http://www.w3.org/2000/svg" width="197" height="71" viewBox="0 0 197 71">
  <g fill="#FFFFFF" fill-rule="evenodd" transform="translate(-14)">
    <polygon points="29.061 14.479 43.188 14.479 43.188 .397 29.061 .397"/>
    <polygon points="14.931 28.61 29.058 28.61 29.058 14.483 14.931 14.483"/>
    <polygon points="29.061 42.741 43.188 42.741 43.188 28.613 29.061 28.613"/>
    <g transform="translate(14 42)">
      <polygon points=".931 14.869 15.058 14.869 15.058 .742 .931 .742"/>
      <polygon points="15.061 28.94 29.188 28.94 29.188 14.873 15.061 14.873"/>
    </g>
    <path d="M75.196,32.277 C73.736,32.277 72.58,33.17 71.991,34.448 L71.951,34.448 L71.951,32.541 L70.45,32.541 L70.45,42.845 L72.032,42.845 L72.032,37.449 C72.032,36.415 72.174,35.482 72.843,34.671 C73.391,34.021 74.141,33.636 74.973,33.636 C75.642,33.636 76.393,33.98 76.738,34.569 C77.042,35.097 77.022,35.867 77.022,36.476 L77.022,42.845 L78.604,42.845 L78.604,37.145 C78.604,36.131 78.644,34.752 78.117,33.88 C77.468,32.805 76.433,32.277 75.196,32.277"/>
    <polygon points="80.559 42.845 82.141 42.845 82.141 32.541 80.559 32.541"/>
    <polygon points="80.478 30.715 82.222 30.715 82.222 28.93 80.478 28.93"/>
    <path d="M105.132 34.955L105.091 34.955 105.091 32.541 103.672 32.541 103.672 42.845 105.254 42.845 105.254 37.652C105.254 36.841 105.335 36.191 105.762 35.441 106.35 34.407 107.201 33.819 108.418 33.819L108.742 33.819 108.742 32.297 108.154 32.257C106.491 32.257 105.619 33.555 105.132 34.955M116.714 37.531C116.085 37.106 115.314 36.963 114.564 36.82L113.063 36.557C112.15 36.415 111.217 36.172 111.217 35.056 111.217 33.92 112.475 33.555 113.408 33.555 114.584 33.555 115.639 34.042 116.045 35.178L117.505 34.874C116.998 32.967 115.273 32.277 113.428 32.277 111.541 32.277 109.574 33.17 109.574 35.299 109.574 37.125 111.014 37.856 112.596 38.158L114.279 38.464C115.172 38.626 116.288 38.93 116.288 40.025 116.288 41.344 114.889 41.729 113.793 41.729 112.557 41.729 110.913 41.201 110.689 39.802L109.148 40.107C109.675 42.216 111.663 43.048 113.671 43.048 115.68 43.048 117.951 42.195 117.951 39.863 117.951 38.93 117.525 38.078 116.714 37.531"/>
    <polygon points="119.71 42.845 121.292 42.845 121.292 32.541 119.71 32.541"/>
    <polygon points="119.629 30.715 121.373 30.715 121.373 28.93 119.629 28.93"/>
    <path d="M152.877,32.541 L151.053,32.541 L151.053,33.798 L152.877,33.798 L152.877,42.845 L154.46,42.845 L154.46,33.798 L156.854,33.798 L156.854,32.541 L154.46,32.541 C154.439,31.243 154.419,29.985 156.163,29.985 C156.609,29.985 157.035,30.066 157.461,30.147 L157.82,28.869 L156.402,28.728 C153.906,28.484 152.796,30.37 152.877,32.541"/>
    <polyline points="164.221 36.253 169.751 36.253 169.751 34.853 164.221 34.853 164.221 30.431 171.211 30.431 171.211 28.93 162.408 28.93 162.408 42.845 171.414 42.845 171.414 41.344 164.221 41.344 164.221 36.253"/>
    <path d="M179.752 37.531C179.123 37.106 178.352 36.963 177.602 36.82L176.102 36.557C175.188 36.415 174.255 36.172 174.255 35.056 174.255 33.92 175.514 33.555 176.445 33.555 177.622 33.555 178.678 34.042 179.083 35.178L180.543 34.874C180.036 32.967 178.313 32.277 176.466 32.277 174.58 32.277 172.611 33.17 172.611 35.299 172.611 37.125 174.053 37.856 175.634 38.158L177.318 38.464C178.211 38.626 179.326 38.93 179.326 40.025 179.326 41.344 177.928 41.729 176.831 41.729 175.594 41.729 173.951 41.201 173.729 39.802L172.186 40.107C172.714 42.216 174.701 43.048 176.71 43.048 178.718 43.048 180.989 42.195 180.989 39.863 180.989 38.93 180.563 38.078 179.752 37.531M189.65 37.531C189.021 37.106 188.25 36.963 187.5 36.82L185.999 36.557C185.086 36.415 184.152 36.172 184.152 35.056 184.152 33.92 185.411 33.555 186.344 33.555 187.52 33.555 188.575 34.042 188.98 35.178L190.441 34.874C189.934 32.967 188.21 32.277 186.364 32.277 184.479 32.277 182.51 33.17 182.51 35.299 182.51 37.125 183.95 37.856 185.532 38.158L187.216 38.464C188.109 38.626 189.225 38.93 189.225 40.025 189.225 41.344 187.824 41.729 186.729 41.729 185.492 41.729 183.85 41.201 183.626 39.802L182.084 40.107C182.611 42.216 184.6 43.048 186.607 43.048 188.616 43.048 190.887 42.195 190.887 39.863 190.887 38.93 190.461 38.078 189.65 37.531M200.959 40.048C200.35 41.938 198.54 43.076 196.568 43.076 193.439 43.076 191.833 40.597 191.833 37.711 191.833 34.866 193.52 32.285 196.609 32.285 199.821 32.285 201.203 34.967 201.121 37.832L193.621 37.832C193.621 38.646 193.662 39.397 194.048 40.17 194.536 41.146 195.613 41.734 196.691 41.734 198.032 41.734 199.007 40.963 199.455 39.744L200.959 40.048zM199.373 36.654C199.395 34.947 198.438 33.504 196.609 33.504 194.881 33.504 193.764 35.028 193.703 36.654L199.373 36.654zM101.829 40.048C101.219 41.938 99.41 43.076 97.439 43.076 94.309 43.076 92.703 40.597 92.703 37.711 92.703 34.866 94.39 32.285 97.479 32.285 100.69 32.285 102.073 34.967 101.991 37.832L94.492 37.832C94.492 38.646 94.532 39.397 94.918 40.17 95.406 41.146 96.483 41.734 97.56 41.734 98.902 41.734 99.878 40.963 100.325 39.744L101.829 40.048zM100.243 36.654C100.264 34.947 99.308 33.504 97.479 33.504 95.752 33.504 94.634 35.028 94.573 36.654L100.243 36.654zM141.434 37.611C141.434 34.752 143.057 32.277 146.16 32.277 149.184 32.277 150.684 34.914 150.684 37.632 150.684 40.512 149.02 43.048 145.896 43.048 142.813 43.048 141.434 40.33 141.434 37.611zM148.412 40.248C148.838 39.437 148.919 38.504 148.919 37.611 148.919 36.638 148.797 35.623 148.27 34.792 147.783 34.042 146.932 33.575 146.039 33.575 145.044 33.575 144.152 34.143 143.706 35.036 143.32 35.785 143.199 36.779 143.199 37.611 143.199 38.545 143.341 39.619 143.787 40.431 144.232 41.222 145.105 41.729 146.039 41.729 147.093 41.729 147.925 41.182 148.412 40.248zM66.909 28.9L66.909 37.707C66.909 38.539 66.886 39.676 66.32 40.406 65.716 41.199 64.278 41.455 63.243 41.478 62.207 41.455 60.987 41.199 60.382 40.406 59.816 39.676 59.794 38.539 59.794 37.707L59.794 28.9 57.846 28.9 57.846 37.707C57.846 39.149 57.937 40.549 59.069 41.686 60.11 42.74 61.718 43.025 63.235 43.025L63.25 43.025C64.767 43.025 66.374 42.74 67.416 41.686 68.548 40.549 68.639 39.149 68.639 37.707L68.639 28.9 66.909 28.9"/>
    <polyline points="206.824 37.207 209.854 32.581 209.898 32.512 208.245 32.512 208.232 32.532 205.986 36.054 203.814 32.557 201.964 32.557 205.059 37.516 201.581 42.865 201.536 42.935 203.209 42.935 203.223 42.915 205.917 38.742 208.494 42.89 210.365 42.89 206.824 37.207"/>
    <polyline points="92.232 32.512 90.775 32.512 90.765 32.542 87.956 40.888 85.092 32.557 83.322 32.557 87.004 42.89 88.714 42.904 92.274 32.571 92.295 32.512 92.232 32.512"/>
    <path d="M138.169,32.512 L136.796,32.512 L136.785,32.541 L133.977,40.261 L131.216,32.541 L126.322,32.54 L126.322,28.832 L124.74,28.994 L124.74,32.54 L122.914,32.54 L122.914,33.798 L124.74,33.798 L124.74,39.49 C124.74,41.539 125.409,42.858 127.661,42.858 L129.182,42.736 L129.182,41.479 L127.965,41.58 C126.666,41.58 126.322,40.951 126.322,39.755 L126.322,33.798 L130.016,33.798 L130.021,33.793 L133.123,42.691 L133.009,43.027 C132.632,44.146 132.275,45.205 130.848,45.205 C130.546,45.205 130.203,45.158 129.799,45.063 L129.744,45.05 L129.744,46.423 L129.777,46.432 C130.124,46.522 130.537,46.617 130.968,46.617 C131.896,46.617 132.452,46.496 133.098,45.809 C133.666,45.197 133.896,44.588 134.163,43.882 C134.164,43.882 138.212,32.572 138.212,32.572 L138.232,32.512 L138.169,32.512"/>
  </g>
</svg>
