<svg xmlns="http://www.w3.org/2000/svg" viewBox="0 0 894 120.18"><defs><style>.cls-1{fill:#59206e;}.cls-2{fill:#a7c520;}</style></defs><title>phlogonewweb</title><path class="cls-1" d="M29.63 269.16a165.07 165.07 0 0 1 27.37-2.1c14.09 0 24.41 3.31 31 9.21 6.05 5.25 9.65 13.28 9.64 23.12 0 10-3 17.86-8.55 23.59-7.54 8-19.84 12.1-33.77 12.08a49.06 49.06 0 0 1-11.47-1l-.06 44.24h-14.29zm14.19 53.27a47.76 47.76 0 0 0 11.8 1.16c17.21 0 27.7-8.33 27.72-23.56 0-14.58-10.3-21.64-26-21.66a59.85 59.85 0 0 0-13.44 1.13zM112.78 341.36c.3 19.5 12.74 27.54 27.17 27.56 10.32 0 16.55-1.78 22-4.07l2.44 10.33c-5.08 2.29-13.77 5.06-26.38 5-24.46.01-39.01-16.18-39.01-40.18s14.14-42.75 37.25-42.72c25.89 0 32.74 22.82 32.73 37.4a54.85 54.85 0 0 1-.5 6.72zm42.28-10.27c.18-9.18-3.74-23.44-20-23.46-14.58 0-21 13.41-22.15 23.4zM186.2 323.91c0-9.34-.14-17.37-.63-24.74h12.62l.47 15.57h.66c3.62-10.64 12.31-17.35 22-17.34a15.47 15.47 0 0 1 4.1.5v13.6a21.74 21.74 0 0 0-4.91-.5c-10.16 0-17.38 7.68-19.36 18.49a40.49 40.49 0 0 0-.66 6.72l-.05 42.27h-14.25zM250.69 378.55l.08-68.33h-11.14v-11h11.14v-3.77c0-11.14 2.48-21.3 9.21-27.68a27.57 27.57 0 0 1 19.34-7.35 33.41 33.41 0 0 1 12.29 2.31l-2 11.14a21.57 21.57 0 0 0-9.17-1.81c-12.29 0-15.42 10.79-15.43 22.92v4.26h19.17v11h-19.17l-.08 68.33zM301.69 341.58c.31 19.5 12.75 27.54 27.17 27.56 10.32 0 16.55-1.79 22-4.07l2.44 10.33c-5.08 2.29-13.77 5.06-26.39 5-24.42 0-39-16.27-39-40.19s14.14-42.75 37.25-42.72c25.89 0 32.74 22.82 32.73 37.4a55 55 0 0 1-.5 6.71zm42.31-10.27c.17-9.17-3.74-23.43-20-23.45-14.59 0-21 13.41-22.15 23.4zM430.6 375.82c-3.77 2-12.13 4.74-22.78 4.72-23.92 0-39.47-16.43-39.44-40.69 0-24.41 16.76-42.09 42.65-42.06 8.52 0 16.05 2.15 20 4.12l-3.29 11.14c-3.44-2-8.84-3.78-16.71-3.79-18.19 0-28 13.4-28.05 30 0 18.35 11.76 29.67 27.49 29.69a41 41 0 0 0 17.7-3.91zM469.71 280.51v19h20.65v11h-20.65l-.05 42.76c0 9.84 2.77 15.41 10.8 15.42a27.13 27.13 0 0 0 8.36-1l.64 10.81a34.68 34.68 0 0 1-12.78 2.11c-6.72 0-12.13-2.31-15.56-6.24-4.09-4.27-5.56-11.32-5.55-20.65l.05-43.26h-12.33v-11h12.29v-14.58z" transform="translate(-29.5 -260.45)"/><path class="cls-2" d="M479.25 118.08l.14-116.99 32.77.04-.05 46.38 23.91.02.06-46.37 32.77.04-.14 116.99-32.77-.04.07-51.61-23.93-.03-.06 51.61-32.77-.04zM621.11 119.74c-26.87 0-43.72-18.57-43.69-47.41.2-30.64 17.43-51.1 44.8-51.07 27.36-.13 43.89 18.41 43.86 47.57-.2 30.31-17.59 50.77-45 50.9m1-16.22c7.86 0 11.15-4.57 11.18-30.13.2-28.67-3.73-35.07-12.08-34.91-7.87 0-11 4.57-11 30.79-.2 27.85 3.89 34.41 11.92 34.26"/><path class="cls-2" d="M704.11 286l31.79-4.71v9c11.15-5.39 17.54-7.68 24.26-7.67 7.21-.16 12.62 2.64 18.18 8.71 11.8-5.88 21.31-8.66 29.17-8.65 7.21 0 13.76 2.31 18.67 6.9 6.38 5.9 8.5 13.61 8.49 26.72l-.07 62.59h-31.79l.07-57.68c0-14.09-2.44-16.06-13.59-16.73a13.1 13.1 0 0 0-4.42.32 38.1 38.1 0 0 1 .48 6.55l-.08 67.51h-31.79l.06-57.35c0-14.91-2.11-16.39-12.92-17.06a20.29 20.29 0 0 0-4.76.32l-.09 74.06h-31.79zM917.23 358.06l2.62-.49 2.44 15.9-5.73 1.3-9.84 2.44c-10.49 2.61-16.55 3.26-23.27 3.25-24.25.14-40.28-18.72-40.25-45.6 0-30.8 17.43-52.25 44.3-52 10.49 0 19.66 3.47 26 10.35 7.2 7.55 10 12.63 10 30.33v5.73l-48.18 5.18c2.44 17 11.28 24.92 27 25.27a76.07 76.07 0 0 0 14.91-1.62m-24.53-43.16c0-14.09-2.6-16.88-7.84-16.89-6.07-.17-9.84 4.74-9.86 21.13v.65l17.7-2.44z" transform="translate(-29.5 -260.45)"/></svg>